<svg xmlns="http://www.w3.org/2000/svg" width="24" height="24" fill="none"><g fill="#28303F"><path d="M17.82 3H5.93C4.18 3 3 4.18 3 5.94c0 .48.39.88.88.88s.88-.39.88-.88c0-.29 0-1.19 1.18-1.19h11.89C19 4.75 19 5.64 19 5.94c0 .48.39.88.88.88s.88-.39.88-.88C20.75 4.18 19.57 3 17.82 3ZM18.08 7.48H5.67c-1.03 0-1.88.84-1.88 1.88v7.96c0 1.89 1.32 3.43 2.93 3.43h10.29c1.62 0 2.93-1.54 2.93-3.43V9.35c.01-1.03-.83-1.87-1.86-1.87Zm.12 9.84c0 .91-.54 1.68-1.18 1.68H6.73c-.64 0-1.18-.77-1.18-1.68V9.35c0-.07.06-.13.13-.13h12.4c.07 0 .13.06.13.13v7.97h-.01Z"/><path d="M12.88 13.07h-2c-.49 0-.88.39-.88.88s.39.88.88.88h2c.48 0 .88-.39.88-.88s-.4-.88-.88-.88Z"/></g></svg>