<svg xmlns="http://www.w3.org/2000/svg" width="24" height="24" fill="none"><g fill="#28303F"><path d="M3.8 17.32c0 1.89 1.32 3.43 2.93 3.43h10.29c1.62 0 2.93-1.54 2.93-3.43v-6.14H3.8v6.14Zm7.08-4.25h2c.48 0 .88.39.88.88s-.39.88-.88.88h-2a.888.888 0 0 1-.88-.88c0-.48.39-.88.88-.88ZM20.75 5.94c0-1.76-1.18-2.94-2.93-2.94H5.93C4.18 3 3 4.18 3 5.94v.35c0 .05.01.09.01.13 0 .03-.01.05-.01.07 0 1.76 1.18 2.94 2.93 2.94h11.89c1.75 0 2.93-1.18 2.93-2.94 0-.02-.01-.04-.01-.06 0-.05.01-.09.01-.13v-.36Z"/></g></svg>