<svg xmlns="http://www.w3.org/2000/svg" width="24" height="24" fill="none"><g fill="#28303F"><path d="M11.9 8c.5 0 .9-.5.9-1.1V4.1c0-.6-.4-1.1-.9-1.1s-.9.5-.9 1.1v2.7c0 .7.4 1.2.9 1.2ZM20.4 8.9h-17c-.8 0-1.4.6-1.4 1.4v1.4c0 .6.4 1.1.9 1.3.3.1.6.3.7.4.1.1.3.4.5.9s.5 1.2.7 1.9c.4 1.4.8 2.8 1 3.4.2.6.7 1 1.3 1h9.2c.6 0 1.1-.4 1.3-1 .2-.6.7-2.1 1.2-3.4.3-.7.5-1.3.8-1.9.3-.6.5-.9.6-1 .2-.2.5-.4.6-.4.5-.2.9-.7.9-1.3v-1.3c.1-.8-.6-1.4-1.3-1.4ZM9.9 17.6c-.5.1-.9-.2-1-.7l-.5-3c-.1-.5.2-.9.7-1 .5-.1.9.2 1 .7l.5 3c.1.5-.2.9-.7 1Zm4.7-.7c-.1.5-.5.8-1 .7-.5-.1-.8-.5-.7-1l.5-3c.1-.5.5-.8 1-.7.5.1.8.5.7 1l-.5 3Z"/></g></svg>