<svg xmlns="http://www.w3.org/2000/svg" width="24" height="24" fill="none"><path fill="#28303F" fill-rule="evenodd" d="M15.1 17H18.03c1.01 0 1.52 0 1.79-.22a.99.99 0 0 0 .38-.71c.02-.35-.26-.77-.84-1.6l-.77-1.12a7.598 7.598 0 0 1-1.29-3.52l-.24-2.35A4.98 4.98 0 0 0 12.1 3a4.98 4.98 0 0 0-4.96 4.48L6.9 9.82a7.707 7.707 0 0 1-1.29 3.53l-.77 1.12c-.58.83-.86 1.25-.84 1.6.02.28.16.54.38.71.27.22.78.22 1.79.22h8.93Zm.46-7c.16 1.55.71 3.04 1.59 4.33l.63.91H6.42l.63-.91A9.327 9.327 0 0 0 8.64 10l.24-2.35c.17-1.65 1.56-2.9 3.22-2.9 1.66 0 3.05 1.25 3.22 2.91l.24 2.34Zm-1.58 8.57c.24-.34.7-.43 1.04-.19.34.24.43.7.19 1.04-.35.51-.92.83-1.45 1.02-.54.2-1.14.3-1.67.3s-1.13-.1-1.67-.3c-.53-.19-1.1-.51-1.45-1.02a.742.742 0 0 1 .19-1.04c.34-.24.81-.15 1.04.19.1.14.34.32.73.47.38.14.8.21 1.15.21.35 0 .78-.07 1.15-.21.41-.14.65-.32.75-.47Z" clip-rule="evenodd"/></svg>