<svg xmlns="http://www.w3.org/2000/svg" width="24" height="24" fill="none"><path fill="#28303F" d="M19 16.223c0 .188-.07.356-.178.495l-.138.188a2.138 2.138 0 0 0 0 2.551l.148.198a.857.857 0 0 1 .08.88.834.834 0 0 1-.752.465H7.816c-.484 0-.968-.129-1.393-.376A2.79 2.79 0 0 1 5 18.171V4.83C5 3.82 5.82 3 6.828 3h10.344A1.83 1.83 0 0 1 19 4.83v11.393ZM6.68 18.181a1.135 1.135 0 0 0 1.136 1.138h8.941a3.88 3.88 0 0 1 0-2.275H7.816a1.135 1.135 0 0 0-1.136 1.137Zm.148-13.5a.152.152 0 0 0-.148.149V15.6a2.787 2.787 0 0 1 1.136-.237h9.336c.09 0 .168-.08.168-.168V4.83c0-.08-.069-.149-.148-.149H6.828Z"/></svg>