<svg xmlns="http://www.w3.org/2000/svg" width="24" height="24" fill="none"><path fill="#28303F" d="M17 20.76c-.77 0-1.47-.75-2.26-1.58-.32-.34-.69-.74-1.12-1.15l-.51-.49c-.58-.56-.76-.56-1.14-.55h-.2c-.35-.02-.51 0-1.09.55l-.51.49c-.41.39-.76.76-1.08 1.09-1.06 1.11-1.97 2.07-3.04 1.43C5 19.92 5 18.6 5 15.71v-6.3c0-2.81 0-4.22.85-5.28C6.78 3 8.13 3 10.38 3h3c2.24 0 3.6 0 4.52 1.13.86 1.05.86 2.46.86 5.28v6.3c0 2.89 0 4.21-1.06 4.84-.25.15-.48.21-.7.21ZM10.38 4.75c-1.97 0-2.78.02-3.16.49-.47.57-.47 1.85-.47 4.17v6.3c0 1.28 0 2.6.14 3.14.26-.22.63-.61.94-.94.33-.35.7-.74 1.13-1.15l.51-.49c1.01-.98 1.64-1.07 2.32-1.05h.18c.7-.03 1.36.07 2.37 1.05l.51.49c.45.43.84.85 1.18 1.21.29.3.62.66.86.87.11-.52.11-1.84.11-3.13v-6.3c0-2.32 0-3.6-.46-4.17-.38-.47-1.2-.49-3.16-.49h-3Z"/></svg>