<svg xmlns="http://www.w3.org/2000/svg" width="24" height="24" fill="none"><path fill="#28303F" d="M7.28 16.93h10.95c.42 0 .77-.35.77-.78V5.91C19 4.85 18.16 4 17.12 4h-1.31v5.77c0 .26-.21.47-.46.47-.13 0-.26-.09-.33-.14l-1.2-.92s-1.1.97-1.18.99a.481.481 0 0 1-.42.04c-.05-.03-.09-.06-.13-.09-.03-.03-.06-.06-.08-.1 0-.01-.01-.01-.01-.01s-.05-.07-.06-.14c-.01-.07-.01-.14-.01-.14V4H6.98C5.88 4 5 4.9 5 6.01v11.68C5 18.96 6.03 20 7.28 20h10.95c.42 0 .77-.35.77-.78 0-.44-.34-.78-.77-.78H7.28a.75.75 0 0 1-.74-.76c-.01-.42.33-.75.74-.75ZM6.53 6.01c0-.24.18-.43.42-.44v9.84c-.15.02-.28.05-.42.11V6.01Z"/></svg>