<svg xmlns="http://www.w3.org/2000/svg" width="24" height="24" fill="none"><path fill="#28303F" d="M11.88 20.75c-.09 0-.18-.01-.27-.03-.38-.08-.62-.3-.92-.59l-6.81-6.55a6.155 6.155 0 0 1-.63-8.16l.3-.4c.85-1.1 2.05-1.81 3.4-1.98 1.34-.17 2.72.21 3.78 1.05.2.16.32.41.32.67l.05 2.26 2.21 2.26c.16.16.25.38.25.61v2.51c0 .48-.39.87-.88.87s-.88-.39-.88-.87v-2.15L9.6 8a.953.953 0 0 1-.25-.6l-.04-2.17c-.64-.39-1.4-.55-2.15-.46-.87.12-1.66.58-2.21 1.31l-.3.4a4.409 4.409 0 0 0 .45 5.84l6.79 6.53 6.79-6.53c1.61-1.54 1.8-4.06.45-5.84l-.3-.4c-.59-.78-1.43-1.25-2.38-1.32-.94-.07-1.87.26-2.55.91-.35.33-.9.33-1.24-.02-.34-.35-.33-.9.02-1.24 1.04-1 2.47-1.5 3.9-1.4 1.45.11 2.74.83 3.63 2.01l.3.4c1.89 2.49 1.62 6-.63 8.16l-6.81 6.55c-.3.29-.54.52-.93.59-.08.02-.17.03-.26.03Z"/></svg>