<svg xmlns="http://www.w3.org/2000/svg" width="24" height="24" fill="none"><path fill="#28303F" d="m20.5 5.42-.3-.4a5.013 5.013 0 0 0-3.63-2.01c-1.44-.11-2.86.4-3.9 1.4-.14.14-.21.31-.24.49h-.01V5.07l-.12 3.15 1.01 1.03c.16.16.25.38.25.61v2.51c0 .48-.39.88-.88.88s-.89-.4-.89-.89v-2.15L9.6 7.96a.857.857 0 0 1-.25-.6l-.04-3.59c0-.26-.17-.5-.42-.57-.63-.18-1.29-.24-1.95-.16-1.35.17-2.55.87-3.39 1.98l-.3.4a6.172 6.172 0 0 0 .65 8.18l6.8 6.54c.3.29.53.51.92.59.09.02.18.03.27.03.09 0 .18-.01.26-.03.39-.08.62-.3.93-.59l6.81-6.55c2.23-2.17 2.5-5.68.61-8.17Z"/></svg>