<svg xmlns="http://www.w3.org/2000/svg" width="24" height="24" fill="none"><g fill="#28303F"><path d="M19.22 3.78c-.5-.5-1.18-.78-1.89-.78H6.67c-.71 0-1.39.28-1.89.78S4 4.96 4 5.67v10.67a2.66 2.66 0 0 0 1.78 2.51v1.05c0 .24.09.46.26.63.17.17.39.26.63.26s.46-.09.63-.26c.17-.17.26-.39.26-.63V19h8.89v.89c0 .24.09.46.26.63.17.17.39.26.63.26s.46-.09.63-.26c.17-.17.26-.39.26-.63v-1.05a2.66 2.66 0 0 0 1.78-2.51V5.67c-.01-.71-.29-1.39-.79-1.89ZM8.44 16.31c-.5 0-.9-.4-.9-.9s.4-.9.9-.9.9.4.9.9-.4.9-.9.9Zm7.12.02c-.5 0-.9-.4-.9-.9s.4-.9.9-.9.9.4.9.9-.4.9-.9.9Zm-9.78-4.44V5.67c0-.24.09-.46.26-.63.17-.17.39-.26.63-.26h10.67c.24 0 .46.09.63.26.17.17.26.39.26.63v6.22H5.78Z"/><path d="M12.89 5.67h-1.78c-.24 0-.46.09-.63.26-.16.16-.26.39-.26.63s.09.46.26.63c.17.17.39.26.63.26h1.78c.24 0 .46-.09.63-.26.17-.17.26-.39.26-.63s-.09-.46-.26-.63a.894.894 0 0 0-.63-.26Z"/></g></svg>