<svg xmlns="http://www.w3.org/2000/svg" width="24" height="24" fill="none"><path fill="#28303F" d="M15 3H9C6.79 3 5 4.79 5 7v10c0 2.21 1.79 4 4 4h6c2.21 0 4-1.79 4-4V7c0-2.21-1.79-4-4-4ZM8.73 7.5c0-.55.45-1 1-1h4.53c.55 0 1 .45 1 1v1c0 .55-.45 1-1 1H9.73c-.55 0-1-.45-1-1v-1ZM9.9 17.98h-.79c-.48 0-.88-.39-.88-.88s.39-.88.88-.88h.79c.48 0 .88.39.88.88s-.4.88-.88.88Zm0-3.4h-.79c-.48 0-.88-.39-.88-.88s.39-.88.88-.88h.79c.48 0 .88.39.88.88s-.4.88-.88.88Zm4.62 3.4h-.79c-.48 0-.88-.39-.88-.88s.39-.88.88-.88h.79c.48 0 .88.39.88.88s-.4.88-.88.88Zm0-3.4h-.79c-.48 0-.88-.39-.88-.88s.39-.88.88-.88h.79c.48 0 .88.39.88.88s-.4.88-.88.88Z"/></svg>