<svg xmlns="http://www.w3.org/2000/svg" width="24" height="24" fill="none"><g fill="#28303F"><path d="M15 3H9C6.79 3 5 4.79 5 7v10c0 2.21 1.79 4 4 4h6c2.21 0 4-1.79 4-4V7c0-2.21-1.79-4-4-4Zm2.25 14c0 1.24-1.01 2.25-2.25 2.25H9c-1.24 0-2.25-1.01-2.25-2.25V7c0-1.24 1.01-2.25 2.25-2.25h6c1.24 0 2.25 1.01 2.25 2.25v10Z"/><path d="M9.9 16.23h-.79c-.48 0-.88.39-.88.88s.39.88.88.88h.79c.48 0 .88-.39.88-.88s-.4-.88-.88-.88ZM9.9 12.83h-.79c-.48 0-.88.39-.88.88s.39.88.88.88h.79c.48 0 .88-.39.88-.88s-.4-.88-.88-.88ZM14.52 16.23h-.79c-.48 0-.88.39-.88.88s.39.88.88.88h.79c.48 0 .88-.39.88-.88s-.4-.88-.88-.88ZM14.52 12.83h-.79c-.48 0-.88.39-.88.88s.39.88.88.88h.79c.48 0 .88-.39.88-.88s-.4-.88-.88-.88ZM9.73 9.5h4.53c.55 0 1-.45 1-1v-1c0-.55-.45-1-1-1H9.73c-.55 0-1 .45-1 1v1c0 .56.45 1 1 1Z"/></g></svg>