<svg xmlns="http://www.w3.org/2000/svg" width="24" height="24" fill="none"><g fill="#28303F"><path d="M17.9 6h-1.1V3.9c0-.5-.4-.9-.9-.9s-.9.4-.9.9V6H8.8V3.9c0-.5-.4-.9-.9-.9s-.9.4-.9.9V6H5.9C4.3 6 3 7.3 3 8.9v9c0 1.6 1.3 2.9 2.9 2.9h12c1.6 0 2.9-1.3 2.9-2.9v-9c0-1.6-1.3-2.9-2.9-2.9Zm0 13h-12c-.6 0-1.1-.5-1.1-1.1v-7H19v7c0 .6-.5 1.1-1.1 1.1Z"/><path d="M10.4 14.9h-3c-.3 0-.5.2-.5.5v1c0 .3.2.5.5.5h3c.3 0 .5-.2.5-.5v-1c0-.3-.2-.5-.5-.5ZM16.4 14.9h-3c-.3 0-.5.2-.5.5v1c0 .3.2.5.5.5h3c.3 0 .5-.2.5-.5v-1c0-.3-.2-.5-.5-.5Z"/></g></svg>