<svg xmlns="http://www.w3.org/2000/svg" width="24" height="24" fill="none"><g fill="#28303F" clip-path="url(#a)"><path d="M15.59 20.59c-1.33 0-2.67-.41-3.8-1.26l-1.58-1.18a23.488 23.488 0 0 1-4.77-4.78L4.26 11.8c-1.88-2.51-1.63-6.08.59-8.29.67-.67 1.85-.67 2.53 0l2.65 2.65c.73.73.73 1.92 0 2.65l-.85.84c1.07 2.02 2.74 3.7 4.76 4.76l.84-.85c.71-.71 1.94-.71 2.65 0l2.65 2.65c.34.34.52.79.52 1.26s-.19.93-.52 1.26a6.27 6.27 0 0 1-4.49 1.86ZM6.14 4.74a4.57 4.57 0 0 0-.48 6.01l1.18 1.58c1.26 1.67 2.75 3.16 4.43 4.42l1.58 1.18a4.623 4.623 0 0 0 6.01-.43l-2.65-2.7c-.04-.04-.13-.04-.18 0L15 15.83c-.43.43-1.08.53-1.63.26a13.226 13.226 0 0 1-5.87-5.87c-.27-.54-.17-1.2.26-1.63l1.02-1.02c.05-.05.05-.13 0-.18L6.14 4.74Z"/><path d="M4.76 19c-.22 0-.45-.08-.62-.26a.881.881 0 0 1 0-1.24l9-9c.34-.34.9-.34 1.24 0 .34.34.34.9 0 1.24l-9 9c-.17.18-.4.26-.62.26Z"/></g><defs><clipPath id="a"><path fill="#fff" d="M3 3h17.61v17.59H3z"/></clipPath></defs></svg>