<svg xmlns="http://www.w3.org/2000/svg" width="24" height="24" fill="none"><path fill="#28303F" d="m20.089 16.212-2.65-2.65c-.71-.71-1.94-.71-2.65 0l-.84.85c-.9-.47-1.72-1.08-2.46-1.77l2.9-2.9c.34-.34.34-.9 0-1.24a.881.881 0 0 0-1.24 0l-2.86 2.84c-.42-.53-.8-1.1-1.11-1.7l.84-.85c.73-.73.73-1.92 0-2.65l-2.64-2.64c-.67-.67-1.85-.67-2.53 0-2.22 2.21-2.47 5.78-.59 8.29l1.18 1.58c.4.54.83 1.05 1.28 1.55l-2.58 2.58c-.34.34-.34.9 0 1.24.17.17.39.25.62.25.23 0 .45-.08.62-.26l2.56-2.56c.72.7 1.48 1.36 2.28 1.96l1.58 1.18a6.384 6.384 0 0 0 8.3-.59c.34-.34.52-.79.52-1.26s-.2-.92-.53-1.25Z"/></svg>