<svg xmlns="http://www.w3.org/2000/svg" width="24" height="24" fill="none"><g fill="#28303F"><path d="m20.09 16.22-2.65-2.65c-.71-.71-1.94-.71-2.65 0l-.84.85c-2.02-1.07-3.7-2.74-4.76-4.76l.84-.85c.73-.73.73-1.92 0-2.65L7.38 3.51c-.67-.67-1.85-.67-2.53 0-2.22 2.21-2.47 5.78-.59 8.29l1.18 1.58c1.36 1.81 2.96 3.42 4.77 4.78l1.58 1.18a6.384 6.384 0 0 0 8.3-.59c.34-.34.52-.79.52-1.26s-.19-.94-.52-1.27Z"/><path d="M13.49 10.1c.17.17.4.26.62.26.22 0 .45-.09.62-.26l1.88-1.88 1.88 1.88c.17.17.4.26.62.26a.881.881 0 0 0 .62-1.5l-1.88-1.88 1.88-1.88c.34-.34.34-.9 0-1.24a.881.881 0 0 0-1.24 0l-1.88 1.88-1.88-1.88a.881.881 0 0 0-1.24 0c-.34.34-.34.9 0 1.24l1.88 1.88-1.88 1.88c-.34.34-.34.9 0 1.24Z"/></g></svg>