<svg xmlns="http://www.w3.org/2000/svg" width="24" height="24" fill="none"><g fill="#28303F"><path d="M17.66 6.23c-.23 0-.44-.14-.54-.35l-.22-.53A3.865 3.865 0 0 0 13.34 3h-2.5c-1.55 0-2.95.92-3.56 2.35l-.22.52c-.09.21-.3.35-.54.35A4.537 4.537 0 0 0 2 10.75V15a5.89 5.89 0 0 0 5.88 5.88h8.43A5.89 5.89 0 0 0 22.19 15v-4.25a4.537 4.537 0 0 0-4.53-4.52ZM20.43 15c0 2.27-1.85 4.13-4.13 4.13H7.88c-2.27 0-4.13-1.85-4.13-4.13v-4.25a2.77 2.77 0 0 1 2.77-2.77c.94 0 1.78-.56 2.14-1.41l.22-.52a2.13 2.13 0 0 1 1.95-1.29h2.49c.85 0 1.62.51 1.95 1.29l.22.52c.37.86 1.21 1.41 2.14 1.41a2.77 2.77 0 0 1 2.77 2.77V15h.03Z"/><path d="M12.09 8.99a3.64 3.64 0 1 0 0 7.28 3.64 3.64 0 0 0 0-7.28Zm0 5.53c-1.04 0-1.89-.85-1.89-1.89s.85-1.89 1.89-1.89 1.89.85 1.89 1.89-.85 1.89-1.89 1.89Z"/></g></svg>