<svg xmlns="http://www.w3.org/2000/svg" width="24" height="24" fill="none"><g fill="#28303F"><path d="M12.09 10.74c-1.04 0-1.89.85-1.89 1.89s.85 1.89 1.89 1.89 1.89-.85 1.89-1.89-.85-1.89-1.89-1.89Z"/><path d="M17.66 6.23c-.23 0-.44-.14-.54-.35l-.22-.53A3.865 3.865 0 0 0 13.34 3h-2.5c-1.55 0-2.95.92-3.56 2.35l-.22.52c-.09.21-.3.35-.54.35A4.537 4.537 0 0 0 2 10.75V15a5.89 5.89 0 0 0 5.88 5.88h8.43A5.89 5.89 0 0 0 22.19 15v-4.25a4.537 4.537 0 0 0-4.53-4.52Zm-5.57 10.04a3.64 3.64 0 1 1 3.64-3.64c0 2-1.63 3.64-3.64 3.64Z"/></g></svg>