<svg xmlns="http://www.w3.org/2000/svg" width="24" height="24" fill="none"><g fill="#28303F"><path d="M8.31 13.32c-.5 0-.9.4-.9.9s.4.9.9.9.9-.4.9-.9-.4-.9-.9-.9ZM15.72 13.32c-.5 0-.9.4-.9.9s.4.9.9.9.9-.4.9-.9-.4-.9-.9-.9Z"/><path d="M20.39 11c-.21-.26-.48-.46-.78-.59l-1.44-5.47A2.617 2.617 0 0 0 15.63 3H8.29c-1.2 0-2.24.8-2.54 1.94l-1.44 5.47c-.3.13-.57.33-.78.59-.42.49-.6 1.14-.5 1.78l.51 3.13c.12.72.51 1.34 1.06 1.76v2.43c0 .48.39.88.88.88s.88-.39.88-.88v-1.84h11.2v1.84c0 .49.39.88.88.88s.88-.4.88-.88v-2.43c.55-.42.94-1.04 1.06-1.76l.51-3.13c.1-.64-.08-1.29-.5-1.78ZM7.44 5.38c.1-.37.45-.63.85-.63h7.35c.4 0 .75.26.85.63l1.26 4.83H6.18l1.26-4.83Zm11.21 10.24c-.08.5-.53.87-1.06.87H6.33c-.53 0-.98-.37-1.06-.87l-.51-3.13c-.03-.18.05-.3.1-.36.06-.07.18-.18.39-.18h13.43c.21 0 .33.11.39.18.05.06.13.18.1.36l-.52 3.13Z"/></g></svg>