<svg xmlns="http://www.w3.org/2000/svg" width="24" height="24" fill="none"><g fill="#28303F"><path d="M2 10.42v5.08c0 1.28 0 1.99.3 2.62.26.55.66.99 1.17 1.28.62.35 1.28.35 2.48.35h11.86c1.2 0 1.86 0 2.47-.35.51-.29.91-.73 1.17-1.28.3-.63.3-1.34.3-2.62v-5.08H2Zm5.59 5.83c-.56 0-1.01-.46-1.01-1.02s.45-1.02 1.01-1.02 1.01.46 1.01 1.02c.01.56-.45 1.02-1.01 1.02ZM21.75 8.67v-.41c0-1.28 0-1.99-.3-2.62-.26-.55-.66-.99-1.17-1.28C19.67 4 19.01 4 17.81 4H5.94c-1.2 0-1.86 0-2.48.35-.5.29-.9.74-1.16 1.28C2 6.27 2 6.97 2 8.26v.41h19.75Z"/></g></svg>