<svg xmlns="http://www.w3.org/2000/svg" width="24" height="24" fill="none"><g fill="#28303F"><path d="M21.45 5.63c-.26-.55-.66-.99-1.17-1.28C19.67 4 19.01 4 17.81 4H5.94c-1.2 0-1.86 0-2.48.35-.5.29-.9.74-1.16 1.28C2 6.27 2 6.97 2 8.26v7.24c0 1.28 0 1.99.3 2.62.26.55.66.99 1.17 1.28.62.35 1.28.35 2.48.35h11.86c1.2 0 1.86 0 2.47-.35.51-.29.91-.73 1.17-1.28.3-.63.3-1.34.3-2.62V8.26c0-1.29 0-1.99-.3-2.63Zm-17.57.75c.1-.22.26-.4.46-.51.21-.12.76-.12 1.6-.12H17.8c.84 0 1.39 0 1.61.12.19.11.35.29.46.51.13.28.13.88.13 1.88v.41H3.75v-.41c0-1 0-1.6.13-1.88Zm15.99 10.99c-.1.22-.26.4-.46.51-.21.12-.76.12-1.6.12H5.94c-.84 0-1.4 0-1.61-.12-.19-.11-.35-.29-.45-.51-.13-.28-.13-.88-.13-1.88v-5.07H20v5.08c0 .99 0 1.59-.13 1.87Z"/><path d="M7.59 14.21c-.56 0-1.01.46-1.01 1.02s.45 1.02 1.01 1.02 1.01-.46 1.01-1.02a1.01 1.01 0 0 0-1.01-1.02Z"/></g></svg>