<svg xmlns="http://www.w3.org/2000/svg" width="24" height="24" fill="none"><g fill="#28303F"><path d="M13.37 15.31s-.7.23-1.5.24c-.96 0-1.8-.33-1.8-.33L3 12.94v2.93c0 2.69 2.19 4.88 4.88 4.88h8c2.69 0 4.88-2.19 4.88-4.88v-2.95l-7.39 2.39Z"/><path d="m3 11.1 7.92 2.55c.23.07.56.15.96.15.45 0 .73-.08.96-.15 1.34-.41 5.54-1.79 5.54-1.79l2.37-.78v-1.2A2.88 2.88 0 0 0 17.87 7h-2.13V5.88A2.864 2.864 0 0 0 12.88 3h-2A2.88 2.88 0 0 0 8 5.88V7H5.88A2.88 2.88 0 0 0 3 9.88v1.22Zm9.75.44c0 .48-.39.88-.88.88s-.87-.39-.87-.88v-1.33c0-.48.39-.88.88-.88s.88.39.88.88v1.33h-.01Zm-3-5.66c0-.62.5-1.13 1.13-1.13h2c.62 0 1.13.5 1.13 1.13V7H9.75V5.88Z"/></g></svg>