<svg xmlns="http://www.w3.org/2000/svg" width="24" height="24" fill="none"><g fill="#28303F"><path d="M20.75 9.88A2.88 2.88 0 0 0 17.87 7h-2.13V5.88A2.864 2.864 0 0 0 12.88 3h-2A2.88 2.88 0 0 0 8 5.88V7H5.88A2.88 2.88 0 0 0 3 9.88v6c0 2.69 2.19 4.88 4.88 4.88h8c2.69 0 4.88-2.19 4.88-4.88v-6h-.01Zm-11-4c0-.62.5-1.13 1.13-1.13h2c.62 0 1.13.5 1.13 1.13V7H9.75V5.88Zm-5 4c0-.62.5-1.13 1.13-1.13h12c.62 0 1.13.5 1.13 1.13v.96c0 .49-.31.92-.78 1.07l-5.39 1.74c-.63.2-1.29.2-1.92 0l-5.39-1.74c-.47-.15-.78-.58-.78-1.07v-.96ZM15.88 19h-8c-1.72 0-3.13-1.4-3.13-3.13v-2.4c.08.03.16.07.24.1l5.39 1.74a4.803 4.803 0 0 0 3 0l5.39-1.74c.08-.03.16-.07.24-.1v2.4A3.141 3.141 0 0 1 15.88 19Z"/><path d="M11.88 12.42c.48 0 .88-.39.88-.88v-1.33c0-.48-.39-.88-.88-.88s-.88.4-.88.88v1.33c0 .49.39.88.88.88Z"/></g></svg>