<svg xmlns="http://www.w3.org/2000/svg" width="24" height="24" fill="none"><path fill="#28303F" d="M18.1 3H5.65C4.19 3 3 4.29 3 5.88v12c0 1.58 1.19 2.88 2.65 2.88H18.1c1.46 0 2.65-1.29 2.65-2.88v-12C20.75 4.29 19.56 3 18.1 3ZM9.19 15.88c0 .48-.39.88-.88.88s-.88-.39-.88-.88v-6c.01-.49.41-.88.89-.88.48 0 .88.39.88.88v6h-.01Zm3.56 0c0 .48-.39.88-.88.88s-.87-.4-.87-.88v-4c0-.49.39-.88.88-.88s.88.39.88.88v4h-.01Zm3.56 0c0 .48-.39.88-.88.88s-.88-.39-.88-.88v-8c0-.48.39-.88.88-.88s.88.39.88.88v8Z"/></svg>