<svg xmlns="http://www.w3.org/2000/svg" width="24" height="24" fill="none"><g fill="#28303F"><path d="m15.62 7.94-2.75 4.12c-.1.16-.34.14-.43-.03l-.18-.35c-.68-1.38-2.6-1.5-3.45-.22l-2.75 4.12c-.27.4-.16.95.24 1.21.4.27.95.16 1.21-.24l2.75-4.12c.11-.16.35-.14.44.03l.18.36c.69 1.37 2.6 1.49 3.45.22l2.75-4.12a.87.87 0 0 0-.24-1.21c-.4-.26-.95-.18-1.22.23Z"/><path d="M18.02 3H5.7C4.21 3 3 4.21 3 5.7v12.22c0 1.56 1.27 2.82 2.82 2.82h12.05c1.58 0 2.87-1.29 2.87-2.87V5.72c0-1.5-1.22-2.72-2.72-2.72Zm.97 14.87c0 .62-.5 1.12-1.12 1.12H5.82c-.59 0-1.07-.48-1.07-1.07V5.7c0-.52.42-.95.95-.95h12.33c.54 0 .97.44.97.97v12.15h-.01Z"/></g></svg>