<svg xmlns="http://www.w3.org/2000/svg" width="24" height="24" fill="none"><path fill="#28303F" d="M18.1 20.75H5.65C4.19 20.75 3 19.46 3 17.88v-12C3 4.29 4.19 3 5.65 3H18.1c1.46 0 2.65 1.29 2.65 2.88v12c0 1.58-1.19 2.87-2.65 2.87Zm-12.45-16c-.5 0-.9.5-.9 1.13v12c0 .62.4 1.13.9 1.13H18.1c.5 0 .9-.5.9-1.13v-12c0-.62-.41-1.13-.9-1.13H5.65Zm9.78 12c-.48 0-.88-.39-.88-.88v-8c0-.48.39-.88.88-.88s.88.39.88.88v8c0 .49-.4.88-.88.88Zm-3.55 0c-.49 0-.88-.39-.88-.87v-4c0-.49.39-.88.88-.88s.88.39.88.88v4c-.01.48-.4.87-.88.87Zm-3.56 0c-.48 0-.88-.39-.88-.88v-6a.88.88 0 0 1 1.76.01v6c-.01.48-.4.87-.88.87Z"/></svg>