<svg xmlns="http://www.w3.org/2000/svg" width="24" height="24" fill="none"><g fill="#28303F"><path d="M15 11.1h-2.1V9c0-.5-.4-.9-.9-.9s-.9.4-.9.9v2.1H9c-.5 0-.9.4-.9.9s.4.9.9.9h2.1V15c0 .5.4.9.9.9s.9-.4.9-.9v-2.1H15c.5 0 .9-.4.9-.9s-.4-.9-.9-.9Z"/><path d="M18.4 5.6C16.7 3.9 14.4 3 12 3c-2.4 0-4.7.9-6.4 2.6C3.9 7.3 3 9.6 3 12c0 2.4.9 4.7 2.6 6.4 1.7 1.7 4 2.6 6.4 2.6h6.1c.4 0 .7-.1 1-.2.4-.2.7-.4 1-.6.3-.3.5-.6.7-1 .1-.3.2-.6.2-1V12c0-2.4-.9-4.7-2.6-6.4Zm.9 10.9V18c0 .3 0 .4-.1.5-.1.2-.2.3-.3.4-.1.1-.3.2-.4.3 0 0-.2.1-.5.1h-6c-1.9 0-3.8-.8-5.1-2.1-1.4-1.4-2.1-3.3-2.1-5.2 0-1.9.8-3.8 2.1-5.1 1.3-1.4 3.2-2.1 5.1-2.1 1.9 0 3.8.8 5.1 2.1 1.4 1.4 2.1 3.2 2.1 5.1v4.5h.1Z"/></g></svg>