<svg xmlns="http://www.w3.org/2000/svg" width="24" height="24" fill="none"><g fill="#28303F"><path d="M12.8 4h-1.6c-.4 0-.8.4-.8.9s.4.9.9.9h1.5c4 0 7.2 3.2 7.2 7.2v5.2c0 .7 0 1.1-.1 1.3-.1.3-.4.6-.7.7-.2.1-.6.1-1.3.1h-5.2c-4 0-7.2-3.2-7.2-7.2v-1.6c0-.5-.4-.9-.9-.9s-.8.4-.8.9V13c0 5 4 9 9 9H18c.9 0 1.4 0 1.9-.2.8-.3 1.4-.9 1.7-1.7.2-.5.2-1 .2-1.9V13c0-5-4.1-9-9-9Z"/><path d="M15.9 11h-6c-.5 0-.9.4-.9.9s.4.9.9.9h6c.5 0 .9-.4.9-.9s-.4-.9-.9-.9ZM5 8.9c0 .5.4.9.9.9s.9-.4.9-.9V6.8h2.1c.5 0 .9-.4.9-.9S9.4 5 8.9 5H6.8V2.9c0-.5-.4-.9-.9-.9s-.9.4-.9.9V5H2.9c-.5 0-.9.4-.9.9s.4.9.9.9H5v2.1ZM15.9 15h-3c-.5 0-.9.4-.9.9s.4.9.9.9h3c.5 0 .9-.4.9-.9s-.4-.9-.9-.9Z"/></g></svg>