<svg xmlns="http://www.w3.org/2000/svg" width="24" height="24" fill="none"><g fill="#28303F"><path d="M5 8.9c0 .5.4.9.9.9s.9-.4.9-.9V6.8h2.1c.5 0 .9-.4.9-.9S9.4 5 8.9 5H6.8V2.9c0-.5-.4-.9-.9-.9s-.9.4-.9.9V5H2.9c-.5 0-.9.4-.9.9s.4.9.9.9H5v2.1Z"/><path d="M19.1 6.6c-1.7-1.7-4-2.6-6.4-2.6-.8 0-1.6.1-2.4.3.5.3.8.9.8 1.5 0 1-.8 1.9-1.9 1.9H7.7v1.5c0 1-.8 1.9-1.9 1.9-.7 0-1.3-.4-1.6-1-.3.9-.4 1.9-.4 2.9 0 2.4.9 4.7 2.6 6.4 1.7 1.7 4 2.6 6.4 2.6h6.1c.4 0 .7-.1 1-.2.4-.2.7-.4 1-.6.3-.3.5-.6.7-1 .1-.3.2-.6.2-1V13c0-2.4-1-4.7-2.7-6.4Zm-3.2 10.2h-3c-.5 0-.9-.4-.9-.9s.4-.9.9-.9h3c.5 0 .9.4.9.9s-.4.9-.9.9Zm0-4h-6c-.5 0-.9-.4-.9-.9s.4-.9.9-.9h6c.5 0 .9.4.9.9s-.4.9-.9.9Z"/></g></svg>