<svg xmlns="http://www.w3.org/2000/svg" width="24" height="24" fill="none"><g fill="#28303F"><path d="M16.51 3H7.44C4.99 3 3 4.99 3 7.44v9.07c0 2.45 1.99 4.44 4.44 4.44h9.07c2.45 0 4.44-1.99 4.44-4.44V7.44c0-2.45-1.99-4.44-4.44-4.44Zm2.69 13.51c0 1.48-1.21 2.69-2.69 2.69H7.44c-1.48 0-2.69-1.21-2.69-2.69V7.44c0-1.48 1.21-2.69 2.69-2.69h9.07c1.48 0 2.69 1.21 2.69 2.69v9.07Z"/><path d="m14.2 9.45-3.17 3.17-1.28-1.28a.87.87 0 0 0-1.23 0c-.34.34-.34.9 0 1.24l1.89 1.9c.17.17.39.26.62.26.23 0 .45-.08.62-.26l3.79-3.79c.34-.34.34-.9 0-1.24a.881.881 0 0 0-1.24 0Z"/></g></svg>