<svg xmlns="http://www.w3.org/2000/svg" width="24" height="24" fill="none"><g fill="#28303F" fill-rule="evenodd" clip-rule="evenodd"><path d="M15.4 6.31a.886.886 0 0 0-1.23.17L6.49 16.65l-.18.02-2.88-2.34a.872.872 0 0 0-1.23.12c-.3.37-.25.93.13 1.23l2.89 2.35c.34.28.75.42 1.18.42.08 0 .15 0 .23-.01.51-.06.96-.32 1.27-.73l7.68-10.17c.28-.39.21-.94-.18-1.23ZM22.55 6.19a.882.882 0 0 0-1.23.13l-7.98 9.91c-.04.05-.12.06-.18.02l-1.51-1.23-1.1 1.36 1.51 1.23c.81.66 1.99.53 2.64-.28l7.98-9.91c.31-.37.25-.92-.13-1.23Z"/></g></svg>