<svg xmlns="http://www.w3.org/2000/svg" width="24" height="24" fill="none"><g fill="#28303F"><path d="M16.5 3h-9C5.02 3 3 5.02 3 7.5v9C3 18.98 5.02 21 7.5 21h9c2.48 0 4.5-2.02 4.5-4.5v-9C21 5.02 18.98 3 16.5 3Zm2.75 13.5c0 1.52-1.23 2.75-2.75 2.75h-9c-1.52 0-2.75-1.23-2.75-2.75v-9c0-1.52 1.23-2.75 2.75-2.75h9c1.52 0 2.75 1.23 2.75 2.75v9Z"/><path d="m13.38 12.14 1.16-1.16c.34-.34.34-.9 0-1.24a.881.881 0 0 0-1.24 0l-1.16 1.17-1.15-1.16a.881.881 0 0 0-1.24 0c-.34.34-.34.9 0 1.24l1.16 1.16-1.16 1.15a.881.881 0 0 0 .62 1.5c.23 0 .45-.08.62-.26l1.16-1.16 1.16 1.16c.17.17.4.26.62.26.22 0 .45-.08.62-.26.34-.34.34-.9 0-1.24l-1.17-1.16Z"/></g></svg>