<svg xmlns="http://www.w3.org/2000/svg" width="24" height="24" fill="none"><g fill="#28303F"><path d="m18.7 4.3-4.8-2c-1.1-.4-2.3-.4-3.4 0l-4.7 2C4.7 4.7 4 5.8 4 7v5.4c0 1.1.2 2.2.7 3.2.6 1.3 1.5 2.5 2.8 3.3l3 2.1c.5.4 1.1.5 1.7.5.6 0 1.2-.2 1.7-.5l3-2.1c1.3-.9 2.2-2 2.8-3.4.4-1 .6-2 .6-3V7c.2-1.2-.6-2.3-1.6-2.7Zm0 8.1c0 .8-.2 1.6-.5 2.4-.5 1.1-1.2 2-2.2 2.7l-3 2.1c-.4.3-1 .3-1.5 0l-3.1-2.1c-.9-.6-1.7-1.5-2.2-2.6-.3-.8-.5-1.6-.5-2.4V7.1c0-.5.3-.9.7-1.1l4.8-2c.3-.1.7-.2 1-.2.3 0 .7.1 1 .2L18 5.9c.4.2.7.6.7 1.1v5.4Z"/><path d="M15.1 8.6c-.3-.3-.9-.3-1.2 0l-1.5 1.5-1.5-1.5c-.4-.3-.9-.3-1.3 0s-.3.9 0 1.2l1.5 1.5-1.5 1.5c-.3.3-.3.9 0 1.2.2.2.4.3.6.3.2 0 .4-.1.6-.3l1.5-1.5 1.5 1.5c.2.2.4.3.6.3.2 0 .4-.1.6-.3.3-.3.3-.9 0-1.2l-1.4-1.4 1.5-1.5c.4-.4.4-.9 0-1.3Z"/></g></svg>