<svg xmlns="http://www.w3.org/2000/svg" width="24" height="24" fill="none"><path fill="#28303F" d="m18.7 4.3-4.8-2c-1.1-.4-2.3-.4-3.4 0l-4.7 2C4.7 4.7 4 5.8 4 7v5.4c0 1.1.2 2.2.7 3.2.6 1.3 1.5 2.5 2.8 3.3l3 2.1c.5.4 1.1.5 1.7.5.6 0 1.2-.2 1.7-.5l3-2.1c1.3-.9 2.2-2 2.8-3.4.4-1 .6-2 .6-3V7c.2-1.2-.6-2.3-1.6-2.7Zm-3.6 8.6c.3.3.3.9 0 1.2-.2.2-.4.3-.6.3-.2 0-.4-.1-.6-.3l-1.5-1.5-1.5 1.5c-.2.2-.4.3-.6.3-.2 0-.4-.1-.6-.3-.3-.3-.3-.9 0-1.2l1.5-1.5-1.6-1.5c-.3-.4-.3-.9 0-1.3s.9-.3 1.2 0l1.5 1.5 1.5-1.5c.3-.3.9-.3 1.2 0 .3.3.3.9 0 1.2l-1.4 1.6 1.5 1.5Z"/></svg>