<svg xmlns="http://www.w3.org/2000/svg" width="24" height="24" fill="none"><path fill="#28303F" d="M16.5 3h-9C5.02 3 3 5.02 3 7.5v9C3 18.98 5.02 21 7.5 21h9c2.48 0 4.5-2.02 4.5-4.5v-9C21 5.02 18.98 3 16.5 3Zm-1.96 11.54c-.17.17-.4.26-.62.26-.22 0-.45-.08-.62-.26l-1.16-1.16-1.16 1.16a.87.87 0 0 1-.62.26c-.23 0-.45-.08-.62-.26a.881.881 0 0 1 0-1.24l1.16-1.16-1.15-1.15a.881.881 0 0 1 0-1.24c.34-.34.9-.34 1.24 0l1.16 1.16 1.16-1.16c.34-.34.9-.34 1.24 0 .34.34.34.9 0 1.24l-1.16 1.16 1.16 1.16c.33.33.33.89-.01 1.23Z"/></svg>