<svg xmlns="http://www.w3.org/2000/svg" width="24" height="24" fill="none"><g fill="#28303F"><path d="M11.945 11.658c4.974 0 8.581-1.823 9.019-2.497 0-.027.018-.046.027-.073v-1.95c-2.032 1.212-5.72 2.014-9.046 2.014-3.27 0-6.895-.775-8.945-1.96v2.06c.665.73 4.172 2.406 8.945 2.406Z"/><path d="M11.945 15.76c5.402 0 8.982-2.115 9.019-2.853 0-.046.018-.082.027-.128v-1.65c-1.986 1.194-5.584 2.124-9.046 2.124-3.407 0-6.94-.902-8.945-2.069v1.905c.501.857 3.944 2.67 8.945 2.67Z"/><path d="M11.945 17.354c-3.561 0-6.996-.92-8.945-2.205v1.631C3 19.186 6.871 21 12 21c5.128 0 9-1.814 9-4.22v-1.695c-1.94 1.313-5.43 2.27-9.055 2.27ZM11.945 7.557c4.783 0 8.044-1.458 8.846-2.215C19.76 3.52 14.97 3 12 3c-3.006 0-7.88.529-8.818 2.406.902.775 4.127 2.151 8.763 2.151Z"/></g></svg>