<svg xmlns="http://www.w3.org/2000/svg" width="24" height="24" fill="none"><path fill="#28303F" d="M20.99 6.079C20.99 3.647 15.335 3 12 3c-3.334 0-9 .647-9 3.079 0 .091.027.173.036.264A.595.595 0 0 0 3 6.534v10.248C3 19.187 6.871 21 12 21c5.128 0 9-1.813 9-4.218V6.534c0-.072-.018-.127-.036-.19 0-.092.027-.174.027-.265Zm-1.593 7.743c0 .574-2.514 1.931-7.397 1.931-4.883 0-7.406-1.357-7.406-1.94v-1.886c1.868.893 5.01 1.321 7.406 1.321s5.53-.428 7.397-1.32v1.894Zm0-3.753c-.401.473-3.07 1.585-7.397 1.585s-7.005-1.111-7.406-1.585V7.946C6.516 8.857 9.768 9.15 12 9.15c2.232 0 5.475-.292 7.397-1.203v2.123ZM12 4.594c4.436 0 7.178.993 7.406 1.44-.228.528-2.97 1.52-7.406 1.52-4.445 0-7.187-.992-7.415-1.439.228-.528 2.97-1.52 7.415-1.52Zm0 14.803c-4.518 0-7.406-1.549-7.406-2.624v-.838c1.74.957 4.637 1.412 7.406 1.412 2.77 0 5.666-.455 7.406-1.412v.847c-.01 1.066-2.897 2.615-7.406 2.615Z"/></svg>