<svg xmlns="http://www.w3.org/2000/svg" width="24" height="24" fill="none"><path fill="#28303F" d="M21.75 5.38c0-2.67-6.21-3.38-9.87-3.38C8.22 2 2 2.71 2 5.38c0 .1.03.19.04.29-.02.06-.04.13-.04.21v11.25c0 2.64 4.25 4.63 9.88 4.63 5.63 0 9.88-1.99 9.88-4.63V5.88c0-.08-.02-.14-.04-.21 0-.1.03-.19.03-.29ZM20 13.88c0 .63-2.76 2.12-8.12 2.12-5.36 0-8.13-1.49-8.13-2.13V11.8c2.05.98 5.5 1.45 8.13 1.45 2.63 0 6.07-.47 8.12-1.45v2.08Zm0-4.12c-.44.52-3.37 1.74-8.12 1.74-4.75 0-7.69-1.22-8.13-1.74V7.43c2.11 1 5.68 1.32 8.13 1.32 2.45 0 6.01-.32 8.12-1.32v2.33Zm-8.12-6.01c4.87 0 7.88 1.09 8.13 1.58-.25.58-3.26 1.67-8.13 1.67C7 7 3.99 5.91 3.74 5.42c.25-.58 3.26-1.67 8.14-1.67Zm0 16.25c-4.96 0-8.13-1.7-8.13-2.88v-.92c1.91 1.05 5.09 1.55 8.13 1.55 3.04 0 6.22-.5 8.13-1.55v.93C20 18.3 16.83 20 11.88 20Z"/></svg>