<svg xmlns="http://www.w3.org/2000/svg" width="24" height="24" fill="none"><g fill="#28303F"><path d="M11.82 11.5c5.46 0 9.42-2 9.9-2.74 0-.03.02-.05.03-.08V6.54c-2.23 1.33-6.28 2.21-9.93 2.21C8.23 8.75 4.25 7.9 2 6.6v2.26c.73.8 4.58 2.64 9.82 2.64Z"/><path d="M11.82 16c5.93 0 9.86-2.32 9.9-3.13 0-.05.02-.09.03-.14v-1.81c-2.18 1.31-6.13 2.33-9.93 2.33-3.74 0-7.62-.99-9.82-2.27v2.09c.55.94 4.33 2.93 9.82 2.93Z"/><path d="M11.82 17.75c-3.91 0-7.68-1.01-9.82-2.42v1.79c0 2.64 4.25 4.63 9.88 4.63 5.63 0 9.88-1.99 9.88-4.63v-1.86c-2.13 1.44-5.96 2.49-9.94 2.49ZM11.82 7c5.25 0 8.83-1.6 9.71-2.43C20.4 2.57 15.14 2 11.88 2c-3.3 0-8.65.58-9.68 2.64C3.19 5.49 6.73 7 11.82 7Z"/></g></svg>