<svg xmlns="http://www.w3.org/2000/svg" width="24" height="24" fill="none"><g fill="#28303F"><path d="M18.4 6.13a.887.887 0 0 0-1.23.17c-.29.39-.21.93.17 1.23.57.43.91 1.11.91 1.82v7.7c0 1.73-1.4 3.12-3.12 3.12h-3.84c-.64 0-1.25-.25-1.71-.7a.881.881 0 0 0-1.24.01c-.34.35-.33.9.01 1.24.78.77 1.84 1.2 2.93 1.2h3.84a4.87 4.87 0 0 0 4.87-4.87v-7.7c.01-1.26-.58-2.46-1.59-3.22Z"/><path d="M16 14V6c0-2.21-1.79-4-4-4H8C5.79 2 4 3.79 4 6v8c0 2.21 1.79 4 4 4h4c2.21 0 4-1.79 4-4ZM5.75 14V6c0-1.24 1.01-2.25 2.25-2.25h4c1.24 0 2.25 1.01 2.25 2.25v8c0 1.24-1.01 2.25-2.25 2.25H8c-1.24 0-2.25-1.01-2.25-2.25Z"/></g></svg>