<svg xmlns="http://www.w3.org/2000/svg" width="24" height="24" fill="none"><g fill="#28303F"><path d="m20.8 11 .6-.2V8.7c0-2.6-2.1-4.7-4.7-4.7h-10C4.1 4 2 6.1 2 8.7v2.2l.6.1c.5.2.8.6.8 1.2s-.3 1-.8 1.2l-.6.2v2c0 2.6 2.1 4.7 4.7 4.7h10c2.6 0 4.7-2.1 4.7-4.7v-2l-.6-.2c-.5-.2-.8-.6-.8-1.2s.3-1 .8-1.2Zm-1.2-1.3c-.9.5-1.4 1.5-1.4 2.6s.6 2 1.4 2.6v.9c0 1.6-1.3 2.9-2.9 2.9h-1v-1.1c0-.5-.4-.9-.9-.9s-.8.2-.8.7v1.1H6.7c-1.6 0-2.9-1.3-2.9-2.9v-.9c.9-.5 1.4-1.5 1.4-2.6s-.6-2-1.4-2.6v-1c0-1.6 1.3-2.9 2.9-2.9H14v1.7c0 .5.4.9.9.9s.9-.4.9-.9V5.8h1c1.6 0 2.9 1.3 2.9 2.9v1h-.1Z"/><path d="M14.9 9.5c-.5 0-.9.4-.9.9v4c0 .5.4.9.9.9s.9-.4.9-.9v-4c-.1-.5-.4-.9-.9-.9Z"/></g></svg>