<svg xmlns="http://www.w3.org/2000/svg" width="24" height="24" fill="none"><g fill="#28303F"><path d="M20.64 16.09 14.3 5.31c-.48-.82-1.34-1.3-2.3-1.3-.96 0-1.82.48-2.3 1.3L3.36 16.09c-.47.8-.48 1.77-.01 2.59.47.83 1.34 1.33 2.31 1.33h12.68c.97 0 1.84-.5 2.31-1.33.47-.82.46-1.79-.01-2.59Zm-1.46 1.74c-.09.15-.33.48-.84.48H5.66c-.51 0-.75-.33-.84-.48-.07-.13-.23-.49.01-.88l6.33-10.78A.97.97 0 0 1 12 5.7c.35 0 .67.18.84.47l6.33 10.78c.24.39.08.75.01.88Z"/><path d="M13 16.05c0 .3-.1.53-.29.7-.2.17-.44.25-.72.25-.28 0-.51-.08-.71-.25-.19-.17-.28-.4-.28-.7 0-.3.09-.52.28-.69.2-.18.43-.27.71-.27.28 0 .52.09.72.27.19.17.29.4.29.69ZM12.92 9.56l-.29 3.86c-.02.33-.3.58-.63.58s-.6-.25-.63-.58l-.29-3.86c-.04-.53.38-.99.92-.99s.97.46.92.99Z"/></g></svg>