<svg xmlns="http://www.w3.org/2000/svg" width="24" height="24" fill="none"><path fill="#28303F" fill-rule="evenodd" d="m20.54 15.203-5.17-10.06c-.55-1.07-1.5-1.82-2.61-2.06-.5-.11-1.01-.11-1.51 0-1.11.24-2.07.99-2.62 2.06l-5.17 10.06c-.3.58-.46 1.23-.46 1.89 0 2.16 1.62 3.91 3.62 3.91h10.76c2 0 3.62-1.75 3.62-3.91 0-.66-.16-1.31-.46-1.89Zm-7.66 2.1c0 .48-.39.88-.88.88s-.88-.39-.88-.88v-.49c0-.48.39-.88.88-.88s.88.39.88.88v.49Zm0-3.41c0 .48-.39.88-.88.88s-.88-.39-.88-.88v-3.89c0-.48.39-.88.88-.88s.88.4.88.88v3.89Z" clip-rule="evenodd"/></svg>