<svg xmlns="http://www.w3.org/2000/svg" width="24" height="24" fill="none"><g fill="#28303F"><path d="M20.54 15.2 15.37 5.14c-.55-1.07-1.5-1.82-2.61-2.06-.5-.11-1.01-.11-1.51 0-1.11.24-2.07.99-2.62 2.06L3.46 15.2c-.3.58-.46 1.23-.46 1.89C3 19.25 4.62 21 6.62 21h10.76c2 0 3.62-1.75 3.62-3.91 0-.66-.16-1.31-.46-1.89Zm-3.16 4.05H6.62c-.91 0-1.87-.84-1.87-2.16 0-.39.09-.77.26-1.1l5.18-10.05c.32-.63.86-1.03 1.42-1.15.26-.05.52-.05.77 0 .56.12 1.1.52 1.42 1.15L18.99 16c.17.33.26.71.26 1.1 0 1.31-.96 2.15-1.87 2.15Z"/><path d="M12 15.94c-.48 0-.88.39-.88.88v.49c0 .48.39.88.88.88s.88-.39.88-.88v-.49c0-.49-.4-.88-.88-.88ZM12 9.13a.87.87 0 0 0-.87.87v3.89c0 .48.39.88.88.88s.88-.39.88-.88V10a.895.895 0 0 0-.89-.87Z"/></g></svg>