<svg xmlns="http://www.w3.org/2000/svg" width="24" height="24" fill="none"><g fill="#28303F"><path d="M16.31 4.17A2.985 2.985 0 0 0 13.45 2H10.3c-1.36 0-2.5.92-2.86 2.17C5.51 4.39 4 6.01 4 8v11c0 2.14 1.73 3.88 3.88 3.88h8c2.14 0 3.88-1.73 3.88-3.88V8a3.873 3.873 0 0 0-3.45-3.83Zm-6.01-.42h3.14a1.25 1.25 0 0 1 0 2.5H10.3a1.25 1.25 0 0 1 0-2.5Zm5.58 17.38h-8c-1.17 0-2.13-.95-2.13-2.13V8c0-1.03.74-1.89 1.71-2.08C7.85 7.12 8.97 8 10.3 8h3.14c1.33 0 2.45-.88 2.84-2.08C17.26 6.11 18 6.97 18 8v11c0 1.17-.95 2.13-2.12 2.13Z"/><path d="M15.88 11.13h-8c-.49 0-.88.39-.88.87s.39.88.88.88h8c.48 0 .88-.39.88-.88s-.4-.87-.88-.87ZM12.45 14.13H7.88c-.49 0-.88.39-.88.87s.39.88.88.88h4.57c.48 0 .88-.39.88-.88s-.4-.87-.88-.87Z"/></g></svg>