<svg xmlns="http://www.w3.org/2000/svg" width="24" height="24" fill="none"><path fill="#28303F" d="M16.31 4.17A2.985 2.985 0 0 0 13.45 2H10.3c-1.36 0-2.5.92-2.86 2.17C5.51 4.39 4 6.01 4 8v11c0 2.14 1.73 3.88 3.88 3.88h8c2.14 0 3.88-1.73 3.88-3.88V8a3.873 3.873 0 0 0-3.45-3.83Zm-6.01-.42h3.14a1.25 1.25 0 0 1 0 2.5H10.3a1.25 1.25 0 0 1 0-2.5Zm2.15 12.12H7.88c-.49 0-.88-.39-.88-.88s.39-.88.88-.88h4.57c.48 0 .88.39.88.88s-.4.88-.88.88Zm3.43-3h-8c-.49 0-.88-.39-.88-.88s.39-.88.88-.88h8c.48 0 .88.39.88.88s-.4.88-.88.88Z"/></svg>