<svg xmlns="http://www.w3.org/2000/svg" width="32" height="32" fill="none"><path fill="#28303F" fill-rule="evenodd" d="M16.72 4c3.6 0 5.573 0 6.973 1.667C25 7.24 25 9.4 24.973 13.693v4.267c0 4.293 0 6.453-1.306 8.026-1.387 1.667-3.36 1.667-6.96 1.667h-1.773c-3.587 0-5.574 0-6.96-1.667-1.307-1.573-1.307-3.733-1.307-8.026v-4.267c0-4.293 0-6.453 1.32-8.026C9.372 4 11.346 4 14.946 4h1.773Zm-.706 13.934c-.36 0-.68.08-.974.266-.28.174-.506.44-.68.774-.16.333-.24.76-.24 1.239 0 .48.08.88.24 1.227.174.333.4.6.68.773.293.187.614.267.974.267s.68-.08.972-.267c.28-.173.508-.44.681-.773.16-.333.253-.734.253-1.227 0-.493-.093-.906-.253-1.24-.173-.333-.4-.6-.68-.773a1.754 1.754 0 0 0-.973-.266Zm4.359 0c-.36 0-.68.08-.973.266-.28.174-.507.44-.68.774-.16.333-.24.76-.24 1.239 0 .48.08.88.24 1.227.173.334.387.6.68.773.28.186.6.267.973.267.253 0 .493-.04.693-.12.214-.093.387-.213.534-.36.146-.147.267-.307.36-.493.093-.2.147-.387.174-.6h-.867c-.027.12-.067.226-.12.32a.52.52 0 0 1-.187.226.604.604 0 0 1-.253.147.898.898 0 0 1-.32.053.944.944 0 0 1-.547-.16 1.06 1.06 0 0 1-.36-.493c-.093-.213-.133-.467-.133-.787s.04-.573.133-.786a.94.94 0 0 1 .36-.493.865.865 0 0 1 .547-.174c.12 0 .227.013.32.053a.89.89 0 0 1 .267.16c.08.067.146.147.186.24.053.093.08.2.107.334h.867c-.04-.267-.094-.494-.2-.694-.094-.2-.228-.36-.374-.493a1.464 1.464 0 0 0-.534-.32 1.819 1.819 0 0 0-.653-.106Zm-10.24 4.493h1.427c.413 0 .774-.093 1.067-.267.293-.186.52-.44.68-.773.16-.334.24-.734.24-1.187 0-.453-.08-.853-.24-1.186a1.722 1.722 0 0 0-.68-.761 2.027 2.027 0 0 0-1.054-.267h-1.44v4.44Zm5.88-3.667c.214 0 .387.053.547.16.146.12.267.28.36.493.08.213.12.493.12.8 0 .307-.04.574-.12.787a1.283 1.283 0 0 1-.36.493.942.942 0 0 1-.546.16.974.974 0 0 1-.547-.16 1.283 1.283 0 0 1-.36-.493 2.223 2.223 0 0 1-.12-.787c0-.32.04-.587.12-.8.093-.213.213-.373.36-.493a.944.944 0 0 1 .547-.16Zm-4.48.027c.253 0 .467.053.64.147a.901.901 0 0 1 .387.466c.093.214.133.467.133.8s-.04.6-.133.814a.87.87 0 0 1-.387.453c-.173.106-.387.146-.64.146h-.547v-2.826h.547Zm.094-4.12c-.533 0-.96.306-.96.666 0 .36.427.667.96.667h8.733c.534 0 .973-.294.973-.667 0-.373-.44-.666-.973-.666h-8.733Zm0-2.667c-.533 0-.96.307-.96.667 0 .36.427.666.96.666h8.733c.533 0 .973-.293.973-.666 0-.373-.44-.667-.973-.667h-8.733Zm0-2.667c-.533 0-.96.307-.96.667 0 .36.427.667.96.667h8.733c.534 0 .973-.294.973-.667 0-.373-.44-.667-.973-.667h-8.733Z" clip-rule="evenodd"/></svg>