<svg xmlns="http://www.w3.org/2000/svg" width="24" height="24" fill="none"><path fill="#28303F" d="M13.43 3c.72 0 1.39.33 1.84.91l2.95 3.78c.34.44.53 1 .53 1.56v7.42c0 2.25-1.74 4.08-3.87 4.08h-6C6.74 20.75 5 18.92 5 16.67v-9.6C5 4.83 6.74 3 8.88 3h4.55ZM8.88 4.75c-1.17 0-2.13 1.04-2.13 2.33v9.6c0 1.28.95 2.32 2.13 2.32h6c1.17 0 2.13-1.04 2.13-2.33V9.55h-1.38c-1.31 0-2.38-1.11-2.38-2.47V4.75H8.88Zm3.04 8.89c.24 0 .46.06.65.18s.34.29.45.51c.11.23.17.51.17.83 0 .32-.06.59-.17.82-.11.22-.26.4-.45.52-.19.11-.41.17-.65.17-.24 0-.45-.06-.64-.18-.19-.11-.35-.29-.46-.51-.11-.23-.16-.49-.16-.82 0-.33.05-.6.16-.83.11-.22.27-.39.46-.51s.4-.18.64-.18Zm2.91 0c.15 0 .3.02.43.07.14.05.26.12.36.21.1.09.19.2.25.34.07.13.11.28.13.45h-.58a.649.649 0 0 0-.06-.21.768.768 0 0 0-.13-.17.527.527 0 0 0-.18-.1.464.464 0 0 0-.21-.04c-.14 0-.26.04-.37.11a.83.83 0 0 0-.24.33c-.06.15-.08.32-.08.53 0 .21.02.38.08.53.06.14.14.25.24.32.11.07.23.11.36.11.08 0 .15-.01.22-.03.06-.02.12-.06.17-.1.05-.04.1-.09.13-.16a.68.68 0 0 0 .07-.2H16c-.02.13-.05.26-.11.39-.06.12-.14.24-.24.33-.1.1-.22.18-.36.24-.14.06-.29.08-.46.08a1.185 1.185 0 0 1-1.1-.69c-.11-.23-.16-.49-.16-.82 0-.33.05-.6.16-.83.11-.22.26-.39.45-.51s.41-.18.65-.18Zm-5.86.04c.27 0 .5.06.7.18.19.11.35.28.45.5.11.22.16.48.16.79 0 .31-.05.58-.16.8-.1.22-.26.39-.45.51-.2.11-.44.17-.71.17H8v-2.95h.97Zm2.95.51a.64.64 0 0 0-.36.11c-.1.08-.18.18-.24.33-.06.14-.08.32-.08.53 0 .2.02.38.08.52.06.15.14.26.24.33a.64.64 0 0 0 .72 0c.11-.07.19-.18.24-.33.06-.14.09-.31.09-.52 0-.21-.03-.39-.09-.53a.616.616 0 0 0-.6-.44Zm-3.35.02v1.89h.36c.17 0 .32-.03.43-.1.12-.07.2-.17.26-.31.06-.14.09-.32.09-.54 0-.22-.03-.39-.09-.53a.618.618 0 0 0-.26-.31.898.898 0 0 0-.42-.1h-.37ZM15 7.08c0 .4.28.72.63.72h.46L15 6.42v.66Z"/></svg>