<svg xmlns="http://www.w3.org/2000/svg" width="24" height="24" fill="none"><path fill="#28303F" d="M13.26 7.07c0 1.37 1.07 2.48 2.38 2.48h3.12v7.13c0 2.25-1.74 4.08-3.88 4.08h-6C6.74 20.76 5 18.93 5 16.68v-9.6C5 4.83 6.74 3 8.88 3h4.38v4.07Zm-1.34 6.38c-.28 0-.52.07-.73.2-.22.14-.39.33-.51.58-.13.26-.19.57-.19.93 0 .36.06.67.19.92.12.26.29.45.51.59.21.13.45.2.73.2.26 0 .5-.07.72-.2.22-.14.39-.33.51-.59.13-.25.19-.56.19-.92s-.06-.67-.19-.93c-.12-.25-.29-.44-.51-.58-.22-.13-.46-.2-.72-.2Zm3.26 0c-.27 0-.51.07-.72.2-.22.14-.39.33-.51.58-.13.26-.19.57-.19.93 0 .36.06.67.19.92.12.26.29.45.5.59a1.403 1.403 0 0 0 1.25.1c.16-.06.29-.15.4-.26.12-.11.21-.24.27-.38.07-.14.11-.29.13-.44h-.65a.89.89 0 0 1-.08.23c-.04.07-.09.13-.14.18-.06.05-.13.08-.2.11-.07.02-.15.04-.24.04a.74.74 0 0 1-.41-.13c-.11-.08-.2-.2-.27-.36-.06-.16-.1-.37-.1-.6 0-.23.04-.43.1-.59.07-.16.16-.28.27-.37a.74.74 0 0 1 .41-.13c.09 0 .17.02.25.04.07.03.14.07.2.12.05.05.1.11.14.19.03.07.06.15.07.24h.65c-.02-.19-.07-.36-.14-.51a1.241 1.241 0 0 0-.69-.62c-.15-.05-.31-.08-.49-.08ZM7.5 16.82h1.08c.31 0 .57-.07.8-.2.22-.13.39-.32.51-.57.12-.25.18-.54.18-.89s-.06-.65-.18-.89a1.29 1.29 0 0 0-.51-.57c-.22-.14-.49-.2-.79-.2H7.5v3.32Zm4.42-2.75a.719.719 0 0 1 .67.49c.07.17.1.37.1.6 0 .23-.03.43-.1.59-.06.16-.15.29-.27.37a.691.691 0 0 1-.81 0 .748.748 0 0 1-.27-.37c-.07-.16-.1-.35-.1-.59s.03-.43.1-.6a.72.72 0 0 1 .68-.49Zm-3.37.03c.19 0 .35.04.48.11s.23.19.3.34c.06.16.09.37.09.61s-.03.45-.09.6c-.07.16-.17.27-.3.35-.13.07-.29.11-.48.11h-.41V14.1h.41Zm6.47-10.45c.08.08.17.16.25.26l2.95 3.78a1.4 1.4 0 0 1 .07.11h-2.65c-.35 0-.63-.33-.63-.73h.01V3.65Z"/></svg>