<svg xmlns="http://www.w3.org/2000/svg" width="32" height="32" fill="none"><path fill="#28303F" fill-rule="evenodd" d="M16.72 4c3.586 0 5.56.013 6.96 1.68C24.986 7.24 25 9.4 25 13.693v4.267c0 4.293-.014 6.467-1.32 8.04-1.4 1.666-3.374 1.68-6.96 1.68h-1.786c-3.587 0-5.561-.013-6.948-1.68-1.32-1.573-1.319-3.733-1.319-8.04v-4.267c0-4.293 0-6.453 1.307-8.013C9.374 4.013 11.347 4 14.934 4h1.786Zm-1.786 2.347c-3.187 0-4.494.026-5.16.826C9 8.093 9 10.08 9 13.693v4.267c0 3.613 0 5.627.773 6.547.667.8 1.988.826 5.16.826h1.787c3.186 0 4.493-.026 5.16-.826.773-.934.787-2.92.787-6.547v-4.267c0-3.613-.014-5.6-.787-6.52-.667-.8-1.974-.826-5.16-.826h-1.786Zm.96 11.84c.32 0 .6.08.853.24.267.16.467.387.613.693.147.293.227.666.227 1.093 0 .427-.08.8-.227 1.094a1.563 1.563 0 0 1-.613.693c-.253.16-.534.24-.853.24-.32 0-.614-.08-.868-.24a1.618 1.618 0 0 1-.6-.693 2.498 2.498 0 0 1-.226-1.094c0-.427.08-.8.227-1.093.146-.306.346-.533.6-.693.253-.16.547-.24.867-.24Zm3.866 0c.213 0 .4.04.587.093.173.067.333.16.48.28.133.133.24.28.333.454.08.173.146.386.173.613h-.773a.953.953 0 0 0-.093-.294.53.53 0 0 0-.16-.213.558.558 0 0 0-.24-.146c-.094-.027-.187-.054-.294-.054a.746.746 0 0 0-.48.16.796.796 0 0 0-.32.44c-.08.186-.12.413-.12.693 0 .28.04.52.12.707a.996.996 0 0 0 .32.44.929.929 0 0 0 .48.147c.107 0 .2-.027.28-.054a.676.676 0 0 0 .24-.12c.067-.067.12-.133.174-.213.04-.08.066-.174.093-.28h.773c-.027.186-.08.36-.16.52-.08.174-.186.32-.32.454a1.24 1.24 0 0 1-.466.306c-.187.08-.4.12-.627.12-.32 0-.613-.08-.866-.24-.254-.16-.44-.387-.587-.693a2.5 2.5 0 0 1-.227-1.094c0-.427.08-.8.227-1.093.146-.306.346-.533.6-.693.253-.16.533-.24.853-.24Zm-7.814.053c.36 0 .68.08.934.24a1.6 1.6 0 0 1 .613.68c.133.293.214.653.214 1.053 0 .4-.08.76-.214 1.054a1.6 1.6 0 0 1-.613.68c-.267.16-.573.24-.946.24h-1.267V18.24h1.28Zm3.948.68a.746.746 0 0 0-.48.16.811.811 0 0 0-.32.427c-.08.2-.12.426-.12.706 0 .28.04.507.12.707a.811.811 0 0 0 .32.427c.132.106.293.16.48.16a.744.744 0 0 0 .479-.16.977.977 0 0 0 .32-.427c.08-.2.12-.427.12-.707 0-.28-.04-.506-.12-.706a.977.977 0 0 0-.32-.427.744.744 0 0 0-.48-.16Zm-4.467 2.547h.48c.226 0 .413-.04.573-.134a.858.858 0 0 0 .347-.4c.08-.186.12-.427.12-.72s-.04-.533-.12-.72a.797.797 0 0 0-.347-.4 1.11 1.11 0 0 0-.574-.133h-.48v2.507Zm8.933-6.8c.533 0 .96.293.973.666 0 .373-.44.667-.973.667h-8.733c-.533 0-.96-.307-.96-.667 0-.36.427-.666.96-.666h8.733Zm0-2.667c.534 0 .96.294.973.667 0 .373-.44.666-.973.666h-8.733c-.533 0-.96-.306-.96-.666 0-.36.427-.667.96-.667h8.733Zm0-2.667c.534 0 .96.294.973.667 0 .373-.44.667-.973.667h-8.733c-.533 0-.96-.307-.96-.667 0-.36.427-.667.96-.667h8.733Z" clip-rule="evenodd"/></svg>