<svg xmlns="http://www.w3.org/2000/svg" width="24" height="24" fill="none"><path fill="#28303F" d="M12.54 20.75h-1.33c-2.7 0-4.18 0-5.22-1.25C5 18.32 5 16.7 5 13.47v-3.2c0-3.22 0-4.84.98-6.02C7.03 3 8.51 3 11.21 3h1.33c2.7 0 4.18 0 5.23 1.25.98 1.18.98 2.8.98 6.02v3.2c0 3.22 0 4.84-.98 6.02-1.05 1.26-2.53 1.26-5.23 1.26Zm-1.33-16c-2.39 0-3.38.02-3.88.62-.58.69-.58 2.19-.58 4.9v3.2c0 2.71 0 4.21.58 4.9.5.61 1.49.63 3.88.63h1.33c2.39 0 3.38-.02 3.88-.62.58-.7.58-2.19.58-4.91v-3.2c0-2.71 0-4.21-.58-4.9-.5-.6-1.49-.62-3.88-.62h-1.33Zm1.33 11.2H9.21c-.48 0-.88-.39-.88-.88s.39-.88.88-.88h3.33c.48 0 .87.39.87.88s-.39.88-.87.88Zm2-3.2H9.21c-.48 0-.88-.39-.88-.88s.4-.87.88-.87h5.33c.48 0 .88.39.88.88s-.39.87-.88.87Zm0-3.2H9.21c-.48 0-.88-.39-.88-.88s.4-.87.88-.87h5.33c.48 0 .88.39.88.88s-.39.87-.88.87Z"/></svg>