<svg xmlns="http://www.w3.org/2000/svg" width="24" height="24" fill="none"><path fill="#28303F" d="M17.77 4.25C16.72 3 15.24 3 12.54 3h-1.33c-2.7 0-4.18 0-5.22 1.25C5 5.43 5 7.05 5 10.27v3.2c0 3.22 0 4.84.98 6.02 1.04 1.25 2.53 1.25 5.22 1.25h1.33c2.7 0 4.18 0 5.22-1.25.98-1.18.98-2.8.98-6.02v-3.2c.02-3.22.02-4.84-.96-6.02Zm-5.23 11.7H9.21c-.48 0-.88-.39-.88-.88s.39-.88.88-.88h3.33c.48 0 .87.39.87.88s-.39.88-.87.88Zm2-3.2H9.21c-.48 0-.88-.39-.88-.88s.39-.87.88-.87h5.33c.48 0 .88.39.88.88s-.39.87-.88.87Zm0-3.2H9.21c-.48 0-.88-.39-.88-.88s.39-.87.88-.87h5.33c.48 0 .88.39.88.88s-.39.87-.88.87Z"/></svg>