<svg xmlns="http://www.w3.org/2000/svg" width="32" height="32" fill="none"><path fill="#28303F" fill-rule="evenodd" d="M16.72 4c3.6 0 5.573 0 6.973 1.667C25 7.24 25 9.4 24.973 13.693v4.267c0 4.293 0 6.453-1.306 8.026-1.387 1.667-3.36 1.667-6.96 1.667h-1.773c-3.587 0-5.574 0-6.96-1.667-1.307-1.573-1.307-3.733-1.307-8.026v-4.267c0-4.293 0-6.453 1.32-8.026C9.372 4 11.346 4 14.946 4h1.773Zm-2.173 14.627c-.267 0-.507.067-.72.187-.226.12-.387.306-.52.533-.12.24-.187.533-.187.866 0 .333.067.613.187.853.133.227.293.414.52.534.213.12.453.187.72.187.266 0 .506-.067.72-.187.226-.12.387-.307.52-.534.12-.24.187-.507.187-.853 0-.347-.067-.627-.187-.866-.133-.227-.294-.414-.52-.534a1.446 1.446 0 0 0-.72-.186Zm3.267 0c-.267 0-.507.067-.72.187-.214.12-.387.306-.507.533-.133.24-.187.533-.187.866 0 .333.053.613.173.853.134.227.294.414.507.534.213.12.467.187.734.187.2 0 .372-.027.519-.094.16-.053.294-.133.4-.24a.935.935 0 0 0 .267-.347.943.943 0 0 0 .134-.413h-.654a.51.51 0 0 1-.08.213.864.864 0 0 1-.133.174c-.067.04-.134.066-.2.093-.08.04-.16.04-.24.04a.72.72 0 0 1-.414-.12.763.763 0 0 1-.267-.333 1.343 1.343 0 0 1-.092-.547c0-.213.026-.4.093-.546a.717.717 0 0 1 .266-.347.72.72 0 0 1 .414-.12.708.708 0 0 1 .44.146c.053.054.106.107.146.174.027.066.054.147.067.227h.654a1.443 1.443 0 0 0-.148-.48 1.005 1.005 0 0 0-.279-.347 1.161 1.161 0 0 0-.4-.213 1.53 1.53 0 0 0-.493-.08Zm-7.68 3.12h1.079c.307 0 .574-.067.8-.187.214-.12.387-.307.507-.534.12-.226.187-.506.187-.826 0-.32-.068-.587-.188-.813a1.227 1.227 0 0 0-.505-.534 1.69 1.69 0 0 0-.801-.186h-1.08v3.08Zm10.199-1.534-.946 1.534h.733l.627-1.054h.026l.614 1.054h.747l-.948-1.534.92-1.546h-.72l-.613 1.053h-.026l-.613-1.053H19.4l.933 1.546ZM14.547 19.2c.16 0 .293.04.413.12.107.08.2.187.267.333.066.147.093.333.093.56 0 .213-.027.387-.093.547a.849.849 0 0 1-.267.334.718.718 0 0 1-.413.119.65.65 0 0 1-.4-.12.773.773 0 0 1-.28-.333 1.675 1.675 0 0 1-.094-.547c0-.227.04-.413.093-.56a.77.77 0 0 1 .28-.333.65.65 0 0 1 .4-.12Zm-3.36.027c.186 0 .347.026.48.106a.629.629 0 0 1 .293.32c.067.134.094.32.094.547 0 .227-.027.413-.094.56a.63.63 0 0 1-.293.32 1.065 1.065 0 0 1-.48.107h-.414v-1.96h.414Zm.44-4.56c-.533 0-.96.306-.96.666 0 .36.427.667.96.667h8.746c.52 0 .96-.294.96-.667 0-.373-.44-.666-.96-.666h-8.746Zm0-2.667c-.533 0-.96.307-.96.667 0 .36.427.666.96.666h8.746c.52 0 .96-.293.96-.666 0-.373-.44-.667-.96-.667h-8.746Zm0-2.667c-.533 0-.96.307-.96.667 0 .36.427.667.96.667h8.746c.52 0 .96-.294.96-.667 0-.373-.44-.667-.96-.667h-8.746Z" clip-rule="evenodd"/></svg>