<svg xmlns="http://www.w3.org/2000/svg" width="24" height="24" fill="none"><path fill="#28303F" d="M13.43 3c.72 0 1.39.33 1.84.91l2.95 3.78c.34.44.53 1 .53 1.56v7.42c0 2.25-1.74 4.08-3.87 4.08h-6C6.74 20.75 5 18.92 5 16.67v-9.6C5 4.83 6.74 3 8.88 3h4.55ZM8.88 4.75c-1.17 0-2.13 1.04-2.13 2.33v9.6c0 1.28.95 2.32 2.13 2.32h6c1.17 0 2.13-1.04 2.13-2.33V9.55h-1.38c-1.31 0-2.38-1.11-2.38-2.47V4.75H8.88Zm2.163 9.352a.95.95 0 0 1 .483.125.871.871 0 0 1 .341.358c.084.157.126.347.126.57 0 .224-.042.414-.126.57a.88.88 0 0 1-.34.36.957.957 0 0 1-.484.123.954.954 0 0 1-.485-.124.88.88 0 0 1-.34-.36 1.2 1.2 0 0 1-.124-.569c0-.223.04-.413.124-.57a.873.873 0 0 1 .34-.358.954.954 0 0 1 .485-.125Zm2.177 0c.117 0 .227.017.327.05.1.034.19.083.268.147a.75.75 0 0 1 .19.232c.05.092.08.198.095.317h-.434a.433.433 0 0 0-.048-.152.415.415 0 0 0-.228-.186.503.503 0 0 0-.16-.025.478.478 0 0 0-.275.08.505.505 0 0 0-.182.228.916.916 0 0 0-.063.362c0 .146.02.27.063.368.044.1.105.174.183.225a.533.533 0 0 0 .43.054.385.385 0 0 0 .227-.177.427.427 0 0 0 .053-.146l.434.002a.817.817 0 0 1-.53.667.973.973 0 0 1-.35.06.95.95 0 0 1-.486-.124.878.878 0 0 1-.336-.36 1.218 1.218 0 0 1-.124-.569c0-.223.042-.413.125-.57a.875.875 0 0 1 .34-.358.941.941 0 0 1 .48-.125Zm-4.395.028c.204 0 .38.041.527.123.147.081.26.199.34.351.08.153.12.337.12.55 0 .213-.04.396-.12.55a.829.829 0 0 1-.342.353 1.078 1.078 0 0 1-.53.123H8.1v-2.05h.725Zm6.35.7h.015l.412-.7h.484l-.62 1.025.634 1.025h-.494l-.416-.7h-.015l-.416.7h-.491l.634-1.025-.622-1.025h.486l.409.7Zm-4.132-.345a.48.48 0 0 0-.271.078.501.501 0 0 0-.18.226.937.937 0 0 0-.064.366c0 .145.022.267.064.367a.5.5 0 0 0 .18.225.48.48 0 0 0 .271.077.48.48 0 0 0 .272-.077.496.496 0 0 0 .18-.226.925.925 0 0 0 .063-.366.927.927 0 0 0-.064-.366.497.497 0 0 0-.18-.226.48.48 0 0 0-.271-.078ZM8.528 15.81h.273a.684.684 0 0 0 .32-.069.436.436 0 0 0 .196-.213.906.906 0 0 0 .067-.374.897.897 0 0 0-.067-.372.433.433 0 0 0-.195-.212.686.686 0 0 0-.32-.067h-.274v1.307ZM15 7.08c0 .4.28.72.63.72h.46L15 6.42v.66Z"/></svg>