<svg xmlns="http://www.w3.org/2000/svg" width="32" height="32" fill="none"><path fill="#28303F" fill-rule="evenodd" d="M16.72 4c3.586 0 5.56.013 6.96 1.68C25 7.24 25 9.4 25 13.693v4.267c0 4.293-.014 6.467-1.32 8.04-1.4 1.666-3.374 1.68-6.96 1.68h-1.786c-3.587 0-5.561-.013-6.948-1.68-1.32-1.573-1.319-3.733-1.319-8.04v-4.267c0-4.293 0-6.453 1.307-8.013C9.374 4.013 11.347 4 14.934 4h1.786Zm-1.786 2.347c-3.173 0-4.494.026-5.16.826C9 8.093 9 10.08 9 13.693v4.267c0 3.613 0 5.627.773 6.547.667.8 1.988.826 5.16.826h1.787c3.186 0 4.493-.026 5.16-.826.787-.934.787-2.92.787-6.547v-4.267c0-3.613-.014-5.6-.787-6.52-.667-.8-1.974-.826-5.16-.826h-1.786Zm-.214 12.467c.24 0 .454.053.64.16.2.106.347.266.454.48.12.212.172.466.172.759s-.053.547-.173.76a1.056 1.056 0 0 1-.453.48c-.186.107-.4.16-.64.16s-.454-.053-.654-.16a1.214 1.214 0 0 1-.453-.48 1.684 1.684 0 0 1-.16-.76c0-.293.054-.547.16-.76.12-.213.267-.373.453-.48.2-.106.414-.16.654-.16Zm2.893 0c.16 0 .307.012.44.066.134.04.254.107.36.186.107.094.187.187.254.32.067.12.106.254.133.414h-.587c-.013-.067-.027-.134-.067-.2a.419.419 0 0 0-.12-.147c-.053-.04-.106-.093-.172-.093a.671.671 0 0 0-.587.066.623.623 0 0 0-.24.307 1.282 1.282 0 0 0-.093.48c.013.2.039.36.092.494a.588.588 0 0 0 .24.293.671.671 0 0 0 .361.106c.08 0 .146-.013.213-.026a.725.725 0 0 0 .174-.094c.053-.04.093-.093.133-.146.026-.053.065-.183.066-.187h.587c-.027.12-.054.24-.12.36a1.014 1.014 0 0 1-.24.307.958.958 0 0 1-.36.213 1.27 1.27 0 0 1-.467.08c-.24 0-.453-.053-.64-.16a1.216 1.216 0 0 1-.453-.48 1.686 1.686 0 0 1-.16-.76c0-.293.053-.547.16-.76.12-.213.267-.373.454-.48.2-.106.413-.16.64-.16Zm-5.853.026c.266 0 .507.067.707.174.186.106.346.267.453.466.106.2.16.453.16.733 0 .28-.053.52-.16.733-.107.2-.267.36-.467.467-.186.107-.426.16-.706.16h-.96V18.84h.973Zm8.467.933h.026l.547-.933h.64l-.827 1.373.84 1.36H20.8l-.547-.92h-.026l-.56.92h-.653l.852-1.36-.826-1.373h.64l.547.933Zm-5.507-.453a.606.606 0 0 0-.36.107.589.589 0 0 0-.24.293 1.125 1.125 0 0 0-.094.493c0 .187.027.36.094.494a.59.59 0 0 0 .24.293.606.606 0 0 0 .36.106c.133 0 .253-.04.36-.106a.588.588 0 0 0 .24-.293c.054-.133.08-.307.08-.494s-.026-.36-.08-.493a.588.588 0 0 0-.24-.293.671.671 0 0 0-.36-.107Zm-3.36 1.76h.373c.16 0 .307-.027.427-.08.107-.067.2-.16.253-.293.067-.12.094-.294.094-.494s-.027-.373-.094-.493a.611.611 0 0 0-.253-.293 1.059 1.059 0 0 0-.427-.08h-.373v1.733Zm9-6.413c.533 0 .973.293.973.666 0 .373-.44.667-.973.667h-8.733c-.533 0-.96-.307-.96-.667 0-.36.427-.666.96-.666h8.733Zm0-2.667c.534 0 .973.294.973.667 0 .373-.44.666-.973.666h-8.733c-.533 0-.96-.306-.96-.666 0-.36.427-.667.96-.667h8.733Zm0-2.667c.534 0 .973.294.973.667 0 .373-.44.667-.973.667h-8.733c-.533 0-.96-.307-.96-.667 0-.36.427-.667.96-.667h8.733Z" clip-rule="evenodd"/></svg>