<svg xmlns="http://www.w3.org/2000/svg" width="24" height="24" fill="none"><path fill="#28303F" d="M13.26 7.07c0 1.37 1.07 2.48 2.38 2.48h3.12v7.13c0 2.25-1.74 4.08-3.88 4.08h-6C6.74 20.76 5 18.93 5 16.68v-9.6C5 4.83 6.74 3 8.88 3h4.38v4.07Zm-2.35 6.9c-.2 0-.38.05-.54.14a1 1 0 0 0-.39.4c-.09.18-.14.39-.14.64s.05.47.14.64c.1.18.22.31.39.41.16.09.34.14.54.14s.38-.05.55-.14c.16-.09.28-.23.38-.4.09-.18.14-.4.14-.65s-.05-.46-.14-.64c-.1-.17-.22-.31-.38-.4-.17-.09-.35-.14-.55-.14Zm2.45 0c-.2 0-.38.05-.54.14-.16.09-.29.23-.38.4-.1.18-.14.39-.14.64s.04.47.13.64c.1.18.22.31.38.41.16.09.35.14.55.14.15 0 .28-.02.39-.07.12-.04.22-.1.3-.18a.79.79 0 0 0 .2-.26c.06-.1.09-.2.1-.31h-.49c-.01.06-.03.11-.06.16s-.06.09-.1.13c-.05.03-.1.05-.15.07a.57.57 0 0 1-.49-.06.633.633 0 0 1-.2-.25c-.05-.11-.07-.25-.07-.42 0-.16.02-.29.07-.4.05-.12.12-.2.2-.26a.54.54 0 0 1 .31-.09c.07 0 .13.01.18.03.06.02.11.04.15.08a.428.428 0 0 1 .16.3h.49c-.02-.14-.05-.25-.11-.36a.756.756 0 0 0-.21-.26.872.872 0 0 0-.3-.16c-.12-.04-.24-.06-.37-.06ZM7.6 16.31h.81c.23 0 .43-.05.6-.14.16-.09.29-.23.38-.4.09-.17.14-.38.14-.62s-.05-.44-.14-.62a.954.954 0 0 0-.38-.39c-.17-.09-.37-.14-.59-.14H7.6v2.31Zm7.65-1.16-.71 1.16h.55l.47-.79h.02l.47.79h.55l-.71-1.16.69-1.15h-.54l-.46.79h-.02L15.1 14h-.55l.7 1.15Zm-4.34-.75c.12 0 .22.03.31.09.08.05.15.14.2.25.05.11.07.25.07.41 0 .17-.02.3-.07.42-.05.11-.12.19-.2.25a.54.54 0 0 1-.31.09c-.12 0-.22-.03-.3-.09a.578.578 0 0 1-.21-.25 1.269 1.269 0 0 1 0-.83c.05-.11.12-.2.21-.25.08-.06.18-.09.3-.09Zm-2.52.02a.8.8 0 0 1 .36.07c.1.06.17.14.22.24.05.11.07.25.07.42 0 .17-.02.31-.07.42a.47.47 0 0 1-.22.24c-.1.05-.22.08-.36.08h-.31v-1.47h.31Zm6.63-10.77c.08.08.17.16.25.26l2.95 3.78c.029.04.068.106.07.11h-2.65c-.35 0-.63-.33-.63-.73h.01V3.65Z"/></svg>