<svg xmlns="http://www.w3.org/2000/svg" width="24" height="24" fill="none"><g fill="#28303F"><path d="M4.9 20.8c.3.1.6.2 1 .2H12c2.4 0 4.7-.9 6.4-2.6 1.7-1.7 2.6-4 2.6-6.4 0-2.4-.9-4.7-2.6-6.4C16.7 3.9 14.4 3 12 3c-2.4 0-4.7.9-6.4 2.6C3.9 7.3 3 9.6 3 12v6.1c0 .4.1.7.2 1 .2.4.4.7.7 1 .3.3.6.5 1 .7Zm12.2-3.7c-1.4 1.4-3.2 2.1-5.1 2.1H6c-.3 0-.4-.1-.5-.1-.2-.1-.3-.2-.4-.3-.1-.1-.2-.3-.3-.4 0-.1-.1-.2-.1-.5V12c0-1.9.8-3.8 2.1-5.1 1.4-1.4 3.3-2.1 5.2-2.1 1.9 0 3.8.8 5.1 2.1 1.4 1.4 2.1 3.2 2.1 5.1 0 1.9-.7 3.8-2.1 5.1Z"/><path d="M8 13a1 1 0 1 0 0-2 1 1 0 0 0 0 2ZM12 13a1 1 0 1 0 0-2 1 1 0 0 0 0 2ZM16 13a1 1 0 1 0 0-2 1 1 0 0 0 0 2Z"/></g></svg>