<svg xmlns="http://www.w3.org/2000/svg" width="24" height="24" fill="none"><g fill="#28303F"><path d="M11.9 3C7 3 3 7 3 11.9c0 1.4.3 2.8.9 4 .1 0 .1.1.1.1l-.8 2.3c-.5 1.3.8 2.6 2.1 2.1l2.2-.8h.2c1.3.7 2.7 1.1 4.2 1.1 4.9 0 8.9-4 8.9-8.9 0-4.8-4-8.8-8.9-8.8Zm0 16c-1.2 0-2.4-.3-3.4-.8-.5-.2-1-.3-1.6-.1l-2.1.7.8-2.2c.2-.5.1-1.1-.1-1.5-.5-1-.7-2-.7-3.2C4.8 8 8 4.8 11.9 4.8c3.9 0 7.1 3.2 7.1 7.1 0 3.9-3.2 7.1-7.1 7.1Z"/><path d="M7.9 12.9a1 1 0 1 0 0-2 1 1 0 0 0 0 2ZM11.9 12.9a1 1 0 1 0 0-2 1 1 0 0 0 0 2ZM15.9 12.9a1 1 0 1 0 0-2 1 1 0 0 0 0 2Z"/></g></svg>