<svg xmlns="http://www.w3.org/2000/svg" width="24" height="24" fill="none"><g fill="#28303F"><path d="m2.01 19.6.03.23s.08 1.14 1.15 1.2h.05c.43 0 .8-.3.98-.68l.04-.09s1.41-3.61 2.54-4.91l.05-.05c1.08-1.03 2-1.54 3.23-1.79.28-.06.55.16.54.46-.01.54-.01 1.32-.01 1.67 0 .23.03.49.12.7.1.22.25.41.41.5.09.05.29.08.36.08h.04c.09 0 .2-.01.31-.06a.8.8 0 0 0 .23-.14l4.3-3.79.02-.02 2.28-1.79c.38-.3.57-.6.57-1-.02-.08-.02-.48-.4-.88l-6.01-5.7c-.38-.33-.8-.53-1.19-.53-.15 0-.29.03-.43.09 0 0-.16.07-.27.15-.13.09-.21.24-.27.4-.04.1-.06.19-.06.27v.02l.01 2.1c0 .24-.17.43-.39.46-2.12.3-3.91 1.48-5.62 3.56-1.53 2-2.45 4.5-2.58 7.3-.07 1.53-.03 2.24-.03 2.24Z"/><path d="m17.96 12.23 2.25-1.77a.45.45 0 0 0 .03-.67l-5.58-5.27a.911.911 0 0 1-.06-1.24c.31-.36.84-.39 1.18-.06l5.74 5.41c.53.55.6 1.14.62 1.29l.02.21c0 .99-.68 1.52-.91 1.7L19 13.6l-3.65 3.1c-.16.14-.35.21-.54.21a.84.84 0 0 1-.64-.31.9.9 0 0 1 .1-1.23l3.69-3.14Z"/></g></svg>