<svg xmlns="http://www.w3.org/2000/svg" width="24" height="24" fill="none"><path fill="#28303F" d="M21.36 6.365c-.24-.32-.56-.64-.9-.98l-.9-.9c-.32-.32-.63-.63-.94-.87-1.08-.82-2.27-.82-3.35 0-.3.23-.6.53-.98.9l-9.27 9.27-.04.04-.06.06-.04.05s-.4.47-.51.64c0 0-.09.16-.11.21-.06.15-.2.62-.2.62l-.03.13-.9 3.61c-.05.18-.1.43-.12.63-.06.63.14 1.21.56 1.63.37.37.86.57 1.41.57.07 0 .15 0 .22-.01.21-.02.45-.08.67-.13l3.64-.91c.24-.06.57-.14.89-.33.33-.18.56-.42.79-.64l9.31-9.31c.29-.29.62-.62.87-.94.41-.54.61-1.08.61-1.67-.01-.59-.21-1.14-.62-1.67Zm-12.11 12.1a.87.87 0 0 1-.62.26c-.23 0-.45-.08-.62-.26l-1.5-1.5a.881.881 0 0 1 0-1.24c.34-.34.9-.34 1.24 0l1.5 1.5c.34.34.34.9 0 1.24Z"/></svg>