<svg xmlns="http://www.w3.org/2000/svg" width="24" height="24" fill="none"><g fill="#28303F"><path d="m4.98 13.825-.06.06-.04.05s-.4.47-.51.64c0 0-.09.16-.11.21-.06.15-.2.62-.2.62l-.03.13-.9 3.61c-.05.18-.1.43-.12.63-.06.63.14 1.21.56 1.63.37.37.86.57 1.41.57.07 0 .15 0 .22-.01.21-.02.45-.08.67-.13l3.64-.91c.24-.06.57-.14.89-.33.33-.18.56-.42.79-.64l9.31-9.31c.29-.29.62-.62.87-.94.41-.54.61-1.08.61-1.67 0-.59-.2-1.14-.61-1.67-.24-.32-.56-.64-.9-.98l-.9-.9c-.32-.32-.63-.63-.94-.87-1.08-.82-2.27-.82-3.35 0-.3.23-.6.53-.98.9l-9.27 9.27-.05.04Zm14.99-5.18c-.17.23-.46.51-.75.8l-9.32 9.32c-.12.12-.24.25-.36.31-.12.07-.29.11-.52.17l-3.62.9c-.11.03-.25.07-.38.08-.16.01-.2-.03-.22-.05-.02-.02-.07-.07-.05-.22.01-.13.05-.27.09-.42l.91-3.63c.04-.16.08-.32.14-.44l.02-.04c.07-.12.19-.23.31-.35l9.36-9.36c.27-.27.53-.53.74-.69.46-.35.77-.35 1.23 0 .22.17.48.43.8.75l.9.9c.27.27.54.54.72.77.17.23.25.41.25.61 0 .17-.08.36-.25.59Z"/><path d="M7.75 15.715a.881.881 0 0 0-1.24 0c-.34.34-.34.9 0 1.24l1.5 1.5c.17.17.39.26.62.26.23 0 .45-.08.62-.26.34-.34.34-.9 0-1.24l-1.5-1.5Z"/></g></svg>