<svg xmlns="http://www.w3.org/2000/svg" width="24" height="24" fill="none"><g fill="#28303F"><path d="M8.953 3c.483 0 .875.392.875.875v2.398h-1.75V3.875c0-.483.391-.875.875-.875ZM9.828 17.725h-1.75v2.399a.875.875 0 1 0 1.75 0v-2.399ZM15.92 17.725h-1.75v2.399a.875.875 0 1 0 1.75 0v-2.399ZM15.92 3.875a.875.875 0 1 0-1.75 0v2.398h1.75V3.875ZM17.725 8.078h2.399a.875.875 0 1 1 0 1.75h-2.399v-1.75ZM17.725 14.17v1.75h2.399a.875.875 0 1 0 0-1.75h-2.399ZM3 8.953c0-.484.392-.875.875-.875h2.398v1.75H3.875A.875.875 0 0 1 3 8.953ZM3.875 14.17a.875.875 0 0 0 0 1.75h2.398v-1.75H3.875Z"/><path fill-rule="evenodd" d="M9.953 8.078c-1.036 0-1.875.839-1.875 1.875v4.093c0 1.035.839 1.875 1.875 1.875h4.093c1.035 0 1.875-.84 1.875-1.875V9.953c0-1.036-.84-1.875-1.875-1.875H9.953Zm-.125 1.875c0-.07.056-.125.125-.125h4.093c.069 0 .125.056.125.125v4.093a.125.125 0 0 1-.125.125H9.953a.125.125 0 0 1-.125-.125V9.953Z" clip-rule="evenodd"/><path fill-rule="evenodd" d="M4.89 6.89a2 2 0 0 1 2-2h10.218a2 2 0 0 1 2 2v10.218a2 2 0 0 1-2 2H6.89a2 2 0 0 1-2-2V6.89Zm1.77.765a1 1 0 0 1 1-1h8.679a1 1 0 0 1 1 1v8.68a1 1 0 0 1-1 1h-8.68a1 1 0 0 1-1-1v-8.68Z" clip-rule="evenodd"/></g></svg>