<svg xmlns="http://www.w3.org/2000/svg" width="24" height="24" fill="none"><g fill="#28303F"><path d="M8.953 3c.483 0 .875.392.875.875v2.398h-1.75V3.875c0-.483.391-.875.875-.875ZM9.828 17.725h-1.75v2.399a.875.875 0 1 0 1.75 0v-2.399ZM15.92 17.725h-1.75v2.399a.875.875 0 1 0 1.75 0v-2.399ZM15.92 3.875a.875.875 0 1 0-1.75 0v2.398h1.75V3.875ZM17.725 8.078h2.399a.875.875 0 1 1 0 1.75h-2.399v-1.75ZM17.725 14.17v1.75h2.399a.875.875 0 1 0 0-1.75h-2.399ZM3 8.953c0-.484.392-.875.875-.875h2.398v1.75H3.875A.875.875 0 0 1 3 8.953ZM3.875 14.17a.875.875 0 0 0 0 1.75h2.398v-1.75H3.875ZM8.75 9A.25.25 0 0 1 9 8.75h6a.25.25 0 0 1 .25.25v6a.25.25 0 0 1-.25.25H9a.25.25 0 0 1-.25-.25V9Z"/><path fill-rule="evenodd" d="M6.89 4.89a2 2 0 0 0-2 2v10.218a2 2 0 0 0 2 2h10.218a2 2 0 0 0 2-2V6.89a2 2 0 0 0-2-2H6.89ZM9 7.25A1.75 1.75 0 0 0 7.25 9v6c0 .966.784 1.75 1.75 1.75h6A1.75 1.75 0 0 0 16.75 15V9A1.75 1.75 0 0 0 15 7.25H9Z" clip-rule="evenodd"/></g></svg>