<svg xmlns="http://www.w3.org/2000/svg" width="24" height="24" fill="none"><g fill="#28303F"><path d="M21 14v4c0 1.57-1.28 2.85-2.85 2.85H5.85C4.28 20.85 3 19.57 3 18v-4c0-1.57 1.28-2.85 2.85-2.85H9c.47 0 .85.38.85.85v4c0 1.19.96 2.15 2.15 2.15s2.15-.96 2.15-2.15v-4c0-.47.38-.85.85-.85h3.15c1.57 0 2.85 1.28 2.85 2.85Z"/><path d="M15.1 8.1c-.33.33-.87.33-1.2 0l-1.05-1.05V16a.85.85 0 1 1-1.7 0V7.05L10.1 8.1c-.33.33-.87.33-1.2 0a.851.851 0 0 1 0-1.2l2.5-2.5c.33-.33.87-.33 1.2 0l2.5 2.5c.33.33.33.87 0 1.2Z"/></g></svg>