<svg xmlns="http://www.w3.org/2000/svg" width="24" height="24" fill="none"><g fill="#28303F"><path d="M12.1 16c-2 0-3.6-1.6-3.6-3.6 0-.4.1-.8.2-1.2L6 8.9l-2.2 1.7c-.5.4-.8 1.1-.8 1.7 0 .7.3 1.3.8 1.8l3.3 2.6c1.5 1.2 3.2 1.7 5 1.7 1.4 0 2.7-.4 3.9-1.1l-2.2-1.8c-.5.3-1.1.5-1.7.5ZM18.9 15.2l1.4-1.1c.5-.4.8-1 .8-1.7s-.3-1.3-.8-1.7L17 8c-2.3-1.8-5.4-2.1-8-1L6.9 5.2c-.4-.3-.9-.3-1.2.1-.4.4-.3.9.1 1.2l13.9 11.6c.2.1.4.2.6.2.3 0 .5-.1.7-.3.3-.4.3-.9-.1-1.2l-2-1.6Zm-6.8-6.4c2 0 3.6 1.6 3.6 3.6v.2l-4.4-3.7c.2-.1.5-.1.8-.1Z"/></g></svg>