<svg xmlns="http://www.w3.org/2000/svg" width="24" height="24" fill="none"><g fill="#28303F"><path d="M12.1 8.425c-2 0-3.6 1.6-3.6 3.6s1.6 3.6 3.6 3.6 3.6-1.6 3.6-3.6-1.6-3.6-3.6-3.6Zm0 5.5c-1.1 0-1.9-.8-1.9-1.9 0-1 .8-1.9 1.9-1.9 1.1 0 1.8.9 1.8 1.9 0 1.1-.8 1.9-1.8 1.9Z"/><path d="m20.3 10.325-3.3-2.6c-2.9-2.3-7-2.3-9.9 0l-3.3 2.6c-.5.4-.8 1-.8 1.7s.3 1.3.8 1.7l3.3 2.6c1.5 1.2 3.2 1.7 5 1.7 1.7 0 3.5-.6 4.9-1.7l3.3-2.6c.5-.4.8-1 .8-1.7 0-.6-.3-1.3-.8-1.7Zm-1.1 2.1-3.3 2.6c-2.3 1.8-5.5 1.8-7.7 0l-3.3-2.6c-.1-.2-.1-.3-.1-.4 0-.1 0-.2.2-.3l3.3-2.6c1.1-.9 2.5-1.3 3.9-1.3s2.7.4 3.9 1.3l3.3 2.6v.3s0 .3-.2.4Z"/></g></svg>