<svg xmlns="http://www.w3.org/2000/svg" width="24" height="24" fill="none"><g fill="#28303F"><path d="m18.9 15.214 1.4-1.1c.5-.4.8-1 .8-1.7s-.3-1.3-.8-1.7l-3.3-2.7c-2.3-1.8-5.4-2.1-8-1l-2.1-1.8c-.4-.3-.9-.3-1.2.1-.3.4-.3.9.1 1.2l13.9 11.6c.2.1.4.2.6.2.3 0 .5-.1.7-.3.3-.4.3-.9-.1-1.2l-2-1.6Zm-6.8-7.1c1.4 0 2.7.4 3.9 1.3l3.2 2.6c.1.1.2.3.2.3 0 .1 0 .2-.2.3l-1.7 1.3-1.9-1.6v-.1c0-2-1.6-3.6-3.6-3.6-.3 0-.5 0-.8.1l-.6-.4c.5-.2 1-.2 1.5-.2ZM13.8 15.514l-1.6-1.3H12c-1 0-1.8-.7-1.8-1.7l-1.5-1.3c-.2.4-.2.8-.2 1.2 0 2 1.6 3.6 3.6 3.6.6 0 1.2-.2 1.7-.5Z"/><path d="m8.2 15.314-3.3-2.6c-.1-.1-.2-.3-.2-.4 0-.1 0-.2.2-.3l2.4-1.9-1.3-1.2-2.2 1.7c-.5.4-.8 1.1-.8 1.7 0 .7.3 1.3.8 1.8l3.3 2.6c1.5 1.2 3.2 1.7 5 1.7 1.4 0 2.7-.4 4-1.1l-1.5-1.2c-2.1.9-4.6.7-6.4-.8Z"/></g></svg>