<svg xmlns="http://www.w3.org/2000/svg" width="24" height="24" fill="none"><g fill="#28303F"><path d="M15.63 9.55c-1.31 0-2.38-1.11-2.38-2.47V3H8.88C6.74 3 5 4.83 5 7.08v9.6c0 2.25 1.74 4.08 3.88 4.08h6c2.14 0 3.88-1.83 3.88-4.08V9.55h-3.13Zm-3.75 7.2h-3c-.49 0-.88-.39-.88-.87s.39-.88.88-.88h3c.48 0 .88.39.88.88s-.4.87-.88.87Zm3-4h-6c-.49 0-.88-.39-.88-.87s.39-.88.88-.88h6c.48 0 .88.39.88.88s-.4.87-.88.87Z"/><path d="M15 7.08c0 .4.28.72.63.72h2.66a.673.673 0 0 0-.07-.11l-2.95-3.78c-.08-.1-.17-.18-.26-.27v3.44H15Z"/></g></svg>