<svg xmlns="http://www.w3.org/2000/svg" width="24" height="24" fill="none"><path fill="#28303F" d="M11.88 20.79c-3.8 0-6.88-3.08-6.88-6.87 0-2.39 1.25-4.65 3.26-5.9l.43-.27.54.24c.21.11.37.3.45.52.32-1.82 1.12-4.02 3.07-5.24l.44-.27.54.23c.31.17.51.48.52.83v.01c.05 1.58.91 2.63 1.91 3.84 1.21 1.48 2.59 3.16 2.59 6.01 0 3.79-3.08 6.87-6.87 6.87ZM8.25 10.25c-.95.96-1.5 2.29-1.5 3.67 0 2.83 2.3 5.13 5.13 5.13S17 16.75 17 13.92c0-2.23-1.06-3.52-2.19-4.9-.83-1.01-1.68-2.04-2.08-3.42-1.58 1.95-1.51 5.21-1.49 5.64l.02.5-.46.35c-.29.18-.65.2-.96.05-.31-.16-1.16-.68-1.59-1.89Z"/></svg>