<svg xmlns="http://www.w3.org/2000/svg" width="24" height="24" fill="none"><g fill="#28303F"><path d="M8.79 3.08C8.47 3 8.06 3 7.24 3c-.82 0-1.23 0-1.55.08-1.32.24-2.37 1.3-2.63 2.6C3 6.01 3 6.42 3 7.23s0 1.24.06 1.55l.06.26a3.302 3.302 0 0 0 2.55 2.37l.27.04c.27.01.65.01 1.28.01s1 0 1.3-.02l.26-.03a3.328 3.328 0 0 0 2.55-2.38l.05-.26c.06-.3.06-.71.06-1.54 0-.83 0-1.23-.06-1.55-.27-1.34-1.29-2.36-2.62-2.61l.03.01ZM8.79 12.6c-.32-.08-.73-.08-1.55-.08-.82 0-1.23 0-1.55.08-1.31.25-2.36 1.3-2.62 2.61-.06.33-.06.74-.06 1.55s0 1.24.06 1.55l.06.26a3.302 3.302 0 0 0 2.55 2.37l.27.04c.27.01.65.01 1.28.01s1 0 1.3-.02l.26-.03a3.328 3.328 0 0 0 2.55-2.38l.05-.26c.06-.3.06-.71.06-1.54 0-.83 0-1.23-.06-1.55-.27-1.34-1.29-2.36-2.62-2.61h.02ZM12.66 9.05a3.302 3.302 0 0 0 2.55 2.37l.27.04c.27.01.65.01 1.28.01s1 0 1.3-.02l.26-.03a3.328 3.328 0 0 0 2.55-2.38l.05-.26c.06-.3.06-.71.06-1.54 0-.83 0-1.23-.06-1.55-.27-1.34-1.29-2.36-2.62-2.61C17.98 3 17.57 3 16.75 3c-.82 0-1.23 0-1.55.08-1.31.25-2.36 1.3-2.62 2.61-.06.33-.06.74-.06 1.55s0 1.24.06 1.55l.06.26h.02ZM18.32 12.6c-.32-.08-.73-.08-1.55-.08-.82 0-1.23 0-1.55.08-1.31.25-2.36 1.3-2.62 2.61-.06.33-.06.74-.06 1.55s0 1.24.06 1.55l.06.26a3.302 3.302 0 0 0 2.55 2.37l.27.04c.27.01.65.01 1.28.01s1 0 1.3-.02l.26-.03a3.328 3.328 0 0 0 2.55-2.38l.05-.26c.06-.3.06-.71.06-1.54 0-.83 0-1.23-.06-1.55-.27-1.34-1.29-2.36-2.62-2.61h.02Z"/></g></svg>