<svg xmlns="http://www.w3.org/2000/svg" width="24" height="24" fill="none"><g fill="#28303F"><path d="M11.443 5.578c.083.364.083.805.083 1.685s0 1.321-.083 1.685a3.316 3.316 0 0 1-2.495 2.495c-.364.083-.804.083-1.685.083-.88 0-1.32 0-1.685-.083a3.316 3.316 0 0 1-2.495-2.495C3 8.584 3 8.144 3 7.263c0-.88 0-1.32.083-1.685a3.316 3.316 0 0 1 2.495-2.495C5.942 3 6.383 3 7.263 3s1.321 0 1.685.083a3.316 3.316 0 0 1 2.495 2.495ZM11.443 15.052c.083.364.083.804.083 1.685 0 .88 0 1.32-.083 1.685a3.316 3.316 0 0 1-2.495 2.495C8.584 21 8.144 21 7.263 21c-.88 0-1.32 0-1.685-.083a3.316 3.316 0 0 1-2.495-2.495C3 18.058 3 17.617 3 16.737s0-1.321.083-1.685a3.316 3.316 0 0 1 2.495-2.495c.364-.083.805-.083 1.685-.083s1.321 0 1.685.083a3.316 3.316 0 0 1 2.495 2.495ZM20.917 5.578c.083.364.083.805.083 1.685s0 1.321-.083 1.685a3.316 3.316 0 0 1-2.495 2.495c-.364.083-.805.083-1.685.083s-1.321 0-1.685-.083a3.316 3.316 0 0 1-2.495-2.495c-.083-.364-.083-.804-.083-1.685 0-.88 0-1.32.083-1.685a3.316 3.316 0 0 1 2.495-2.495C15.416 3 15.856 3 16.737 3c.88 0 1.32 0 1.685.083a3.316 3.316 0 0 1 2.495 2.495ZM20.917 15.052c.083.364.083.804.083 1.685 0 .88 0 1.32-.083 1.685a3.316 3.316 0 0 1-2.495 2.495c-.364.083-.805.083-1.685.083s-1.321 0-1.685-.083a3.316 3.316 0 0 1-2.495-2.495c-.083-.364-.083-.805-.083-1.685s0-1.321.083-1.685a3.316 3.316 0 0 1 2.495-2.495c.364-.083.804-.083 1.685-.083.88 0 1.32 0 1.685.083a3.316 3.316 0 0 1 2.495 2.495Z"/></g></svg>