<svg xmlns="http://www.w3.org/2000/svg" width="24" height="24" fill="none"><g fill="#28303F"><path d="M8.787 3.075C8.464 3 8.055 3 7.235 3c-.819 0-1.228 0-1.551.075a3.329 3.329 0 0 0-2.62 2.608C3 6.017 3 6.427 3 7.235s0 1.24.065 1.552l.064.259a3.317 3.317 0 0 0 2.555 2.37l.269.044c.27.01.647.01 1.282.01.636 0 1.003 0 1.305-.021l.258-.033a3.345 3.345 0 0 0 2.554-2.381l.054-.259c.065-.302.065-.711.065-1.54 0-.83 0-1.23-.065-1.553-.27-1.336-1.293-2.36-2.619-2.608Zm1.057 5.41a1.74 1.74 0 0 1-1.358 1.369c-.13.021-.345.032-1.25.032-.852 0-1.121-.01-1.24-.032a1.763 1.763 0 0 1-1.38-1.38c-.021-.129-.021-.409-.021-1.239 0-.83 0-1.088.022-1.228.14-.69.69-1.229 1.411-1.38.119-.032.453-.032 1.207-.032.755 0 1.089 0 1.24.043.69.13 1.228.668 1.369 1.358.032.14.032.463.032 1.24 0 .894-.01 1.12-.032 1.25ZM8.787 12.605c-.323-.076-.732-.076-1.552-.076-.819 0-1.228 0-1.551.076a3.329 3.329 0 0 0-2.62 2.608C3 15.547 3 15.956 3 16.765c0 .808 0 1.239.065 1.551l.064.26a3.317 3.317 0 0 0 2.555 2.37l.269.043c.27.01.647.01 1.282.01.636 0 1.003 0 1.305-.02l.258-.033a3.345 3.345 0 0 0 2.554-2.382l.054-.258c.065-.302.065-.712.065-1.541 0-.83 0-1.229-.065-1.552-.27-1.336-1.293-2.36-2.619-2.608Zm1.057 5.41a1.74 1.74 0 0 1-1.358 1.368c-.13.022-.345.033-1.25.033-.852 0-1.121-.011-1.24-.033a1.763 1.763 0 0 1-1.38-1.38c-.021-.128-.021-.409-.021-1.238 0-.83 0-1.089.022-1.229.14-.69.69-1.229 1.411-1.38.119-.032.453-.032 1.207-.032.755 0 1.089 0 1.24.043.69.13 1.228.669 1.369 1.358.032.14.032.464.032 1.24 0 .894-.01 1.12-.032 1.25ZM18.317 3.075C17.994 3 17.584 3 16.765 3c-.82 0-1.229 0-1.552.075a3.328 3.328 0 0 0-2.619 2.608c-.065.334-.065.744-.065 1.552s0 1.24.065 1.552l.065.259a3.317 3.317 0 0 0 2.554 2.37l.27.044c.269.01.646.01 1.282.01s1.002 0 1.304-.021l.259-.033a3.345 3.345 0 0 0 2.554-2.381l.054-.259C21 8.474 21 8.065 21 7.236c0-.83 0-1.23-.064-1.553-.27-1.336-1.294-2.36-2.62-2.608Zm1.056 5.41a1.74 1.74 0 0 1-1.358 1.369c-.13.021-.345.032-1.25.032-.851 0-1.121-.01-1.24-.032a1.763 1.763 0 0 1-1.379-1.38c-.022-.129-.022-.409-.022-1.239 0-.83 0-1.088.022-1.228.14-.69.69-1.229 1.412-1.38.118-.032.453-.032 1.207-.032s1.088 0 1.24.043c.689.13 1.228.668 1.368 1.358.032.14.032.463.032 1.24 0 .894-.01 1.12-.032 1.25ZM18.317 12.605c-.323-.076-.733-.076-1.552-.076-.82 0-1.229 0-1.552.076a3.329 3.329 0 0 0-2.619 2.608c-.065.334-.065.743-.065 1.552 0 .808 0 1.239.065 1.551l.065.26a3.317 3.317 0 0 0 2.554 2.37l.27.043c.269.01.646.01 1.282.01s1.002 0 1.304-.02l.259-.033a3.345 3.345 0 0 0 2.554-2.382l.054-.258c.064-.302.064-.712.064-1.541 0-.83 0-1.229-.064-1.552-.27-1.336-1.294-2.36-2.62-2.608Zm1.056 5.41a1.74 1.74 0 0 1-1.358 1.368c-.13.022-.345.033-1.25.033-.851 0-1.121-.011-1.24-.033a1.763 1.763 0 0 1-1.379-1.38c-.022-.128-.022-.409-.022-1.238 0-.83 0-1.089.022-1.229.14-.69.69-1.229 1.412-1.38.118-.032.453-.032 1.207-.032s1.088 0 1.24.043c.689.13 1.228.669 1.368 1.358.032.14.032.464.032 1.24 0 .894-.01 1.12-.032 1.25Z"/></g></svg>