<svg xmlns="http://www.w3.org/2000/svg" width="24" height="24" fill="none"><g fill="#28303F" fill-rule="evenodd" clip-rule="evenodd"><path d="M11.44 15.05a3.326 3.326 0 0 0-2.49-2.5c-.37-.08-.81-.08-1.69-.08-.88 0-1.32 0-1.68.08l-.23.06c-1.13.35-2 1.27-2.27 2.44l-.02.14c-.06.34-.06.77-.06 1.54 0 .88 0 1.33.08 1.69l.06.23c.35 1.13 1.27 2 2.44 2.26.36.09.8.09 1.68.09.77 0 1.21 0 1.55-.06l.14-.03a3.295 3.295 0 0 0 2.43-2.26l.06-.23c.09-.36.09-.81.09-1.69 0-.88 0-1.32-.09-1.68Zm-1.46 3.03a1.84 1.84 0 0 1-1.37 1.37c-.15.03-.38.04-1.35.04-.97 0-1.19-.01-1.35-.04-.68-.16-1.21-.69-1.36-1.37-.04-.15-.05-.38-.05-1.35 0-.97.01-1.19.05-1.35a1.8 1.8 0 0 1 1.36-1.36c.16-.04.39-.05 1.35-.05.96 0 1.2.01 1.35.05.68.16 1.21.68 1.37 1.36.03.16.04.39.04 1.35 0 .96-.01 1.2-.04 1.35ZM20.92 15.05a3.353 3.353 0 0 0-2.5-2.5c-.36-.08-.8-.08-1.68-.08-.88 0-1.32 0-1.69.08l-.23.06c-1.13.35-2 1.27-2.26 2.44l-.03.14c-.06.34-.06.77-.06 1.54 0 .88 0 1.33.09 1.69l.06.23c.34 1.13 1.27 2 2.43 2.26.37.09.81.09 1.69.09.77 0 1.2 0 1.54-.06l.14-.03a3.308 3.308 0 0 0 2.44-2.26l.06-.23c.08-.36.08-.81.08-1.69 0-.88 0-1.32-.08-1.68Zm-1.47 3.03c-.15.68-.68 1.21-1.36 1.37-.16.03-.39.04-1.35.04-.96 0-1.2-.01-1.35-.04a1.84 1.84 0 0 1-1.37-1.37c-.03-.15-.04-.38-.04-1.35 0-.97.01-1.19.04-1.35.16-.68.69-1.2 1.37-1.36.15-.04.38-.05 1.35-.05.97 0 1.19.01 1.35.05a1.8 1.8 0 0 1 1.36 1.36c.04.16.05.39.05 1.35 0 .96-.01 1.2-.05 1.35ZM11.44 5.57a3.3 3.3 0 0 0-2.49-2.49C8.58 3 8.14 3 7.26 3c-.88 0-1.32 0-1.68.08l-.23.06c-1.13.35-2 1.27-2.27 2.43l-.02.15C3 6.06 3 6.49 3 7.26c0 .88 0 1.32.08 1.69l.06.23a3.326 3.326 0 0 0 2.44 2.26c.36.08.8.08 1.68.08.77 0 1.21 0 1.55-.05l.14-.03a3.312 3.312 0 0 0 2.43-2.26l.06-.23c.09-.37.09-.81.09-1.69 0-.88 0-1.32-.09-1.69ZM9.98 8.61c-.16.68-.69 1.21-1.37 1.36-.15.04-.38.05-1.35.05-.97 0-1.19-.01-1.35-.05-.68-.15-1.21-.68-1.36-1.36-.04-.16-.05-.39-.05-1.35 0-.96.01-1.19.05-1.35.15-.68.68-1.21 1.36-1.36.16-.04.39-.05 1.35-.05.96 0 1.2.01 1.35.05.68.15 1.21.68 1.37 1.36.03.16.04.39.04 1.35 0 .96-.01 1.19-.04 1.35ZM20.92 5.57a3.326 3.326 0 0 0-2.5-2.49C18.06 3 17.62 3 16.74 3c-.88 0-1.32 0-1.69.08l-.23.06c-1.13.35-2 1.27-2.26 2.43l-.03.15c-.06.34-.06.77-.06 1.54 0 .88 0 1.32.09 1.69l.06.23a3.312 3.312 0 0 0 2.43 2.26c.37.08.81.08 1.69.08.77 0 1.2 0 1.54-.05l.14-.03a3.326 3.326 0 0 0 2.44-2.26l.06-.23c.08-.37.08-.81.08-1.69 0-.88 0-1.32-.08-1.69Zm-1.47 3.04c-.15.68-.68 1.21-1.36 1.36-.16.04-.39.05-1.35.05-.96 0-1.2-.01-1.35-.05-.68-.15-1.21-.68-1.37-1.36-.03-.16-.04-.39-.04-1.35 0-.96.01-1.19.04-1.35.16-.68.69-1.21 1.37-1.36.15-.04.38-.05 1.35-.05.97 0 1.19.01 1.35.05.68.15 1.21.68 1.36 1.36.04.16.05.39.05 1.35 0 .96-.01 1.19-.05 1.35Z"/></g></svg>