<svg xmlns="http://www.w3.org/2000/svg" width="24" height="24" fill="none"><path fill="#28303F" d="M19.1 6.3c-1-.9-2.4-1.4-3.8-1.2l-3 .2h-.8L8.4 5c-1.4-.1-2.8.3-3.8 1.3C3.6 7.2 3 8.5 3 9.9v4.8c0 1.8 1.1 3.3 2.8 3.8.4.1.8.2 1.2.2 1.3 0 2.5-.6 3.2-1.7l.2-.3c.4-.6 1-.9 1.7-.9s1.3.4 1.6.9c.9 1.4 2.6 2.1 4.2 1.6s2.7-1.9 2.7-3.6V9.9c.2-1.4-.4-2.7-1.5-3.6Zm-8.8 5.6h-.8v.7c0 .5-.4.9-.9.9s-.8-.4-.8-.8v-.8h-.7c-.5 0-.9-.4-.9-.9s.4-.9.9-.9h.7v-.6c0-.5.4-.9.9-.9s.8.4.8.9v.7h.7c.5 0 .9.4.9.9s-.3.8-.8.8Zm4.8 1.2c-.4 0-.8-.4-.8-.8s.4-.8.8-.8.8.4.8.8-.4.8-.8.8Zm1.6-2.4c-.4 0-.8-.4-.8-.8s.4-.8.8-.8.8.4.8.8-.4.8-.8.8Z"/></svg>