<svg xmlns="http://www.w3.org/2000/svg" width="24" height="24" fill="none"><path fill="#28303F" d="M18.9 8h-1.6c.3-.5.4-1 .4-1.6V6c0-1.6-1.3-3-3-3-1.2 0-2.2.6-2.9 1.4C11.2 3.6 10.1 3 9 3 7.3 3 6 4.3 6 6v.4c0 .6.2 1.1.4 1.6H4.9C3.8 8 3 8.8 3 9.9v1c0 .7.4 1.3 1 1.6v7.4c0 1 .8 1.9 1.9 1.9h12c1 0 1.9-.8 1.9-1.9v-7.4c.6-.3 1-.9 1-1.6v-1c0-1.1-.9-1.9-1.9-1.9Zm-6.1-1.2c0-1.1.9-2 2-2 .7 0 1.2.5 1.2 1.2v.4c0 .9-.7 1.6-1.6 1.6h-1.6V6.8Zm-5-.8c0-.7.5-1.2 1.2-1.2 1.1 0 2 .9 2 2V8H9.4c-.9 0-1.6-.7-1.6-1.6V6Zm9.2 6.8h-4.2v6.4c0 .5-.4.9-.9.9s-.9-.5-.9-.9v-6.4H7c-.5 0-.9-.4-.9-.9s.4-.9.9-.9h10c.5 0 .9.4.9.9s-.4.9-.9.9Z"/></svg>