<svg xmlns="http://www.w3.org/2000/svg" width="24" height="24" fill="none"><g fill="#28303F"><path d="M8.3 3.6c.2-.4.3-.7.5-1.1-2.6.9-4.8 2.9-5.9 5.4h3.9c.4-1.6 1-3.1 1.5-4.3ZM6.3 12.1c0-.9.1-1.8.3-2.7H2.3c-.2.8-.3 1.7-.3 2.6 0 .8.1 1.6.3 2.4h4.1c-.1-.8-.1-1.5-.1-2.3ZM6.7 15.9H2.8c1.1 2.6 3.3 4.7 6 5.6-.1-.3-.3-.6-.4-.9-.7-1.4-1.3-3-1.7-4.7ZM8.2 15.9c.4 1.5.9 2.9 1.4 4.1.3.8.7 1.4 1 2H12c.5 0 .9 0 1.3-.1l1-2c.5-1.2 1.1-2.6 1.4-4.1H8.2v.1ZM15.7 20.5c-.1.3-.3.6-.4.9 2.7-.9 4.9-3 6-5.6h-3.9c-.5 1.8-1.1 3.4-1.7 4.7ZM21.7 9.4h-4.2c.2.9.3 1.8.3 2.7 0 .7-.1 1.5-.2 2.2h4.1c.2-.8.3-1.5.3-2.4 0-.8-.1-1.7-.3-2.5ZM17.2 7.9h3.9c-1.1-2.5-3.3-4.5-5.9-5.4.2.3.3.7.5 1.1.5 1.2 1.1 2.7 1.5 4.3ZM15.6 7.9c-.4-1.3-.8-2.6-1.3-3.7-.3-.8-.7-1.5-1-2.1-.4-.1-.9-.1-1.3-.1s-.9 0-1.3.1c-.3.6-.7 1.3-1 2.1-.5 1.1-1 2.4-1.3 3.7h7.2ZM7.8 12.1c0 .7.1 1.5.2 2.2h8.1c.1-.7.2-1.5.2-2.2 0-.9-.1-1.8-.3-2.7H8c-.1.9-.2 1.8-.2 2.7Z"/></g></svg>