<svg xmlns="http://www.w3.org/2000/svg" width="24" height="24" fill="none"><path fill="#28303F" fill-rule="evenodd" d="M11.1 3.9c.4-.1.8-.1 1.3-.1.4 0 .9 0 1.3.1 0 0 0 .1.1.1l.1-.1-.2.1c.1.1.2.2.3.4.3.4.6.9 1 1.6.3.6.6 1.3.8 2.1H8.8c.2-.8.5-1.5.8-2.1.4-.7.7-1.3 1-1.6.1-.2.2-.3.3-.4l.1-.1V4l.1-.1Zm-2.8 1c-1.4.8-2.6 2-3.4 3.4H7c.3-1.1.7-2.1 1.1-2.9.1-.2.2-.4.2-.5ZM4.1 10c-.2.8-.4 1.6-.4 2.4 0 .8.1 1.6.4 2.4h2.5c-.1-.7-.2-1.5-.2-2.4 0-.9.2-1.6.3-2.4H4.1Zm.8 6.5c.8 1.4 2 2.6 3.4 3.4-.1-.2-.2-.3-.2-.5-.4-.8-.8-1.8-1.1-2.9H4.9Zm6.2 4.4c.4.1.8.1 1.3.1.4 0 .9 0 1.3-.1l.1-.1s0-.1.1-.1c.1-.1.2-.2.3-.4.3-.4.6-.9 1-1.6.3-.6.6-1.3.8-2.1H8.8c.2.8.5 1.5.8 2.1.4.7.7 1.3 1 1.6.1.2.2.3.3.4l.1.1c.1 0 .1.1.1.1Zm5.3-1c1.4-.8 2.6-2 3.4-3.4h-2.1c-.3 1.1-.7 2.1-1.1 2.9 0 .2-.1.3-.2.5Zm4.2-5.2c.2-.8.4-1.6.4-2.4 0-.8-.1-1.6-.4-2.4h-2.5c.1.7.2 1.5.2 2.4 0 .9-.1 1.6-.2 2.4h2.5Zm-.8-6.4c-.8-1.4-2-2.6-3.4-3.4.1.2.2.3.2.5.4.8.8 1.8 1.1 2.9h2.1ZM12.4 2C6.9 2 2 6.9 2 12.4s4.9 10.4 10.4 10.4 10.4-4.9 10.4-10.4S17.8 2 12.4 2ZM8.3 12.4c0-.8.1-1.6.2-2.4h7.9c.1.7.2 1.5.2 2.4 0 .9-.1 1.6-.2 2.4h-8c-.1-.8-.1-1.6-.1-2.4Z" clip-rule="evenodd"/></svg>