<svg xmlns="http://www.w3.org/2000/svg" width="24" height="24" fill="none"><path fill="#28303F" d="M21 13.88a.94.94 0 0 0-.15-.49c-.11-2.43-.99-4.71-2.54-6.46C16.66 5.07 14.36 4 12 4 9.64 4 7.34 5.07 5.69 6.93c-1.55 1.74-2.44 4.02-2.54 6.46-.09.14-.15.3-.15.49v3c0 .17.05.32.13.46v.54c0 1.58 1.29 2.88 2.88 2.88a2.88 2.88 0 0 0 2.88-2.88v-3A2.896 2.896 0 0 0 6 12c-.34 0-.66.07-.96.18.29-1.54.97-2.97 1.96-4.09 1.34-1.51 3.12-2.34 5-2.34s3.66.83 5 2.34c.99 1.11 1.67 2.55 1.96 4.08-.3-.1-.62-.17-.96-.17-1.58 0-2.88 1.29-2.88 2.88v3c0 1.58 1.29 2.88 2.88 2.88a2.88 2.88 0 0 0 2.88-2.88v-.54c.07-.14.13-.29.13-.46v-3H21Z"/></svg>