<svg xmlns="http://www.w3.org/2000/svg" width="24" height="24" fill="none"><path fill="#28303F" d="M11.88 20.75c-.09 0-.18-.01-.27-.03-.38-.08-.62-.3-.92-.59l-6.81-6.55a6.155 6.155 0 0 1-.63-8.16l.3-.4c1.09-1.44 2.79-2.18 4.57-1.99 1.57.17 2.93 1.03 3.76 2.36a5.04 5.04 0 0 1 8.32-.37l.3.4c1.89 2.49 1.62 6-.63 8.16l-6.81 6.55c-.3.29-.54.52-.93.59-.07.02-.16.03-.25.03Zm-4.29-16c-1.03 0-1.99.48-2.63 1.33l-.3.4a4.397 4.397 0 0 0 .44 5.84l6.79 6.53 6.79-6.53c1.61-1.54 1.8-4.06.45-5.84l-.3-.4a3.283 3.283 0 0 0-2.98-1.31c-1.17.12-2.17.85-2.68 1.94-.23.5-.72.81-1.27.81s-1.05-.31-1.29-.81C10.1 5.62 9.1 4.89 7.94 4.77c-.12-.01-.24-.02-.35-.02Z"/></svg>