<svg xmlns="http://www.w3.org/2000/svg" width="24" height="24" fill="none"><path fill="#28303F" fill-rule="evenodd" d="M10.4 5.2c-.6.4-1.4 1-2.5 1.8l-1.1.8c-.6.4-1 .8-1.3 1-.3.3-.4.5-.5.6-.2.4-.2.8-.2 2.3v4.2c0 1 0 1.6.1 2.1.1.4.2.6.3.7.1.1.4.2.9.3h2v-4.1c0-.5.2-1 .6-1.4.5-.3 1-.5 1.5-.5h3.4c.5 0 1 .2 1.4.5.4.3.6.8.6 1.4V19c.9 0 1.6 0 2.1-.1s.8-.2.9-.3c.1-.1.2-.3.3-.7.1-.5.1-1.1.1-2.1v-4.1c0-1.4 0-1.9-.2-2.2-.1-.2-.2-.3-.5-.6s-.7-.6-1.3-1L15.8 7c-1.1-.8-1.8-1.4-2.5-1.7-.6-.4-1-.5-1.5-.5-.4 0-.8.1-1.4.4ZM13.9 19v-4.1s-.1-.1-.2-.1h-3.5c-.1 0-.2 0-.2.1V19h3.9Zm1.5 1.8c1 0 1.9 0 2.6-.1.7-.1 1.3-.3 1.9-.7.5-.5.8-1.1.9-1.7.1-.6.1-1.4.1-2.3v-4.5c0-1.2 0-2.1-.4-2.9-.2-.4-.5-.8-.9-1.1-.4-.3-.8-.7-1.4-1.1L17 5.5h-.1c-1-.8-1.9-1.4-2.6-1.8-.8-.4-1.6-.7-2.4-.7-.9 0-1.6.3-2.4.7C8.8 4.1 8 4.8 7 5.5h-.1l-1.2.9c-.6.4-1 .8-1.4 1.1-.4.4-.7.7-.9 1.1-.4.8-.4 1.7-.4 2.9V16c0 .9 0 1.6.1 2.3.1.6.3 1.2.9 1.7.5.5 1.2.6 1.9.7.7.1 1.5.1 2.6.1h6.9Z" clip-rule="evenodd"/></svg>