<svg xmlns="http://www.w3.org/2000/svg" width="24" height="24" fill="none"><g fill="#28303F" fill-rule="evenodd" clip-rule="evenodd"><path d="M20.3 8.6c-.2-.4-.5-.8-.9-1.1-.4-.3-.8-.7-1.4-1.1l-1.2-.9h-.1c-1-.8-1.9-1.4-2.6-1.8-.6-.4-1.4-.7-2.2-.7-.9 0-1.6.3-2.4.7C8.8 4.1 8 4.8 7 5.5h-.1l-1.2.9c-.6.4-1 .8-1.4 1.1-.4.4-.7.7-.9 1.1-.4.8-.4 1.7-.4 2.9V16c0 .9 0 1.6.1 2.3.1.6.3 1.2.9 1.7.5.5 1.2.6 1.9.7.6.1 1.4.1 2.3.1V15c0-1.1.8-2 1.9-2h3.6c1.1 0 1.9.9 1.9 1.9v5.8c.9 0 1.7 0 2.3-.1.7-.1 1.3-.3 1.9-.7.5-.5.8-1.1.9-1.7.1-.6.1-1.4.1-2.3v-4.4c0-1.2 0-2.1-.5-2.9Z"/><path d="M13.7 14.8h-3.6c-.1 0-.2.1-.2.2v5.8h3.9V15c.1-.2 0-.2-.1-.2Z"/></g></svg>