<svg xmlns="http://www.w3.org/2000/svg" width="24" height="24" fill="none"><g fill="#28303F"><path d="m19.27 5.73-5.41-3.22a3.67 3.67 0 0 0-3.72-.01L4.75 5.68A3.52 3.52 0 0 0 3 8.7v6.59c0 1.23.67 2.39 1.75 3.03l5.4 3.18c.57.33 1.21.5 1.85.5.64 0 1.28-.17 1.85-.5l5.4-3.18A3.523 3.523 0 0 0 21 15.29V8.75c0-1.23-.66-2.38-1.73-3.02Zm-.02 9.56c0 .62-.34 1.2-.88 1.52l-5.4 3.18c-.6.35-1.33.35-1.93 0l-5.4-3.18c-.55-.32-.89-.9-.89-1.52V8.7c0-.62.34-1.2.89-1.52l5.39-3.17c.3-.18.63-.26.96-.26.34 0 .67.09.97.27l5.41 3.22c.55.33.88.89.88 1.51v6.54Z"/><path d="M17.06 7.92 13 5.58c-.62-.36-1.38-.36-2 0L6.94 7.92c-.62.36-1 1.02-1 1.73v4.69c0 .71.38 1.38 1 1.73L11 18.43c.31.18.65.27 1 .27s.69-.09 1-.27l4.06-2.35c.62-.36 1-1.02 1-1.73V9.66c0-.72-.38-1.38-1-1.74Zm-.5 6.43c0 .18-.1.34-.25.43l-4.06 2.34c-.15.09-.35.09-.5 0l-4.06-2.35a.504.504 0 0 1-.25-.43V9.66c0-.18.1-.34.25-.43l4.06-2.35c.08-.05.16-.07.25-.07s.17.02.25.07l4.06 2.35c.15.09.25.25.25.43v4.69Z"/></g></svg>