<svg xmlns="http://www.w3.org/2000/svg" width="24" height="24" fill="none"><g fill="#28303F"><path d="M10.7 13c-.3-.5-.9-.8-1.5-.8H5.5c-.6 0-1.2.3-1.5.8l-1.8 3.2c-.3.5-.3 1.2 0 1.7L4 21.1c.3.5.9.8 1.5.8h3.7c.6 0 1.2-.3 1.5-.8l1.8-3.2c.3-.5.3-1.2 0-1.7L10.7 13Z"/><path d="M20.8 9.9 19 6.7c-.3-.5-.9-.8-1.5-.8H13.6l-1.8-3c-.2-.6-.8-.9-1.4-.9H6.7c-.6 0-1.1.3-1.4.8L3.4 6c-.3.5-.3 1.2 0 1.7l1.8 3.2c.3.5.9.8 1.5.8H10.6l1.8 3c.3.5.9.8 1.5.8h3.7c.6 0 1.2-.3 1.5-.8l1.8-3.2c.2-.4.2-1.1-.1-1.6ZM8 9.7h-.4c-.3 0-.6-.1-.7-.4l-.6-1.1c-.2-.4-.1-.9.3-1.1.4-.2.9-.1 1.1.3l.6 1.2c.2.4 0 .9-.3 1.1Z"/></g></svg>