<svg xmlns="http://www.w3.org/2000/svg" width="24" height="24" fill="none"><g fill="#28303F"><path d="M12.25 6.88a.451.451 0 0 0-.25-.07c-.09 0-.17.02-.25.07L7.69 9.22c-.16.09-.25.26-.25.43v4.69c0 .18.1.34.25.43l4.06 2.35c.15.09.35.09.5 0l4.06-2.34c.15-.09.25-.25.25-.43v-4.7c0-.18-.1-.34-.25-.43l-4.06-2.34Z"/><path d="m19.27 5.73-5.41-3.22a3.67 3.67 0 0 0-3.72-.01L4.75 5.67A3.514 3.514 0 0 0 3 8.7v6.59c0 1.24.66 2.39 1.75 3.03l5.4 3.18c1.14.67 2.56.67 3.7 0l5.4-3.18A3.535 3.535 0 0 0 21 15.29V8.75c0-1.24-.66-2.38-1.73-3.02Zm-1.21 8.62c0 .71-.38 1.38-1 1.73L13 18.42c-.31.18-.65.27-1 .27s-.69-.09-1-.27l-4.06-2.35c-.62-.36-1-1.02-1-1.73V9.65c0-.71.38-1.38 1-1.73L11 5.58c.62-.36 1.38-.36 2 0l4.06 2.35c.62.36 1 1.02 1 1.73v4.69Z"/></g></svg>