<svg xmlns="http://www.w3.org/2000/svg" width="24" height="24" fill="none"><path fill="#FFC800" d="M4.75 18.32A3.514 3.514 0 0 1 3 15.29V8.7c0-1.24.66-2.39 1.75-3.03l5.39-3.17a3.67 3.67 0 0 1 3.72.01l5.41 3.22C20.34 6.37 21 7.51 21 8.75v6.54c0 1.24-.66 2.39-1.75 3.03l-5.4 3.18c-1.14.67-2.56.67-3.7 0l-5.4-3.18Z"/><path fill="#FFA250" d="M12 18.69c-.35 0-.69-.09-1-.27l-4.06-2.35c-.62-.36-1-1.02-1-1.73V9.65c0-.71.38-1.38 1-1.73L11 5.58c.62-.36 1.38-.36 2 0l4.06 2.35c.62.36 1 1.02 1 1.73v4.69c0 .71-.38 1.38-1 1.73L13 18.42c-.31.18-.65.27-1 .27Zm0-11.88c-.09 0-.17.02-.25.07L7.69 9.22c-.16.09-.25.26-.25.43v4.69c0 .18.1.34.25.43l4.06 2.35c.15.09.35.09.5 0l4.06-2.34c.15-.09.25-.25.25-.43v-4.7c0-.18-.1-.34-.25-.43l-4.06-2.34a.451.451 0 0 0-.25-.07Z"/></svg>