<svg xmlns="http://www.w3.org/2000/svg" width="24" height="24" fill="none"><g fill="#28303F"><path d="M20.8 9.9 19 6.7c-.3-.5-.9-.8-1.5-.8H13.6l-1.8-3c-.2-.6-.8-.9-1.4-.9H6.7c-.6 0-1.1.3-1.4.8L3.4 6c-.3.5-.3 1.2 0 1.7l1.8 3.2c.3.5.9.8 1.5.8H10.6l1.8 3c.3.5.9.8 1.5.8h3.7c.6 0 1.2-.3 1.5-.8l1.8-3.2c.2-.4.2-1.1-.1-1.6Zm-14.2.2L4.8 6.9v-.1l1.8-3.2.1-.1h3.7s.1 0 .1.1l1.8 3.2-1.8 3.1c0 .1 0 .1-.1.2H6.6c.1 0 .1 0 0 0Zm12.8.7L17.6 14l-.1.1h-3.7s-.1 0-.1-.1l-1.8-3.2 1.8-3.1c0-.1.1-.2.1-.2h3.7s.1 0 .1.1l1.8 3.2c0-.1 0-.1 0 0Z"/><path d="M10.7 13c-.3-.5-.9-.8-1.5-.8H5.5c-.6 0-1.2.3-1.5.8l-1.8 3.2c-.3.5-.3 1.2 0 1.7L4 21.1c.3.5.9.8 1.5.8h3.7c.6 0 1.2-.3 1.5-.8l1.8-3.2c.3-.5.3-1.2 0-1.7L10.7 13Zm.4 4.1-1.8 3.2-.1.1H5.5s-.1 0-.1-.1l-1.8-3.2V17l1.8-3.2.1-.1h3.7s.1 0 .1.1l1.8 3.2v.1ZM7.7 7.4c-.2-.4-.7-.5-1.1-.3-.4.2-.5.7-.3 1.1l.6 1.2c.1.2.4.3.7.3.1 0 .2 0 .4-.1.3-.1.5-.6.3-1l-.6-1.2Z"/></g></svg>