<svg xmlns="http://www.w3.org/2000/svg" width="24" height="24" fill="none"><g fill="#28303F"><path d="M19.21 6.85H12.1c-.54 0-.98.44-.98.98v5.7H3.75V5.88c0-.49-.39-.88-.87-.88S2 5.39 2 5.88v12.31c0 .48.39.88.88.88s.88-.39.88-.88v-2.9h16.49v2.9c0 .48.39.88.88.88s.88-.39.88-.88V9.63c-.02-1.53-1.27-2.78-2.8-2.78ZM12.87 8.6h6.34c.57 0 1.03.46 1.03 1.03v3.91h-7.37V8.6Z"/><path d="M7.49 12.62c1.62 0 2.93-1.31 2.93-2.93S9.11 6.76 7.49 6.76 4.56 8.08 4.56 9.69c0 1.62 1.32 2.93 2.93 2.93Zm0-4.11c.65 0 1.18.53 1.18 1.18 0 .65-.53 1.18-1.18 1.18-.65 0-1.18-.53-1.18-1.18 0-.65.53-1.18 1.18-1.18Z"/></g></svg>