<svg xmlns="http://www.w3.org/2000/svg" width="24" height="24" fill="none"><g fill="#28303F"><path d="M20.85 6.61c-.15-1.15-.46-1.87-1.02-2.44-.57-.56-1.29-.87-2.44-1.03C16.3 3 14.92 3 13 3h-2c-1.92 0-3.3 0-4.39.15-1.14.15-1.87.46-2.44 1.02-.56.57-.87 1.3-1.02 2.44C3 7.7 3 9.08 3 11v2c0 1.92 0 3.3.15 4.39.15 1.15.46 1.88 1.03 2.44.56.56 1.29.87 2.44 1.02C7.7 21 9.08 21 11 21h2c1.92 0 3.3 0 4.39-.15 1.14-.15 1.87-.46 2.44-1.03.56-.57.87-1.29 1.02-2.44C21 16.3 21 14.92 21 13v-2c0-1.92 0-3.3-.15-4.39ZM4.75 11c0-1.78 0-3.18.13-4.16.12-.92.34-1.24.53-1.43.19-.19.51-.41 1.43-.53.98-.13 2.38-.13 4.16-.13h2c1.78 0 3.18 0 4.16.13.92.12 1.24.34 1.43.53.19.19.4.51.53 1.44.13.97.13 2.38.13 4.16v2c0 1.29 0 2.37-.05 3.24-.17-.07-.75-.44-.87-.55-.16-.16-.33-.34-.5-.52-.55-.59-.88-.93-1.19-1.08-.7-.35-1.39-.36-2.04-.02-.31.16-.66.5-1.39 1.25l-.5.5c-.19.18-.41.16-.5.14a.608.608 0 0 1-.43-.36l-.04-.11c-.17-.4-.29-.7-.39-.95-.24-.59-.38-.92-.68-1.38l-.07-.11c-.35-.5-.99-1.45-2.25-1.27-.84.11-1.56.87-2.38 1.75l-.66.69-.55.51c-.01-.53-.01-1.1-.01-1.74v-2Zm12.41 8.12c-.97.13-2.38.13-4.16.13h-2c-1.78 0-3.18 0-4.16-.13-.92-.12-1.24-.34-1.43-.53-.19-.19-.41-.51-.53-1.43-.01-.04-.01-.09-.01-.12l1.65-1.54c.25-.25.49-.5.72-.75.44-.46 1.1-1.17 1.35-1.22.14-.01.21.02.54.52l.08.12c.2.3.29.5.51 1.05.1.25.23.57.41.98l.06.14a2.322 2.322 0 0 0 3.79.71l.48-.49c.3-.31.81-.83.94-.92.17-.09.28-.06.41.01.13.09.5.48.74.74.18.19.37.39.54.56.25.25 1.18.85 1.55.97.12.04.2.07.28.1-.1.3-.22.47-.33.58-.19.18-.51.4-1.43.52Z"/><path d="M15 11a2 2 0 1 0 0-4 2 2 0 0 0 0 4Z"/></g></svg>