<svg xmlns="http://www.w3.org/2000/svg" width="24" height="24" fill="none"><path fill="#28303F" d="M13.26 3v4.07c0 1.37 1.07 2.48 2.38 2.48h3.12v7.13c0 2.25-1.74 4.08-3.88 4.08h-6C6.74 20.76 5 18.93 5 16.68v-9.6C5 4.83 6.74 3 8.88 3h4.38Zm1.88 10.33c-.23 0-.45.04-.65.12-.2.08-.38.2-.53.36-.15.16-.27.35-.35.58-.09.22-.13.48-.13.77 0 .37.07.7.21.97.14.27.34.48.59.63.25.15.55.22.88.22.3 0 .56-.06.79-.18.24-.12.42-.29.55-.52.13-.22.2-.49.2-.8v-.45h-1.49v.56h.76c0 .15-.03.27-.09.38a.68.68 0 0 1-.28.25c-.12.06-.27.1-.44.1-.18 0-.35-.05-.49-.14a.849.849 0 0 1-.31-.4c-.08-.17-.12-.38-.12-.63s.04-.46.12-.63c.07-.17.18-.3.32-.39.13-.09.29-.14.48-.14.09 0 .18.01.26.04.08.02.15.06.22.1.06.05.11.11.16.17.04.07.08.14.1.23h.76c-.02-.18-.07-.34-.16-.49-.09-.14-.2-.27-.33-.38-.14-.1-.29-.19-.46-.24-.18-.06-.37-.09-.57-.09Zm-7.44.05v3.55h.75v-3.55H7.7Zm1.37 0v3.55h.73v-2.32h.03l.92 2.3h.49l.92-2.29h.03v2.31h.73v-3.55H12l-.98 2.39h-.04L10 13.38h-.93Zm5.95-9.73c.08.08.17.16.25.26l2.95 3.78c.029.04.068.106.07.11h-2.65c-.35 0-.63-.33-.63-.73h.01V3.65Z"/></svg>