<svg xmlns="http://www.w3.org/2000/svg" width="32" height="32" fill="none"><path fill="#28303F" fill-rule="evenodd" d="M16.72 4c3.6 0 5.573 0 6.973 1.667C25 7.24 25 9.4 25 13.693v4.267c0 4.293 0 6.453-1.307 8.026-1.4 1.68-3.373 1.681-6.973 1.681h-1.774c-3.6 0-5.573 0-6.96-1.667-1.32-1.573-1.319-3.733-1.319-8.04v-4.267c0-4.293 0-6.453 1.307-8.026C9.374 4 11.347 4 14.946 4h1.774Zm-1.774 2.333c-3.186 0-4.506.027-5.173.827C9 8.08 9 10.08 9 13.693v4.267c0 3.613 0 5.613.773 6.533.667.814 1.987.84 5.173.84h1.774c3.186 0 4.507-.026 5.174-.826.773-.934.773-2.92.773-6.547v-4.267c0-3.613 0-5.613-.773-6.533-.667-.8-1.988-.827-5.174-.827h-1.774ZM19.76 18.04c.24 0 .467.04.667.107.2.066.387.16.547.293.16.12.293.28.399.454.093.173.16.36.187.573h-.907a.814.814 0 0 0-.12-.267.668.668 0 0 0-.186-.2 1.525 1.525 0 0 0-.253-.134 1.178 1.178 0 0 0-.32-.039c-.214 0-.401.053-.561.16-.173.106-.293.266-.386.466a1.826 1.826 0 0 0-.134.747c0 .293.04.546.134.746.093.214.213.374.373.48.174.107.36.16.587.16.2 0 .373-.039.52-.105.133-.08.253-.175.32-.308a.84.84 0 0 0 .12-.44h-.907v-.68h1.76v.534c0 .373-.08.693-.227.96-.16.266-.373.466-.653.613-.267.147-.587.213-.947.213a2.08 2.08 0 0 1-1.04-.267 1.789 1.789 0 0 1-.693-.746c-.173-.32-.253-.707-.253-1.147 0-.347.053-.654.147-.92.106-.267.24-.493.426-.68.174-.186.387-.333.626-.427.24-.093.494-.146.774-.146Zm-7.933 4.28h-.893v-4.226h.893v4.226Zm3-1.386h.04l1.16-2.84h1.107v4.226h-.867v-2.747h-.04l-1.093 2.72h-.587l-1.08-2.733h-.04v2.76h-.867v-4.226h1.093l1.174 2.84ZM13.813 10.76a.693.693 0 0 1 1.04 0l2.28 2.747.6-.587.107-.093a.683.683 0 0 1 .893.16l1.453 1.947A.663.663 0 0 1 19.653 16h-7.906v-.014a.66.66 0 0 1-.56-1.012l2.586-4.147.04-.067Zm4.427-1.427c.107 0 .214.013.307.04v.014c.12.026.24.093.347.173.001 0 .012 0 .012.013.054.04.134.134.134.134.04.04.08.093.107.147h.013l.08.16c0 .013.013.013.013.026.013.053.04.12.054.173.013.08.013.147.013.214 0 .106-.013.213-.04.32-.026.067-.04.12-.067.16 0 .012-.013.026-.013.04-.026.053-.067.107-.094.147-.013.013-.012.026-.012.026l-.12.12c-.018.01-.028.013-.028.013a3.419 3.419 0 0 1-.133.12l-.026.014c-.052.025-.154.064-.16.066l-.027.014a.378.378 0 0 1-.16.053c-.08.013-.147.027-.227.013h-.12c-.053 0-.12-.026-.173-.026 0-.014-.014-.014-.014-.014-.053-.013-.106-.026-.159-.053-.013 0-.027-.013-.027-.013a1.485 1.485 0 0 1-.147-.08h-.013a1.153 1.153 0 0 1-.347-.413s0-.014-.013-.028c-.013-.04-.053-.146-.053-.146h.027c0-.013 0-.027-.014-.027-.026-.093-.026-.186-.026-.293 0-.613.493-1.107 1.106-1.107Z" clip-rule="evenodd"/></svg>