<svg xmlns="http://www.w3.org/2000/svg" width="32" height="32" fill="none"><path fill="#28303F" d="M23.693 5.667C22.293 4 20.32 4 16.72 4h-1.773c-3.6 0-5.574 0-6.96 1.667-1.32 1.573-1.32 3.733-1.32 8.026v4.267c0 4.293 0 6.453 1.306 8.027 1.387 1.666 3.374 1.666 6.96 1.666h1.773c3.6 0 5.574 0 6.96-1.666 1.307-1.574 1.307-3.734 1.307-8.027v-4.267C25 9.4 25 7.24 23.693 5.667ZM18.2 9.333c.107 0 .213.014.32.04.133.04.24.107.346.174l.027.026s.08.067.12.12h.027c.027.04.067.094.093.134.014.013.014.026.027.026l.08.16v.027s.04.12.053.173c.014.067.027.147.027.214v.12s-.027.133-.053.186a.907.907 0 0 1-.174.36h-.013c-.04.054-.08.094-.12.134 0 .013-.014.013-.014.013a.937.937 0 0 1-.133.107c-.013.013-.026.013-.04.026-.053.027-.093.054-.146.08h-.04s-.094.04-.16.054a1.014 1.014 0 0 1-.507-.013c-.013-.014-.027-.014-.027-.014a.752.752 0 0 1-.16-.053h-.027a.48.48 0 0 1-.133-.094h-.026a1.267 1.267 0 0 1-.334-.413c-.013 0-.013-.013-.013-.027-.027-.04-.04-.093-.067-.146v-.027a1.104 1.104 0 0 1 1.067-1.4v.013Zm-6.933 13.24h-1V17.84h1v4.733Zm-.094-7.586 2.587-4.147.053-.067a.669.669 0 0 1 1.027-.013l2.293 2.747.587-.587.12-.093c.28-.174.68-.12.893.16l1.453 1.946c.32.44.014 1.067-.533 1.067h-7.92a.66.66 0 0 1-.56-1.013Zm6.054 7.586h-.974v-3.08h-.04l-1.227 3.067h-.653l-1.226-3.08h-.04v3.093h-.974V17.84h1.227l1.306 3.187h.054l1.306-3.187h1.24v4.733Zm5.04-1.933c0 .413-.094.773-.267 1.067a1.75 1.75 0 0 1-.733.693c-.307.16-.654.24-1.054.24-.453 0-.84-.093-1.173-.293-.334-.2-.6-.48-.787-.84-.186-.36-.28-.8-.28-1.294 0-.386.053-.733.16-1.026.12-.307.28-.56.48-.774.2-.213.44-.373.707-.48.267-.106.56-.16.866-.16.267 0 .52.04.747.12.24.067.44.187.627.32.173.147.32.32.44.507.107.2.186.413.213.653H21.2c-.027-.12-.08-.213-.133-.306-.067-.08-.134-.16-.214-.214a.867.867 0 0 0-.293-.146 1.021 1.021 0 0 0-.36-.054c-.24 0-.453.067-.627.187-.186.12-.333.293-.427.52-.106.227-.16.507-.16.84 0 .333.054.613.147.84.107.24.254.413.427.533.187.12.4.187.653.187.227 0 .427-.04.587-.12.16-.093.28-.2.373-.347a1 1 0 0 0 .12-.493H20.28v-.76h1.986v.6Z"/></svg>