<svg xmlns="http://www.w3.org/2000/svg" width="24" height="24" fill="none"><path fill="#28303F" d="M13.43 3c.72 0 1.39.33 1.84.91l2.95 3.78c.34.44.53 1 .53 1.56v7.42c0 2.25-1.74 4.08-3.87 4.08h-6C6.74 20.75 5 18.92 5 16.67v-9.6C5 4.83 6.74 3 8.88 3h4.55ZM8.88 4.75c-1.17 0-2.13 1.04-2.13 2.33v9.6c0 1.28.95 2.32 2.13 2.32h6c1.17 0 2.13-1.04 2.13-2.33V9.55h-1.38c-1.31 0-2.38-1.11-2.38-2.47V4.75H8.88Zm5.938 8.781c.18 0 .346.027.5.08.155.05.292.123.412.218s.218.207.294.338c.076.13.125.273.147.43h-.68a.696.696 0 0 0-.09-.2.617.617 0 0 0-.335-.243.81.81 0 0 0-.237-.032.76.76 0 0 0-.426.12.792.792 0 0 0-.284.35 1.37 1.37 0 0 0-.101.56c0 .22.032.408.1.562a.786.786 0 0 0 .283.353c.123.08.268.12.434.12.151 0 .28-.026.388-.08a.577.577 0 0 0 .247-.23.674.674 0 0 0 .086-.33h-.679v-.503H16.2v.398c0 .278-.058.517-.176.716-.117.199-.28.352-.485.46-.206.107-.442.16-.707.16-.296 0-.556-.065-.78-.196a1.36 1.36 0 0 1-.526-.56 1.874 1.874 0 0 1-.186-.864c0-.256.037-.485.111-.685.075-.202.18-.373.315-.513.134-.14.291-.246.47-.32a1.53 1.53 0 0 1 .582-.109Zm-5.95 3.204H8.2v-3.16h.668v3.16Zm2.245-1.037h.037l.87-2.124h.825v3.161h-.649v-2.057h-.026l-.818 2.042h-.44l-.82-2.05h-.026v2.065h-.648v-3.16h.824l.871 2.123ZM15 7.08c0 .4.28.72.63.72h.46L15 6.42v.66Z"/></svg>