<svg xmlns="http://www.w3.org/2000/svg" width="24" height="24" fill="none"><g fill="#28303F"><path d="M21 14v4c0 1.57-1.28 2.85-2.85 2.85H5.85C4.27 20.85 3 19.57 3 18v-4c0-1.57 1.27-2.85 2.85-2.85h4.3v1.62c-.47-.18-1.01-.15-1.46.08-.18.07-.35.19-.5.34-.35.35-.54.82-.54 1.31 0 .49.19.96.54 1.31l2.5 2.5c.36.36.83.54 1.31.54.48 0 .94-.18 1.3-.54l2.5-2.5c.35-.35.55-.82.55-1.31 0-.49-.2-.96-.55-1.31-.14-.14-.31-.26-.49-.34-.45-.23-.99-.26-1.46-.08v-1.62h4.3c1.57 0 2.85 1.28 2.85 2.85Z"/><path d="M15.35 14.5c0 .23-.09.44-.25.6l-2.5 2.5c-.34.33-.88.33-1.21 0l-2.5-2.5a.83.83 0 0 1-.24-.6c0-.23.08-.44.24-.6.17-.17.39-.25.61-.25.22 0 .43.08.6.25l1.05 1.05V6a.85.85 0 1 1 1.7 0v8.95l1.04-1.05c.34-.33.87-.33 1.21 0 .16.16.25.37.25.6Z"/></g></svg>