<svg xmlns="http://www.w3.org/2000/svg" width="24" height="24" fill="none"><path fill="#28303F" d="M6.9 16.8c-1.3 0-2.5-.5-3.4-1.4-1-1-1.5-2.2-1.5-3.5C2 9.2 4.2 7 6.9 7c2.5 0 4.1 1.7 5 3 .9-1.3 2.5-3 5-3 2.7 0 4.9 2.2 4.9 4.9 0 1.2-.5 2.4-1.5 3.4-.9.9-2.2 1.5-3.4 1.5-2.6 0-4.2-1.5-5.1-2.9-.9 1.2-2.5 2.8-4.9 2.9Zm0-8c-1.7 0-3.1 1.4-3.1 3.1 0 .8.3 1.6.9 2.2.6.6 1.3.9 2.2.9 2.3 0 3.6-2.3 4-3.1-.4-.9-1.7-3.1-4-3.1Zm5.9 3.1c.3.8 1.3 3.1 4.1 3.1.8 0 1.5-.4 2.2-1 .6-.6 1-1.4 1-2.1 0-1.7-1.4-3.1-3.1-3.1-2.5 0-3.8 2.3-4.2 3.1Z"/></svg>