<svg xmlns="http://www.w3.org/2000/svg" width="32" height="32" fill="none"><path fill="#28303F" fill-rule="evenodd" d="M16.72 4c3.586 0 5.56 0 6.96 1.667C24.986 7.24 25 9.4 24.974 13.693v4.267c0 4.293 0 6.453-1.307 8.026-1.387 1.667-3.36 1.667-6.96 1.667h-1.773c-3.587 0-5.574 0-6.96-1.667-1.307-1.573-1.307-3.733-1.307-8.026v-4.267c0-4.293 0-6.453 1.32-8.026C9.372 4 11.346 4 14.946 4h1.773Zm-5.28 14.453v2.267a.51.51 0 0 1-.053.254.34.34 0 0 1-.147.16c-.053.04-.133.052-.226.052a.51.51 0 0 1-.214-.04.425.425 0 0 1-.16-.146.505.505 0 0 1-.053-.213h-.72a.79.79 0 0 0 .147.533.798.798 0 0 0 .4.32c.172.066.36.093.572.093.227 0 .44-.04.614-.12.173-.08.32-.2.414-.36.106-.147.146-.334.146-.533v-2.267h-.72Zm8.907-.053c-.227 0-.44.04-.64.12-.2.08-.374.187-.52.334a1.322 1.322 0 0 0-.347.519c-.08.2-.12.44-.12.707 0 .333.067.64.2.88.147.253.333.44.587.573.24.133.533.2.853.2.294 0 .547-.053.774-.16.226-.106.4-.267.533-.467.133-.213.2-.453.2-.733v-.413h-1.454v.52h.747a.704.704 0 0 1-.106.334.525.525 0 0 1-.267.24c-.12.053-.253.08-.427.08a.87.87 0 0 1-.466-.12.925.925 0 0 1-.32-.36 1.54 1.54 0 0 1-.107-.588c0-.226.04-.413.106-.573.08-.16.187-.28.32-.36.134-.08.28-.12.467-.12.093 0 .173.014.253.04.08.014.148.053.214.093s.12.094.16.147c.039.066.091.196.093.2h.747a1.245 1.245 0 0 0-.16-.44 1.308 1.308 0 0 0-.32-.346 1.294 1.294 0 0 0-.453-.214 1.473 1.473 0 0 0-.547-.093Zm-7.574.053v3.24h.734V20.64h.613c.267 0 .493-.04.68-.133a1.13 1.13 0 0 0 .44-.387c.094-.16.147-.36.147-.573 0-.213-.053-.4-.147-.56a1.03 1.03 0 0 0-.427-.4 1.49 1.49 0 0 0-.667-.134h-1.373Zm3.093 0v3.24H18.2v-.56h-1.6v-.773h1.48v-.573H16.6v-.773h1.6v-.56h-2.334Zm-1.866.56c.147 0 .253.027.347.067.093.04.173.107.213.187a.621.621 0 0 1 0 .56c-.04.093-.12.146-.213.2-.08.04-.2.067-.347.067h-.493v-1.08H14Zm.84-8.253a.669.669 0 0 0-1.027.013l-.053.067-2.587 4.146a.661.661 0 0 0 .56 1.014h7.92c.547 0 .853-.626.534-1.066l-1.467-1.948a.668.668 0 0 0-.88-.159l-.12.093-.586.587-2.294-2.747Zm3.365-1.427a1.105 1.105 0 0 0-1.058 1.4v.027c.013.053.04.106.066.146 0 .013 0 .027.014.028a1.117 1.117 0 0 0 .48.506h.026c.054.027.107.04.16.053.002 0 .015.002.027.014.093.027.187.04.28.04.08 0 .16-.014.227-.027.053-.014.16-.053.16-.053h.026l.16-.08c.014-.014.027-.014.027-.027a.851.851 0 0 0 .146-.12h.014c.04-.04.08-.08.12-.134h.014a.908.908 0 0 0 .173-.359c.026-.053.053-.187.053-.187v-.12c0-.066-.027-.147-.027-.213a3.658 3.658 0 0 0-.053-.173l-.013-.028a.823.823 0 0 0-.067-.16c-.026 0-.026-.013-.026-.026a.942.942 0 0 0-.108-.133s0-.013-.012-.014c-.04-.053-.08-.08-.12-.12-.014-.013-.028-.013-.028-.026-.106-.067-.213-.134-.346-.16-.01-.009-.013-.014-.013-.014a1.134 1.134 0 0 0-.302-.04Z" clip-rule="evenodd"/></svg>