<svg xmlns="http://www.w3.org/2000/svg" width="24" height="24" fill="none"><path fill="#28303F" d="M13.43 3c.72 0 1.39.33 1.84.91l2.95 3.78c.34.44.53 1 .53 1.56v7.42c0 2.25-1.74 4.08-3.87 4.08h-6C6.74 20.75 5 18.92 5 16.67v-9.6C5 4.83 6.74 3 8.88 3h4.55ZM8.88 4.75c-1.17 0-2.13 1.04-2.13 2.33v9.6c0 1.28.95 2.32 2.13 2.32h6c1.17 0 2.13-1.04 2.13-2.33V9.55h-1.38c-1.31 0-2.38-1.11-2.38-2.47V4.75H8.88Zm.456 10.731a.65.65 0 0 1-.1.364.65.65 0 0 1-.277.238.96.96 0 0 1-.412.083c-.14 0-.266-.023-.38-.068a.6.6 0 0 1-.269-.212.605.605 0 0 1-.098-.358h.487a.308.308 0 0 0 .037.147c.024.04.057.07.099.093a.328.328 0 0 0 .148.032c.06 0 .111-.013.153-.036a.237.237 0 0 0 .096-.108.416.416 0 0 0 .033-.175v-1.507h.483v1.507Zm5.453-1.537c.131 0 .253.018.366.054a1 1 0 0 1 .3.15c.088.064.16.142.216.23a.754.754 0 0 1 .107.295h-.497a.463.463 0 0 0-.066-.137.472.472 0 0 0-.245-.166.635.635 0 0 0-.173-.021.585.585 0 0 0-.312.082.551.551 0 0 0-.208.24.885.885 0 0 0-.074.382c0 .15.024.279.073.384a.545.545 0 0 0 .208.242c.09.055.196.083.318.083.11 0 .205-.019.283-.055a.413.413 0 0 0 .244-.384h-.497v-.345h.968v.273c0 .19-.043.354-.13.49a.856.856 0 0 1-.354.316 1.17 1.17 0 0 1-.517.109c-.217 0-.407-.044-.572-.134a.96.96 0 0 1-.383-.384 1.214 1.214 0 0 1-.137-.591c0-.175.027-.332.081-.47a.994.994 0 0 1 .575-.568c.131-.05.273-.075.426-.075Zm-4.136.03c.176 0 .325.03.449.093a.662.662 0 0 1 .282.26c.065.109.098.236.098.38a.668.668 0 0 1-.388.637 1.025 1.025 0 0 1-.453.091h-.412v.702H9.74v-2.163h.913Zm2.705.377H12.29v.515h.99v.377h-.99v.517h1.074v.377H11.8v-2.163h1.558v.377Zm-3.129.717h.333a.524.524 0 0 0 .232-.045.314.314 0 0 0 .139-.127.381.381 0 0 0 .046-.19.37.37 0 0 0-.046-.187.303.303 0 0 0-.14-.126.534.534 0 0 0-.233-.045h-.33v.72ZM15 7.08c0 .4.28.72.63.72h.46L15 6.42v.66Z"/></svg>