<svg xmlns="http://www.w3.org/2000/svg" width="24" height="24" fill="none"><path fill="#28303F" d="M13.26 7.07c0 1.37 1.07 2.48 2.38 2.48h3.12v7.13c0 2.25-1.74 4.08-3.88 4.08h-6C6.74 20.76 5 18.93 5 16.68v-9.6C5 4.83 6.74 3 8.88 3h4.38v4.07Zm-4.78 8.46c0 .08-.01.15-.03.2-.03.05-.06.09-.11.12s-.1.04-.17.04-.12-.01-.17-.03a.292.292 0 0 1-.11-.11.295.295 0 0 1-.04-.16H7.3c0 .16.04.29.11.4.08.1.18.18.3.24.13.05.27.07.43.07.18 0 .33-.03.46-.09.14-.06.24-.15.32-.27a.76.76 0 0 0 .11-.41v-1.69h-.55v1.69Zm6.68-1.73c-.17 0-.33.03-.48.09-.14.05-.27.14-.38.24-.11.11-.2.24-.26.4-.06.15-.09.33-.09.53 0 .25.05.47.15.66.1.19.25.33.43.43.19.1.4.15.64.15.22 0 .42-.04.59-.12.17-.08.3-.2.4-.35.09-.16.14-.34.14-.55v-.31h-1.09v.39h.56c0 .09-.03.18-.07.25-.05.08-.12.13-.2.18-.09.04-.2.06-.32.06-.14 0-.26-.03-.36-.09a.637.637 0 0 1-.23-.28.917.917 0 0 1-.09-.43c0-.17.03-.31.09-.43.05-.12.13-.21.23-.27.1-.06.22-.09.35-.09.07 0 .14.01.2.02.06.02.11.04.15.08.05.03.09.07.12.11.03.04.08.15.08.15h.56a.937.937 0 0 0-.12-.33c-.07-.1-.15-.18-.25-.26-.1-.07-.21-.13-.34-.17a1.31 1.31 0 0 0-.41-.06Zm-5.68 2.47h.55v-.79h.47c.2 0 .37-.03.51-.1a.756.756 0 0 0 .43-.72.756.756 0 0 0-.43-.72c-.13-.07-.3-.1-.5-.1H9.48v2.43Zm2.32 0h1.76v-.42h-1.21v-.58h1.11v-.43h-1.11v-.58h1.2v-.42H11.8v2.43Zm-1.4-2.01c.11 0 .2.01.27.05.07.03.12.08.15.14.04.06.06.13.06.21 0 .08-.02.15-.06.21a.36.36 0 0 1-.15.15c-.07.03-.16.05-.26.05h-.38v-.81h.37Zm4.62-10.61c.08.08.17.16.25.26l2.95 3.78c.029.04.068.106.07.11h-2.65c-.35 0-.63-.33-.63-.73h.01V3.65Z"/></svg>