<svg xmlns="http://www.w3.org/2000/svg" width="32" height="32" fill="none"><path fill="#28303F" fill-rule="evenodd" d="M16.72 4c3.586 0 5.56 0 6.96 1.667C24.986 7.24 25 9.4 25 13.693v4.267c0 4.293-.014 6.453-1.32 8.026-1.4 1.68-3.374 1.681-6.96 1.681h-1.786c-3.587 0-5.561 0-6.948-1.667-1.32-1.573-1.319-3.733-1.319-8.04v-4.267c0-4.293 0-6.453 1.307-8.026C9.374 4 11.347 4 14.934 4h1.786Zm-1.786 2.333c-3.174 0-4.494.027-5.16.827C9 8.08 9 10.08 9 13.693v4.267c0 3.613 0 5.613.773 6.533.667.814 1.987.84 5.16.84h1.787c3.186 0 4.493-.026 5.16-.826.773-.934.787-2.92.787-6.547v-4.267c0-3.613-.014-5.613-.787-6.533-.667-.8-1.974-.827-5.16-.827h-1.786Zm-2.36 14.307c0 .186-.04.347-.134.494a.848.848 0 0 1-.374.306c-.146.08-.333.12-.546.12-.187 0-.347-.04-.506-.093a.943.943 0 0 1-.36-.28.807.807 0 0 1-.12-.48h.639c0 .08.027.146.054.2.026.053.08.093.133.12.054.026.12.04.2.04.08 0 .146-.014.2-.053a.294.294 0 0 0 .12-.134c.053-.067.054-.147.054-.24v-2.013h.64v2.013Zm7.266-2.04c.173 0 .346.014.493.067.147.04.28.106.4.2.12.08.213.186.293.306.067.12.12.253.134.387h-.653a.718.718 0 0 0-.094-.173c-.04-.054-.08-.107-.133-.134a.924.924 0 0 0-.2-.093 1.055 1.055 0 0 0-.226-.026c-.16 0-.294.04-.414.106a.816.816 0 0 0-.28.32 1.186 1.186 0 0 0-.094.506c0 .2.027.374.094.52.067.134.16.24.28.32.12.067.253.108.426.108.147 0 .268-.028.374-.068a.54.54 0 0 0 .32-.52h-.654v-.452H21.2v.359c0 .253-.067.48-.174.653-.12.187-.28.32-.48.427-.2.093-.413.146-.692.147-.28 0-.534-.067-.76-.187a1.322 1.322 0 0 1-.507-.507 1.632 1.632 0 0 1-.187-.786c0-.24.04-.44.107-.627.08-.186.186-.347.306-.467.134-.133.294-.226.467-.293.173-.066.36-.093.56-.093Zm-5.507.027c.227 0 .427.053.6.133.16.08.28.2.374.346a1.022 1.022 0 0 1 0 1.014.864.864 0 0 1-.387.333c-.16.093-.373.134-.6.134h-.547v.933h-.653v-2.893h1.213Zm3.6.507h-1.426v.693h1.32v.493h-1.32v.694h1.44v.506h-2.08v-2.893h2.067v.507Zm-4.16.96h.44c.12 0 .227-.028.307-.068a.88.88 0 0 0 .187-.16c.04-.08.053-.16.053-.253a.508.508 0 0 0-.053-.253.474.474 0 0 0-.188-.174.73.73 0 0 0-.319-.052h-.427v.96Zm.04-9.32a.669.669 0 0 1 1.027-.014l2.294 2.747.586-.587.12-.093a.668.668 0 0 1 .88.16l1.466 1.947c.32.44.014 1.066-.533 1.066h-7.92a.661.661 0 0 1-.56-1.014l2.587-4.146.053-.067Zm4.414-1.427c.106 0 .213.013.306.04.133.026.24.093.347.173 0 0 .014 0 .014.013.053.04.092.08.132.12v.014c.04.04.081.093.108.133.013.013.013.04.026.04.027.04.053.093.067.146l.013.028c.027.053.04.12.053.173.013.08.014.213.014.213v.12c0 .066-.04.187-.04.187v.026a.992.992 0 0 1-.173.333c0 .026-.013.028-.014.028-.04.04-.119.131-.12.133l-.014.013c-.053.027-.093.066-.146.093 0 .013-.013.014-.027.027l-.16.08h-.026c-.053.027-.107.04-.16.053a1.017 1.017 0 0 1-.507-.014c-.012 0-.025-.01-.026-.012a.75.75 0 0 1-.16-.054c-.014 0-.014-.012-.027-.013a4.258 4.258 0 0 1-.147-.08l-.013-.013a1.02 1.02 0 0 1-.334-.413c-.013 0-.013-.014-.013-.014-.026-.053-.066-.16-.066-.16l.026.013v-.026a.716.716 0 0 1-.04-.294c0-.613.493-1.106 1.107-1.106Z" clip-rule="evenodd"/></svg>