<svg xmlns="http://www.w3.org/2000/svg" width="32" height="32" fill="none"><path fill="#28303F" fill-rule="evenodd" d="M16.72 4c3.6 0 5.573 0 6.973 1.667C25 7.24 25 9.4 24.973 13.693v4.267c0 4.293 0 6.453-1.306 8.026-1.387 1.667-3.36 1.667-6.96 1.667h-1.773c-3.587 0-5.574 0-6.96-1.667-1.307-1.573-1.307-3.733-1.307-8.026v-4.267c0-4.293 0-6.453 1.32-8.026C9.372 4 11.346 4 14.946 4h1.773Zm-4.76 14.04v3.014a.914.914 0 0 1-.066.36.518.518 0 0 1-.2.213.637.637 0 0 1-.294.066.58.58 0 0 1-.306-.066.504.504 0 0 1-.188-.187c-.053-.08-.066-.174-.079-.294h-.96c0 .294.066.534.2.72.12.187.306.334.533.427.213.093.467.134.747.134.306 0 .587-.054.813-.16.24-.12.427-.28.547-.48.133-.2.2-.453.2-.733V18.04h-.947Zm7.906-.054c-.306 0-.586.055-.852.148-.254.107-.481.24-.681.44a1.9 1.9 0 0 0-.453.693c-.107.28-.16.6-.16.946 0 .453.093.854.266 1.174.187.333.441.587.761.773.333.173.706.267 1.133.267.387 0 .733-.067 1.026-.214.307-.147.534-.36.707-.64.174-.266.253-.6.253-.973v-.546h-1.92v.693h.988c0 .173-.054.32-.12.453a.89.89 0 0 1-.36.307c-.16.08-.348.106-.574.106-.24 0-.44-.053-.627-.16a1.134 1.134 0 0 1-.413-.48 1.952 1.952 0 0 1-.147-.773c0-.293.054-.56.16-.76.094-.213.227-.373.4-.48.187-.107.387-.173.627-.173.12 0 .24.026.333.053.107.026.2.067.28.134.08.053.16.119.214.199.053.08.093.16.133.267h.987a1.717 1.717 0 0 0-.214-.587 1.765 1.765 0 0 0-.427-.466 2.094 2.094 0 0 0-.6-.293 2.545 2.545 0 0 0-.72-.108Zm-6.146.054v4.333h.96v-1.4h.813c.36 0 .654-.066.907-.186.254-.133.44-.294.574-.52.133-.214.199-.48.199-.76s-.066-.533-.2-.76a1.51 1.51 0 0 0-.56-.52 2.012 2.012 0 0 0-.893-.187h-1.8Zm1.613.747c.187 0 .347.04.467.093a.74.74 0 0 1 .28.254.814.814 0 0 1 .094.373.92.92 0 0 1-.094.387.739.739 0 0 1-.28.253 1.09 1.09 0 0 1-.453.093h-.667v-1.453h.653Zm-.493-8.027a.669.669 0 0 0-1.027.013l-.053.067-2.587 4.146c-.28.44.04 1.014.574 1.014h7.906a.666.666 0 0 0 .534-1.066l-1.454-1.948a.686.686 0 0 0-.893-.159l-.12.093-.586.587-2.294-2.747Zm3.387-1.44c-.614 0-1.12.493-1.12 1.107 0 .106.013.2.04.293 0 0 .013.014.013.027.013.053.026.107.053.147 0 .012.012.025.014.026.08.16.2.306.346.413h.014c.04.04.093.067.133.094h.04c.039.026.14.052.146.053.018.01.028.013.028.013.093.014.186.04.293.04.08 0 .146-.013.226-.026a.478.478 0 0 0 .147-.054c.013 0 .026 0 .04-.013.051-.012.154-.076.16-.08h.014c.053-.04.106-.08.146-.107 0-.013.013-.013.026-.026.04-.04.106-.13.108-.133.04-.04.066-.094.092-.148.014-.013.014-.027.027-.04a.285.285 0 0 0 .054-.159s.013 0 .013-.014c.027-.093.04-.2.04-.306a1.177 1.177 0 0 0-.08-.387v-.026l-.08-.16h-.014a.59.59 0 0 0-.106-.147c-.013 0-.013-.014-.026-.027-.04-.04-.117-.104-.12-.107l-.028-.026a1.315 1.315 0 0 0-.333-.174h-.014c-.106-.027-.2-.04-.306-.04l.014-.013Z" clip-rule="evenodd"/></svg>