<svg xmlns="http://www.w3.org/2000/svg" width="32" height="32" fill="none"><path fill="#28303F" fill-rule="evenodd" d="M16.72 4c3.6 0 5.573 0 6.973 1.667C25 7.24 25 9.4 25 13.693v4.267c0 4.293 0 6.453-1.307 8.026-1.4 1.68-3.373 1.681-6.973 1.681h-1.774c-3.6 0-5.573 0-6.96-1.667-1.32-1.573-1.319-3.733-1.319-8.04v-4.267c0-4.293 0-6.453 1.307-8.026C9.374 4 11.347 4 14.946 4h1.774Zm-1.774 2.333c-3.186 0-4.506.027-5.173.827C9 8.08 9 10.08 9 13.693v4.267c0 3.613 0 5.613.773 6.533.667.814 1.987.84 5.173.84h1.774c3.186 0 4.507-.026 5.174-.826.773-.934.773-2.92.773-6.547v-4.267c0-3.613 0-5.613-.773-6.533-.667-.8-1.988-.827-5.174-.827h-1.774Zm-1.706 14.64a1.123 1.123 0 0 1-.667 1.067c-.2.093-.453.146-.72.146-.253 0-.48-.04-.68-.12a1.164 1.164 0 0 1-.466-.373c-.12-.173-.174-.386-.174-.64h.854a.784.784 0 0 0 .066.267c.04.067.107.12.174.16.08.04.16.053.267.053.106 0 .2-.013.266-.066a.394.394 0 0 0 .173-.187.703.703 0 0 0 .054-.306v-2.681h.853v2.68Zm6.173-2.733c.24 0 .453.026.653.093s.374.147.52.267c.16.12.294.254.388.414.093.16.16.333.186.52h-.88a1.007 1.007 0 0 0-.107-.241 1.247 1.247 0 0 0-.187-.187 1.068 1.068 0 0 0-.56-.146c-.2 0-.386.04-.546.146a.88.88 0 0 0-.36.427c-.094.187-.133.413-.133.68 0 .267.04.494.133.68.08.187.2.334.36.427a.98.98 0 0 0 .56.147c.2 0 .36-.027.494-.094a.665.665 0 0 0 .319-.28.828.828 0 0 0 .12-.4h-.88v-.613H21.2v.48c0 .346-.08.627-.226.88-.147.24-.36.426-.627.546-.267.134-.573.2-.907.2-.386 0-.72-.08-1.013-.24a1.754 1.754 0 0 1-.68-.68c-.16-.293-.24-.64-.24-1.053 0-.307.053-.586.146-.826.094-.254.24-.454.413-.627.174-.174.374-.307.601-.387a1.96 1.96 0 0 1 .746-.133Zm-3.853.053c.306 0 .573.053.787.16.226.12.386.267.506.467.107.186.173.413.173.68 0 .253-.066.48-.172.667-.12.2-.294.346-.521.453-.213.12-.48.174-.8.174h-.72v1.24h-.867v-3.841h1.614Zm-.747 1.947h.587c.16 0 .307-.027.413-.08a.566.566 0 0 0 .24-.226.726.726 0 0 0 .08-.334.74.74 0 0 0-.08-.347.539.539 0 0 0-.24-.213.953.953 0 0 0-.413-.08h-.587v1.28Zm-1-9.467a.66.66 0 0 1 1.027 0l2.294 2.747.586-.586.12-.094a.67.67 0 0 1 .893.16l1.453 1.934A.666.666 0 0 1 19.653 16h-7.906c-.533 0-.853-.574-.573-1.014l2.6-4.146.04-.067Zm4.387-1.44c.107 0 .2.027.307.054h.012c.12.04.241.093.335.173.013 0 .013.013.026.013.04.04.094.08.134.12 0 .013.01.014.012.014l.108.147c0 .006.003.009.006.012l.087.174s0 .014.013.026c.014.054.04.108.04.174.014.067.027.133.027.213v.107l-.04.2c-.001 0-.014 0-.014.013a.943.943 0 0 1-.173.347v.014c-.027.04-.12.146-.12.146h-.014c-.04.04-.093.067-.133.107-.013 0-.026.013-.04.013-.04.027-.093.054-.146.08-.013 0-.027.013-.027.013l-.16.04a1.04 1.04 0 0 1-.52-.014h-.026a.49.49 0 0 1-.147-.066c-.013 0-.027 0-.04-.013-.04-.026-.094-.053-.134-.08-.013 0-.013-.013-.013-.013a1.113 1.113 0 0 1-.347-.4c0-.014-.013-.014-.013-.027a1.06 1.06 0 0 1-.053-.16h-.013l-.014-.027a1.02 1.02 0 0 1-.04-.28c0-.613.507-1.12 1.12-1.12Z" clip-rule="evenodd"/></svg>