<svg xmlns="http://www.w3.org/2000/svg" width="24" height="24" fill="none"><path fill="#28303F" d="M13.43 3c.72 0 1.39.33 1.84.91l2.95 3.78c.34.44.53 1 .53 1.56v7.42c0 2.25-1.74 4.08-3.87 4.08h-6C6.74 20.75 5 18.92 5 16.67v-9.6C5 4.83 6.74 3 8.88 3h4.55ZM8.88 4.75c-1.17 0-2.13 1.04-2.13 2.33v9.6c0 1.28.95 2.32 2.13 2.32h6c1.17 0 2.13-1.04 2.13-2.33V9.55h-1.38c-1.31 0-2.38-1.11-2.38-2.47V4.75H8.88Zm.95 10.974a.873.873 0 0 1-.133.484.862.862 0 0 1-.365.317 1.259 1.259 0 0 1-.545.112c-.184 0-.352-.031-.502-.092a.793.793 0 0 1-.355-.281.814.814 0 0 1-.13-.478h.643a.413.413 0 0 0 .05.195.328.328 0 0 0 .13.124.435.435 0 0 0 .197.043c.08 0 .147-.017.201-.048a.314.314 0 0 0 .127-.144.558.558 0 0 0 .043-.232v-2.011h.64v2.01Zm4.634-2.05c.173 0 .334.023.483.071.15.047.282.114.398.2.116.087.211.19.285.309.073.118.12.249.141.392h-.656a.62.62 0 0 0-.089-.182.53.53 0 0 0-.138-.136.615.615 0 0 0-.186-.086.825.825 0 0 0-.227-.03.769.769 0 0 0-.412.11.734.734 0 0 0-.276.32 1.189 1.189 0 0 0-.099.51c0 .201.034.372.098.513.065.14.156.248.274.322.119.074.26.11.42.11.146 0 .271-.025.374-.074a.546.546 0 0 0 .323-.51h-.656v-.46H15.8v.364c0 .253-.057.471-.17.653-.114.181-.27.322-.469.42a1.533 1.533 0 0 1-.684.147c-.286 0-.538-.06-.755-.18a1.274 1.274 0 0 1-.508-.51 1.629 1.629 0 0 1-.18-.789c0-.233.035-.443.107-.626.072-.184.174-.339.304-.467.13-.127.282-.225.455-.292.174-.066.362-.1.564-.1Zm-2.893.039c.232 0 .43.041.593.125a.878.878 0 0 1 .373.346c.087.146.13.315.13.506 0 .192-.043.36-.13.507a.886.886 0 0 1-.382.342 1.346 1.346 0 0 1-.6.123h-.543v.935h-.647v-2.884h1.206Zm-.56 1.46h.44c.123 0 .226-.02.307-.06a.415.415 0 0 0 .182-.17.51.51 0 0 0 .061-.253c0-.095-.02-.18-.06-.25a.398.398 0 0 0-.183-.167.698.698 0 0 0-.31-.062h-.436v.962ZM15 7.08c0 .4.28.72.63.72h.46L15 6.42v.66Z"/></svg>