<svg xmlns="http://www.w3.org/2000/svg" width="24" height="24" fill="none"><path fill="#28303F" d="M13.26 7.07c0 1.37 1.07 2.48 2.38 2.48h3.12v7.13c0 2.25-1.74 4.08-3.88 4.08h-6C6.74 20.76 5 18.93 5 16.68v-9.6C5 4.83 6.74 3 8.88 3h4.38v4.07Zm-4.39 8.72c0 .11-.02.2-.05.27-.04.07-.08.12-.15.16-.06.03-.13.05-.22.05s-.16-.01-.22-.05a.319.319 0 0 1-.15-.13.438.438 0 0 1-.06-.23H7.3c0 .22.05.4.15.54.09.14.23.25.4.32.16.07.35.1.56.1.23 0 .44-.04.61-.12a.97.97 0 0 0 .56-.91v-2.26h-.71v2.26Zm5.93-2.3c-.23 0-.44.04-.64.11-.19.08-.36.19-.51.33-.15.14-.26.32-.34.53-.08.2-.12.44-.12.7 0 .34.07.64.2.88.14.25.33.44.57.58.25.13.53.2.85.2.29 0 .55-.05.77-.16.23-.11.4-.27.53-.48.13-.2.19-.45.19-.73v-.41h-1.44v.52h.74c0 .13-.03.24-.09.34-.07.1-.16.18-.27.23a.93.93 0 0 1-.42.08c-.19 0-.34-.04-.48-.12a.85.85 0 0 1-.31-.36c-.07-.16-.11-.36-.11-.58 0-.22.04-.42.12-.57a.77.77 0 0 1 .3-.36.92.92 0 0 1 .47-.13c.09 0 .18.02.26.04.07.02.14.05.2.1.07.04.12.09.16.15.04.06.08.12.1.2h.74a1.11 1.11 0 0 0-.16-.44c-.08-.13-.19-.25-.32-.35-.13-.09-.28-.17-.45-.22-.17-.05-.35-.08-.54-.08Zm-4.61 3.29h.72v-1.05h.61c.27 0 .49-.05.68-.14a.96.96 0 0 0 .43-.39c.1-.16.15-.36.15-.57 0-.21-.05-.4-.15-.57-.1-.16-.24-.29-.42-.39-.18-.09-.41-.14-.67-.14h-1.35v3.25Zm1.21-2.69c.14 0 .26.03.35.07.09.05.16.11.21.19a.612.612 0 0 1 0 .57c-.05.08-.12.14-.21.19a.82.82 0 0 1-.34.07h-.5v-1.09h.49Zm3.62-10.44c.08.08.17.16.25.26l2.95 3.78c.029.04.068.106.07.11h-2.65c-.35 0-.63-.33-.63-.73h.01V3.65Z"/></svg>