<svg xmlns="http://www.w3.org/2000/svg" width="24" height="24" fill="none"><g fill="#28303F"><path d="M16.51 3H7.44C4.99 3 3 4.99 3 7.44v9.07c0 2.45 1.99 4.44 4.44 4.44h9.07c2.45 0 4.44-1.99 4.44-4.44V7.44c0-2.45-1.99-4.44-4.44-4.44Zm2.69 13.51c0 1.48-1.21 2.69-2.69 2.69H7.44c-1.48 0-2.69-1.21-2.69-2.69V7.44c0-1.48 1.21-2.69 2.69-2.69h9.07c1.48 0 2.69 1.21 2.69 2.69v9.07Z"/><path d="M16.36 9.44c-.48 0-.88.39-.88.88v.83h-.38v-.83c0-.48-.39-.88-.88-.88s-.88.39-.88.88v.83h-1.3a2.58 2.58 0 0 0-2.42-1.71c-1.42 0-2.58 1.16-2.58 2.58 0 1.42 1.16 2.58 2.58 2.58 1.11 0 2.06-.71 2.42-1.71h4.2c.02 0 .04-.01.06-.01.02 0 .04.01.06.01.48 0 .88-.39.88-.88v-1.69a.894.894 0 0 0-.88-.88Zm-6.73 3.41c-.46 0-.83-.37-.83-.83 0-.46.37-.83.83-.83.46 0 .83.37.83.83 0 .46-.37.83-.83.83Z"/></g></svg>