<svg xmlns="http://www.w3.org/2000/svg" width="24" height="24" fill="none"><g fill="#28303F"><path d="m19.35 7.47-.6-.72c-.65-.78-1.01-1.21-1.59-1.48C16.58 5 16.02 5 15 5H4.88c-1.07 0-1.78 0-2.33.55S2 6.81 2 7.88v8c0 1.07 0 1.78.55 2.33s1.26.55 2.33.55H15c1.02 0 1.58 0 2.16-.27.58-.27.94-.7 1.59-1.48l.6-.72c1.61-1.93 2.5-3 2.5-4.4-.01-1.42-.89-2.48-2.5-4.42ZM18 15.16l-.6.72c-.53.63-.77.92-.99 1.02-.21.1-.58.1-1.41.1H4.88c-.46 0-.99 0-1.07-.01-.06-.13-.06-.65-.06-1.12v-8c0-.46 0-.99.01-1.07.13-.06.65-.06 1.12-.06H15c.82 0 1.2 0 1.41.11.22.1.46.39.99 1.02l.6.72c1.49 1.79 2.09 2.54 2.09 3.28 0 .75-.6 1.5-2.09 3.29Z"/><path d="M15.88 13.88a2 2 0 1 0 0-4 2 2 0 0 0 0 4Z"/></g></svg>