<svg xmlns="http://www.w3.org/2000/svg" width="24" height="24" fill="none"><path fill="#28303F" fill-rule="evenodd" d="M10.43 5.16c.98-.54 2.16-.54 3.14 0l5.57 3.09c.14.08.14.27 0 .35l-5.57 3.09c-.98.54-2.16.54-3.14 0L4.86 8.6a.198.198 0 0 1 0-.35l5.57-3.09Zm3.99-1.54c-1.5-.83-3.33-.83-4.84 0L4.01 6.71c-1.35.75-1.35 2.67 0 3.41l5.57 3.09c1.5.83 3.33.83 4.84 0l5.57-3.09c1.35-.75 1.35-2.67 0-3.41l-5.57-3.09ZM3.98 11.24c.49.03.85.45.82.93-.02.23.02.39.08.5.06.11.17.24.39.37l4.94 2.37c1.19.51 2.77.51 3.96 0l5.01-2.37c.28-.18.46-.53.47-.95.01-.48.41-.86.9-.85.48.01.86.41.85.9-.02.91-.45 1.89-1.36 2.43l-.04.02-.04.02L14.91 17l-.01.01-.01.01c-1.64.71-3.74.71-5.38 0L9.49 17h-.02l-5-2.4-.03-.02-.03-.02c-.44-.26-.81-.6-1.06-1.05-.25-.45-.34-.95-.3-1.47.03-.47.45-.84.93-.8Zm.01 3.81c.48.03.85.45.81.93-.02.23.03.39.09.5.06.11.17.24.39.37l4.94 2.37c1.19.51 2.77.51 3.96 0l5.01-2.37c.28-.18.46-.53.47-.95.01-.48.41-.86.9-.85.48.01.86.41.85.9-.02.91-.45 1.89-1.36 2.43l-.04.02-.04.02-5.07 2.4-.01.01-.01.01c-1.64.71-3.74.71-5.38 0l-.01-.01-.01-.01-5-2.4-.03-.02-.03-.02c-.44-.26-.81-.6-1.06-1.05-.25-.45-.34-.95-.3-1.47.03-.48.45-.84.93-.81Z" clip-rule="evenodd"/></svg>