<svg xmlns="http://www.w3.org/2000/svg" width="24" height="24" fill="none"><g fill="#28303F" fill-rule="evenodd" clip-rule="evenodd"><path d="M11.33 13.85c.1.03.22.04.36.05.4.01.89-.05 1.24-.15 1.71-.48 6.06-3.1 8.07-4.36l-.01-.77c.08-.73-.26-1.5-1-1.91l-5.57-3.09c-1.5-.83-3.33-.83-4.84 0L4.01 6.71C3.34 7.09 3 7.75 3 8.42l.01 1.25c2.29 1.36 6.27 3.61 8.32 4.18Z"/><path d="M11.47 17.7c.1.03.22.04.36.05.4.01.89-.05 1.24-.15 1.68-.47 5.92-3.01 7.96-4.3l-.02-1.82c-2.04 1.26-5.77 3.46-7.54 3.95-.43.12-1.02.22-1.61.22h-.07c-.35 0-.69-.04-1.01-.12-1.97-.55-5.36-2.4-7.76-3.79l.01 1.7c2.27 1.36 6.35 3.68 8.44 4.26Z"/><path d="M13.62 19.29c-.43.12-1.02.22-1.61.22h-.07c-.35 0-.69-.04-1.01-.12-2-.56-5.47-2.46-7.88-3.85v.32c-.04.52.05 1.02.3 1.47.25.45.62.79 1.06 1.05l.06.04 5 2.4.01.01.02.01c1.64.71 3.74.71 5.38 0l.02-.02 5.07-2.4.08-.04c.92-.54.98-1.54 1-2.45l-.01-.52c-2.05 1.26-5.68 3.39-7.42 3.88Z"/></g></svg>