<svg xmlns="http://www.w3.org/2000/svg" width="24" height="24" fill="none"><path fill="#28303F" d="M21.02 17.32c-.13-2.8-1.1-5.3-2.7-7.3-1.79-2.07-3.67-3.26-5.89-3.56a.463.463 0 0 1-.41-.45l.01-2.1v-.02c0-.08-.02-.17-.05-.25-.06-.16-.15-.31-.28-.4-.11-.08-.28-.15-.28-.15-.14-.06-.3-.09-.45-.09-.41 0-.85.2-1.25.53l-6.3 5.7c-.4.4-.4.8-.42.88 0 .4.2.7.6 1l2.39 1.79.02.02 4.5 3.79s.08.07.24.14c.11.05.23.06.32.06h.04c.07 0 .28-.03.38-.08.17-.09.33-.27.43-.5.1-.21.13-.47.13-.7 0-.34-.01-1.13-.01-1.67 0-.3.27-.52.57-.46 1.29.24 2.26.75 3.39 1.79l.05.05c1.18 1.29 2.66 4.91 2.66 4.91l.04.09c.19.39.57.68 1.03.68h.05c1.12-.06 1.2-1.2 1.2-1.2l.03-.23c-.01-.01.03-.73-.04-2.27Zm-3.72-3.2-.05-.05-.05-.05c-1.54-1.42-2.98-2.1-4.96-2.35l-1.45-.18a.479.479 0 0 0-.53.47l.02 1.47v.38c0 .05-.02.2-.1.24-.04.02-.12-.02-.18-.06l-2.87-2.42-.04-.03-.04-.03-1.48-1.11a.463.463 0 0 1-.03-.72l4.34-3.93c.01-.01.19-.18.29-.14.1.05.1.26.1.26v1.72c0 .24.19.45.43.47l1.18.1c1.88.16 3.45 1.07 5.1 2.97 1.16 1.46 1.9 3.2 2.18 5.09 0 .07-.01.22-.09.25-.1.04-.28-.17-.3-.19-.47-.82-.97-1.63-1.47-2.16Z"/></svg>