<svg xmlns="http://www.w3.org/2000/svg" width="24" height="24" fill="none"><path fill="#28303F" d="M10.704 22c-.096 0-.193 0-.289-.096-.384-.095-.672-.573-.672-.955v-6.591H6.286c-.48 0-.96-.287-1.152-.764-.192-.478-.192-.956.096-1.338l7.298-9.84c.288-.382.768-.477 1.152-.382.385.096.673.574.673.956v6.687h3.36c.48 0 .961.286 1.153.764.192.478.192.955-.096 1.337l-7.298 9.84c-.192.287-.48.382-.768.382Zm-3.746-9.266h3.265c.577 0 1.057.477 1.057 1.05v5.35l5.762-7.738h-3.265a1.063 1.063 0 0 1-1.057-1.05v-5.35l-5.762 7.738Z"/></svg>