<svg xmlns="http://www.w3.org/2000/svg" width="24" height="24" fill="none"><g fill="#28303F"><path d="M13.4 16.3c-.8 1.1-2.1 2.8-2.1 2.8v-5.3c0-.6-.5-1.1-1.1-1.1H7s.5-.8 1-1.3c.1-.2.2-.6-.2-1-.4-.5-1.1-.1-1.2.1-.5.7-1.3 1.8-1.3 1.8-.3.4-.3.9-.1 1.3.2.5.7.8 1.2.8h3.5V21c0 .4.3.9.7 1h.1c.3 0 .6-.1.8-.4 0-.1.5-.7 3.2-4.3.1-.2.2-.8-.1-1.1-.5-.4-1.1-.1-1.2.1ZM16.6 14.7l2.1-2.9c.3-.4.3-.9.1-1.3-.2-.5-.7-.8-1.2-.8h-3.2V3c0-.4-.3-.9-.7-1-.4-.1-.9 0-1.2.4l-3.7 5-2.3-2.1c-.4-.4-.9-.3-1.3 0-.3.4-.3.9 0 1.2l12.2 11.3c.2.2.4.2.6.2.2 0 .5-.1.6-.3.3-.4.3-.9 0-1.2l-2-1.8ZM12.7 5v5.3c0 .6.5 1.1 1.1 1.1H17l-1.6 2.2-5.4-5L12.7 5Z"/></g></svg>