<svg xmlns="http://www.w3.org/2000/svg" width="24" height="24" fill="none"><path fill="#28303F" d="M11.9 20.7c-1.5 0-2.9-.4-4.2-1-1.8-1-3.2-2.5-4-4.4-.8-1.9-.9-4-.3-6C4 7.3 5.3 5.6 7 4.5c1.7-1.1 3.7-1.7 5.7-1.5 2 .2 4 1.1 5.4 2.6.3.3.3.9 0 1.2-.3.3-.9.3-1.2 0-1.2-1.2-2.7-1.9-4.3-2.1-1.7-.1-3.3.3-4.7 1.3-1.4.9-2.4 2.2-2.8 3.8-.5 1.6-.4 3.3.2 4.8.6 1.5 1.8 2.8 3.2 3.6 1.4.8 3.1 1 4.7.7 1.6-.3 3.1-1.2 4.1-2.5 1-1.3 1.6-2.9 1.6-4.5.1-.5.5-.9 1-.9s.9.4.9.9c0 2-.7 4-2 5.6-1.3 1.6-3.1 2.7-5.1 3.1-.7.1-1.2.1-1.8.1Z"/></svg>