<svg xmlns="http://www.w3.org/2000/svg" width="24" height="24" fill="none"><g fill="#28303F" fill-rule="evenodd" clip-rule="evenodd"><path d="m13.76 12.76-2.38 2.38-.88-.88a.881.881 0 0 0-1.24 0c-.34.34-.34.9 0 1.24l1.5 1.5c.17.17.39.26.62.26.23 0 .45-.08.62-.26l3-3c.34-.34.34-.9 0-1.24a.863.863 0 0 0-1.24 0Z"/><path d="M16.75 8.08v-1.2c0-2.7-2.18-4.88-4.87-4.88A4.88 4.88 0 0 0 7 6.88v1.2c-2.27.41-4 2.4-4 4.8v4a4.88 4.88 0 0 0 4.88 4.88h8a4.88 4.88 0 0 0 4.88-4.88v-4a4.896 4.896 0 0 0-4.01-4.8Zm-8-1.2c0-1.73 1.4-3.13 3.13-3.13S15 5.15 15 6.88V8H8.75V6.88Zm10.25 10C19 18.6 17.6 20 15.88 20h-8c-1.73 0-3.13-1.4-3.13-3.13v-4c0-1.73 1.4-3.13 3.13-3.13h8c1.73 0 3.13 1.4 3.13 3.13v4.01H19Z"/></g></svg>