<svg xmlns="http://www.w3.org/2000/svg" width="24" height="24" fill="none"><path fill="#28303F" fill-rule="evenodd" d="M11.88 2C9.18 2 7 4.18 7 6.88v1.2c-2.27.41-4 2.4-4 4.8v4a4.88 4.88 0 0 0 4.88 4.88h8a4.88 4.88 0 0 0 4.88-4.88v-4c0-2.39-1.73-4.38-4-4.8v-1.2C16.75 4.18 14.57 2 11.88 2ZM15 8V6.88c0-1.73-1.4-3.13-3.13-3.13s-3.13 1.4-3.13 3.13V8H15ZM7.88 9.75c-1.73 0-3.13 1.4-3.13 3.13v4c0 1.73 1.4 3.13 3.13 3.13h8A3.139 3.139 0 0 0 19 16.88v-4c0-1.73-1.4-3.13-3.13-3.13H7.88Zm4 3.25c.48 0 .88.39.88.88v2c0 .48-.39.88-.88.88s-.88-.4-.88-.88v-2c0-.49.39-.88.88-.88Z" clip-rule="evenodd"/></svg>