<svg xmlns="http://www.w3.org/2000/svg" width="24" height="24" fill="none"><g fill="#28303F"><path d="M16.75 8.09V6.88c0-2.69-2.19-4.88-4.87-4.88C9.19 2 7 4.19 7 6.88v1.21c-2.27.41-4 2.4-4 4.79v4c0 2.69 2.19 4.88 4.88 4.88h8c2.69 0 4.88-2.19 4.88-4.88v-4a4.893 4.893 0 0 0-4.01-4.79Zm-4.87-4.34c1.72 0 3.13 1.4 3.13 3.13V8H8.75V6.88c0-1.73 1.4-3.13 3.13-3.13ZM19 16.88C19 18.6 17.6 20 15.88 20h-8c-1.72 0-3.13-1.4-3.13-3.13v-4c0-1.72 1.4-3.13 3.13-3.13h8c1.72 0 3.13 1.4 3.13 3.13v4.01H19Z"/><path d="M14.62 12.26a.881.881 0 0 0-1.24 0L12 13.64l-1.38-1.38a.881.881 0 0 0-1.24 0c-.34.34-.34.9 0 1.24l1.38 1.38-1.38 1.38a.881.881 0 0 0 .62 1.5c.23 0 .45-.08.62-.26L12 16.11l1.38 1.38c.17.17.4.26.62.26.22 0 .45-.08.62-.26.34-.34.34-.9 0-1.24l-1.38-1.38 1.38-1.38a.87.87 0 0 0 0-1.23Z"/></g></svg>