<svg xmlns="http://www.w3.org/2000/svg" width="24" height="24" fill="none"><path fill="#28303F" fill-rule="evenodd" d="M16.75 8.08v-1.2c0-2.7-2.18-4.88-4.87-4.88A4.88 4.88 0 0 0 7 6.88v1.2c-2.27.41-4 2.4-4 4.8v4a4.88 4.88 0 0 0 4.88 4.88h8a4.88 4.88 0 0 0 4.88-4.88v-4a4.896 4.896 0 0 0-4.01-4.8Zm-8-1.2c0-1.73 1.4-3.13 3.13-3.13S15 5.15 15 6.88V8H8.75V6.88Zm6.24 7.11-3 3a.87.87 0 0 1-.62.26c-.23 0-.45-.08-.62-.26l-1.5-1.5a.881.881 0 0 1 0-1.24c.34-.34.9-.34 1.24 0l.88.88 2.38-2.38c.34-.34.9-.34 1.24 0 .34.35.34.9 0 1.24Z" clip-rule="evenodd"/></svg>