<svg xmlns="http://www.w3.org/2000/svg" width="24" height="24" fill="none"><path fill="#28303F" d="M16.75 8.09V6.88c0-2.69-2.19-4.88-4.87-4.88C9.19 2 7 4.19 7 6.88v1.21c-2.27.41-4 2.4-4 4.79v4c0 2.69 2.19 4.88 4.88 4.88h8c2.69 0 4.88-2.19 4.88-4.88v-4a4.893 4.893 0 0 0-4.01-4.79Zm-2.13 8.17a.881.881 0 0 1-.62 1.5c-.22 0-.45-.08-.62-.26L12 16.11l-1.38 1.38c-.18.18-.4.26-.62.26-.22 0-.45-.08-.62-.26a.881.881 0 0 1 0-1.24l1.38-1.38-1.38-1.38a.881.881 0 0 1 0-1.24c.34-.34.9-.34 1.24 0L12 13.64l1.38-1.38c.34-.34.9-.34 1.24 0 .34.34.34.9 0 1.24l-1.38 1.38 1.38 1.38ZM15 8H8.75V6.88c0-1.72 1.4-3.13 3.13-3.13 1.72 0 3.13 1.4 3.13 3.13V8H15Z"/></svg>