<svg xmlns="http://www.w3.org/2000/svg" width="24" height="24" fill="none"><g fill="#28303F"><path d="M7.84 12c0 1.19.97 2.15 2.16 2.15h6c.46 0 .84.38.84.85v2c0 2.68-2.17 4.85-4.84 4.85H8c-2.68 0-4.85-2.17-4.85-4.85V7c0-2.68 2.17-4.85 4.85-4.85h4c2.67 0 4.84 2.17 4.84 4.85v2c0 .47-.38.85-.84.85h-6c-1.19 0-2.16.96-2.16 2.15Z"/><path d="m21.6 12.6-2.5 2.5c-.34.33-.87.33-1.21 0a.851.851 0 0 1 0-1.2l1.05-1.05H10a.85.85 0 1 1 0-1.7h8.94l-1.05-1.05a.851.851 0 0 1 0-1.2c.34-.33.87-.33 1.21 0l2.5 2.5c.33.33.33.87 0 1.2Z"/></g></svg>