<svg xmlns="http://www.w3.org/2000/svg" width="24" height="24" fill="none"><g fill="#28303F"><path d="M15.15 9V7A3.15 3.15 0 0 0 12 3.85H8A3.15 3.15 0 0 0 4.85 7v10A3.15 3.15 0 0 0 8 20.15h4A3.15 3.15 0 0 0 15.15 17v-2a.85.85 0 1 1 1.7 0v2c0 2.68-2.18 4.85-4.85 4.85H8c-2.68 0-4.85-2.17-4.85-4.85V7c0-2.67 2.17-4.85 4.85-4.85h4c2.67 0 4.85 2.18 4.85 4.85v2a.85.85 0 1 1-1.7 0Z"/><path d="m21.6 12.6-2.5 2.5c-.34.34-.87.34-1.2 0a.833.833 0 0 1 0-1.2l1.05-1.05H10a.85.85 0 1 1 0-1.7h8.95L17.9 10.1a.833.833 0 0 1 0-1.2c.33-.33.86-.33 1.2 0l2.5 2.5c.33.34.33.87 0 1.2Z"/></g></svg>