<svg xmlns="http://www.w3.org/2000/svg" width="24" height="24" fill="none"><g fill="#28303F"><path d="M16.2 2h-4C9.6 2 7.5 4.1 7.5 6.7v1.6c0 .5.4.9.9.9s.9-.4.9-.9V6.7c0-1.6 1.3-3 3-3h4c1.6 0 3 1.3 3 3V17c0 1.6-1.3 3-3 3h-4c-1.6 0-3-1.3-3-3v-1.6c0-.5-.4-.9-.9-.9s-.9.5-.9 1v1.6c0 2.6 2.1 4.7 4.7 4.7h4c2.6 0 4.7-2.1 4.7-4.7V6.7c0-2.6-2.1-4.7-4.7-4.7Z"/><path d="M12.2 14c-.3.4-.3.9.1 1.2.2.2.4.2.6.2.2 0 .5-.1.7-.3l2.4-2.7.5-.7-2.9-3.4c-.3-.4-.9-.4-1.2-.1-.5.5-.5 1.1-.2 1.4l1.2 1.4H3.9c-.5 0-.9.4-.9.9s.4.9.9.9h9.5L12.2 14Z"/></g></svg>