<svg xmlns="http://www.w3.org/2000/svg" width="24" height="24" fill="none"><g fill="#28303F"><path d="M15.6 14.6c-.5 0-.9.4-.9.9v1.6c0 1.6-1.3 3-3 3h-4c-1.6 0-3-1.3-3-3V6.7c0-1.6 1.3-3 3-3h4c1.6 0 3 1.3 3 3v1.6c0 .5.4.9.9.9s.9-.4.9-.9V6.7c0-2.6-2.1-4.7-4.7-4.7h-4C5.1 2 3 4.1 3 6.7V17c0 2.6 2.1 4.7 4.7 4.7h4c2.6 0 4.7-2.1 4.7-4.7v-1.6c0-.4-.4-.8-.8-.8Z"/><path d="M19 8.5c-.3-.4-.9-.4-1.2-.1-.4.3-.4.9-.1 1.2l1.2 1.4H9.3c-.5 0-.9.4-.9.9s.4.9.9.9h9.5L17.7 14c-.3.4-.3.9.1 1.2.2.2.4.2.6.2.2 0 .5-.1.7-.3l2.4-2.7.5-.7-3-3.2Z"/></g></svg>