<svg xmlns="http://www.w3.org/2000/svg" width="24" height="24" fill="none"><g fill="#28303F"><path d="M20.85 7v10c0 2.67-2.17 4.84-4.85 4.84h-4c-2.68 0-4.85-2.17-4.85-4.84v-2a.85.85 0 1 1 1.7 0v2c0 1.73 1.41 3.15 3.15 3.15h4c1.74 0 3.15-1.42 3.15-3.15V7c0-1.74-1.41-3.16-3.15-3.16h-4c-1.74 0-3.15 1.42-3.15 3.16v2c0 .46-.38.84-.85.84s-.85-.38-.85-.84V7c0-2.68 2.17-4.85 4.85-4.85h4c2.68 0 4.85 2.17 4.85 4.85Z"/><path d="m14.6 12.6-2.5 2.5c-.33.33-.87.33-1.2 0a.863.863 0 0 1 0-1.21l1.05-1.05H3c-.47 0-.85-.38-.85-.84 0-.46.38-.85.85-.85h8.95L10.9 10.1a.863.863 0 0 1 0-1.21c.33-.33.87-.33 1.2 0l2.5 2.5c.33.34.33.87 0 1.21Z"/></g></svg>