<svg xmlns="http://www.w3.org/2000/svg" width="24" height="24" fill="none"><g fill="#28303F"><path d="M20.85 7v10c0 2.67-2.17 4.85-4.85 4.85h-4c-2.67 0-4.85-2.18-4.85-4.85v-3.15h2.62c-.24.66-.1 1.43.43 1.96.36.36.83.54 1.3.54.47 0 .95-.18 1.31-.54l2.5-2.5c.35-.35.54-.82.54-1.31 0-.49-.19-.96-.54-1.31l-2.5-2.5c-.7-.7-1.91-.7-2.61 0-.53.53-.67 1.3-.43 1.96H7.15V7c0-2.68 2.18-4.85 4.85-4.85h4c2.68 0 4.85 2.17 4.85 4.85Z"/><path d="M14.85 12a.8.8 0 0 1-.25.6l-2.5 2.5c-.33.33-.87.33-1.2 0a.851.851 0 0 1 0-1.2l1.05-1.05H3c-.46 0-.85-.38-.85-.85s.39-.85.85-.85h8.95L10.9 10.1a.851.851 0 0 1 0-1.2.87.87 0 0 1 1.2 0l2.5 2.5a.8.8 0 0 1 .25.6Z"/></g></svg>