<svg xmlns="http://www.w3.org/2000/svg" width="24" height="24" fill="none"><g fill="#28303F"><path d="M21.4 9.2c-.2-.4-.6-.7-1-1l-5.6-3.4c-1.7-1-4.1-1-5.8 0L3.4 8.2c-.4.3-.8.6-1 1-.3.4-.4.9-.4 1.3V16c0 1.1.6 2.2 1.5 3 .9.7 2.1 1.2 3.4 1.2h9.8c1.3 0 2.5-.4 3.4-1.2 1-.8 1.5-1.9 1.5-3v-5.5c.2-.5 0-.9-.2-1.3ZM20 16c0 .6-.3 1.2-.9 1.6-.6.5-1.5.8-2.3.8H7c-.9 0-1.7-.3-2.3-.8-.6-.4-.9-1-.9-1.6v-5.5c0-.1 0-.3.1-.4.1-.2.2-.3.4-.4l5.6-3.4c.6-.3 1.3-.5 2-.5s1.4.2 2 .5l5.6 3.4c.2.1.3.3.4.4.1.1.1.3.1.4V16Z"/><path d="m16.3 8.9-3-1.7c-.9-.5-2-.5-2.9.1L7.8 9c-.4.2-.5.8-.3 1.2.3.4.8.5 1.2.3l2.6-1.6c.3-.2.8-.2 1.1 0l3 1.7c.1.1.3.1.4.1.3 0 .6-.2.8-.5.3-.5.2-1-.3-1.3Z"/></g></svg>