<svg xmlns="http://www.w3.org/2000/svg" width="24" height="24" fill="none"><path fill="#28303F" d="M17.6 15.38a5.37 5.37 0 0 0-.48-.24c1.51-1.88 2.74-4.26 2.74-6.7 0-4.13-3.53-7.48-7.86-7.48S4.13 4.31 4.13 8.44c0 2.44 1.22 4.82 2.74 6.7-.16.07-.32.15-.48.24-1.53.84-2.38 1.98-2.38 3.19s.85 2.36 2.38 3.2c1.5.83 3.49 1.28 5.61 1.28s4.1-.45 5.6-1.28c1.54-.84 2.38-1.98 2.38-3.2 0-1.22-.84-2.35-2.38-3.19ZM12 5.26c1.72 0 3.12 1.4 3.12 3.11s-1.4 3.12-3.12 3.12c-1.72 0-3.13-1.4-3.13-3.12 0-1.72 1.4-3.11 3.13-3.11Zm4.78 15.02c-1.23.68-2.98 1.07-4.78 1.07-1.8 0-3.55-.39-4.79-1.07-.94-.52-1.5-1.15-1.5-1.71s.56-1.19 1.5-1.7c.26-.14.55-.27.85-.38.36.35.72.68 1.07.98 1.18.98 2.27 1.56 2.87 1.56.6 0 1.68-.58 2.86-1.56.35-.3.71-.62 1.07-.98.3.1.59.24.85.38.94.51 1.5 1.15 1.5 1.7s-.56 1.19-1.5 1.71Z"/></svg>