<svg xmlns="http://www.w3.org/2000/svg" width="24" height="24" fill="none"><g fill="#28303F"><path d="M11.99 6.67C9.6 6.67 7.66 8.61 7.66 11S9.6 15.34 12 15.34s4.33-1.94 4.33-4.34-1.95-4.33-4.34-4.33Zm0 6.92a2.59 2.59 0 0 1 0-5.18c1.43 0 2.59 1.17 2.59 2.59s-1.16 2.59-2.59 2.59Z"/><path d="M11.99 2C6.95 2 3 5.87 3 10.82c0 5.04 5.92 10.96 8.96 10.96 2.76 0 9.03-5.62 9.03-10.96-.01-4.95-3.96-8.82-9-8.82Zm-.03 18.03c-1.8 0-7.21-4.79-7.21-9.21 0-3.96 3.18-7.07 7.24-7.07 4.06 0 7.24 3.1 7.24 7.07 0 4.42-5.45 9.21-7.27 9.21Z"/></g></svg>