<svg xmlns="http://www.w3.org/2000/svg" width="24" height="24" fill="none"><g fill="#28303F"><path d="M19.5 10.88c0-.49-.39-.88-.87-.88s-.88.39-.88.88c0 1.6-.62 3.11-1.76 4.24a5.97 5.97 0 0 1-4.24 1.76c-1.2 0-2.35-.35-3.33-1.01L19.21 5.08c.34-.34.34-.9 0-1.24a.881.881 0 0 0-1.24 0l-2.34 2.34v-.3c0-2.14-1.74-3.88-3.87-3.88a3.89 3.89 0 0 0-3.88 3.88v5c0 .84.27 1.64.76 2.3L7.12 14.7a5.942 5.942 0 0 1-1.37-3.82c0-.49-.39-.88-.87-.88s-.88.39-.88.88c0 1.88.67 3.65 1.88 5.05l-1.59 1.59a.881.881 0 0 0 .62 1.5c.23 0 .45-.08.62-.26l1.65-1.65c1.1.81 2.39 1.32 3.76 1.47-.03.09-.06.19-.06.29v2c0 .48.39.88.88.88s.88-.39.88-.88v-2c0-.1-.03-.2-.06-.29 1.76-.18 3.4-.96 4.66-2.23a7.718 7.718 0 0 0 2.26-5.47Z"/><path d="M13.84 11.29c-.17.83-.83 1.5-1.66 1.66-.47.09-.78.55-.69 1.03.08.42.45.7.86.7.06 0 .11 0 .17-.02 1.54-.31 2.73-1.5 3.04-3.04a.881.881 0 0 0-.69-1.03.893.893 0 0 0-1.03.7Z"/></g></svg>