<svg xmlns="http://www.w3.org/2000/svg" width="24" height="24" fill="none"><g fill="#28303F"><path d="M13.72 5.202A7.61 7.61 0 0 0 9.607 4C5.408 4 2 7.36 2 11.5 2 15.64 5.408 19 9.607 19c2.076 0 3.96-.826 5.332-2.159-1.342-1.549-2.228-3.924-2.4-6.195-.18-2.431.23-4.3 1.181-5.445ZM21.699 10.608c-.905-3.914-3.552-6.561-5.456-6.59-.923.01-1.732.33-2.36.986-.058.057-.106.132-.153.198 2.094 1.332 3.484 3.65 3.484 6.289 0 2.084-.866 3.97-2.266 5.331.914 1.052 2.028 1.718 3.304 1.718 1.01 0 1.895-.432 2.552-1.248 1.161-1.455 1.514-4.018.895-6.684Z"/></g></svg>