<svg xmlns="http://www.w3.org/2000/svg" width="24" height="24" fill="none"><g fill="#28303F"><path d="M15.88 5.21h-3.86l3.19-1.3c.13.32.44.55.81.55.48 0 .88-.39.88-.87v-.21c0-.98-.99-1.64-1.89-1.27L6.96 5.39c-.01 0-.03.01-.04.01C5.71 5.91 5 7.27 5 8.68v10.36c0 1.69 1.09 3.47 2.88 3.47h8c1.78 0 2.88-1.78 2.88-3.47V8.68c-.01-1.69-1.1-3.47-2.88-3.47ZM17 19.04c0 1.17-.7 1.72-1.13 1.72h-8c-.42 0-1.13-.54-1.13-1.72V8.68c0-.9.45-1.49.84-1.66l.02-.01c.1-.03.19-.05.28-.05h8c.42 0 1.12.55 1.12 1.72v10.36Z"/><path d="M13.88 8.26h-2c-.49 0-.88.39-.88.87s.39.88.88.88h1.62v3.25h-3.25V9.63c0-.48-.39-.88-.88-.88s-.87.4-.87.88v4c0 .76.62 1.38 1.38 1.38h4c.76 0 1.38-.62 1.38-1.38v-4c-.01-.76-.63-1.37-1.38-1.37ZM14.38 17.26h-5c-.48 0-.88.39-.88.88s.39.88.88.88h5c.48 0 .88-.39.88-.88s-.4-.88-.88-.88Z"/></g></svg>