<svg xmlns="http://www.w3.org/2000/svg" width="24" height="24" fill="none"><path fill="#28303F" d="m16.88 5.44.02-1.8h-.01c0-.02.01-.04.01-.06v-.2c0-.98-.99-1.64-1.89-1.27L6.96 5.39c-.01 0-.03.01-.04.01C5.71 5.91 5 7.27 5 8.68v10.36c0 1.69 1.09 3.47 2.88 3.47h8c1.78 0 2.88-1.78 2.88-3.47V8.68c-.01-1.34-.71-2.72-1.88-3.24Zm-1.67-1.53v1.3h-3.19l3.19-1.3Zm-.83 15.1h-5c-.48 0-.88-.39-.88-.88s.39-.88.88-.88h5c.48 0 .88.39.88.88s-.4.88-.88.88Zm.87-5.38c0 .76-.62 1.38-1.38 1.38h-4c-.76 0-1.38-.62-1.38-1.38v-4c0-.48.39-.88.88-.88s.88.39.88.88v3.63h3.25v-3.25h-1.62c-.49 0-.88-.39-.88-.88s.39-.88.88-.88h2c.76 0 1.38.62 1.38 1.38v4h-.01Z"/></svg>