<svg xmlns="http://www.w3.org/2000/svg" width="24" height="24" fill="none"><path fill="#28303F" d="M13.26 7.07c0 1.37 1.07 2.48 2.38 2.48h3.12v7.13c0 2.25-1.74 4.08-3.88 4.08h-6C6.74 20.76 5 18.93 5 16.68v-9.6C5 4.83 6.74 3 8.88 3h4.38v4.07ZM7.5 16.5h.74v-1.12h.63c.27 0 .5-.05.69-.15.19-.09.34-.23.44-.41.1-.17.15-.37.15-.6 0-.23-.05-.44-.15-.61-.1-.18-.24-.32-.43-.42-.19-.1-.41-.15-.68-.15H7.5v3.46Zm3.14 0h1.25c.35 0 .66-.07.92-.2.26-.14.46-.34.59-.6.14-.26.21-.57.21-.93 0-.36-.07-.67-.21-.93a1.4 1.4 0 0 0-.59-.59c-.25-.14-.56-.21-.91-.21h-1.26v3.46Zm3.52 0h.75v-1.43h1.43v-.6h-1.43v-.83h1.59v-.6h-2.34v3.46Zm-2.3-2.83c.22 0 .4.04.55.11.15.08.27.2.34.36.08.16.12.37.12.63s-.04.47-.12.63c-.07.16-.19.28-.34.36-.15.08-.33.12-.55.12h-.48v-2.21h.48Zm-3.11-.03c.14 0 .26.02.35.07.1.05.17.12.21.2.05.09.08.19.08.31-.01.11-.03.21-.08.3-.04.08-.11.15-.21.2-.09.05-.21.07-.35.07h-.51v-1.15h.51Zm6.27-9.99c.08.08.17.16.25.26l2.95 3.78c.029.04.068.106.07.11h-2.64c-.35 0-.63-.33-.63-.73V3.65Z"/></svg>