<svg xmlns="http://www.w3.org/2000/svg" width="24" height="24" fill="none"><path fill="#28303F" d="M13.43 3c.72 0 1.39.33 1.84.91l2.95 3.78c.34.44.53 1 .53 1.56v7.42c0 2.25-1.74 4.08-3.87 4.08h-6C6.74 20.75 5 18.92 5 16.67v-9.6C5 4.83 6.74 3 8.88 3h4.55ZM8.88 4.75c-1.17 0-2.13 1.04-2.13 2.33v9.6c0 1.28.95 2.32 2.13 2.32h6c1.17 0 2.13-1.04 2.13-2.33V9.55h-1.38c-1.31 0-2.38-1.11-2.38-2.47V4.75H8.88Zm.35 8.48c.24 0 .44.05.61.14.17.08.3.21.38.36.09.16.14.33.14.54 0 .21-.05.39-.14.55-.09.15-.22.27-.39.36-.17.09-.37.13-.61.13h-.56v1H8v-3.08h1.23Zm2.68 0c.31 0 .58.06.81.19.23.12.4.3.53.52.12.23.18.51.18.83 0 .32-.06.59-.18.82-.13.23-.3.41-.53.53-.23.13-.5.19-.82.19h-1.11v-3.08h1.12Zm4.09 0v.54h-1.41v.73h1.27v.54h-1.27v1.27h-.67v-3.08H16Zm-4.55 2.52h.42c.2 0 .36-.03.49-.1.14-.07.24-.18.31-.32.07-.15.1-.33.1-.56 0-.23-.03-.42-.1-.56a.717.717 0 0 0-.3-.32c-.14-.07-.3-.1-.5-.1h-.42v1.96Zm-2.79-.96h.45c.13 0 .23-.02.31-.06.09-.05.15-.11.19-.19.04-.07.06-.16.06-.27 0-.1-.02-.19-.06-.26a.372.372 0 0 0-.19-.18.708.708 0 0 0-.31-.07h-.45v1.03ZM15 7.08c0 .4.28.72.63.72h.46L15 6.42v.66Z"/></svg>