<svg xmlns="http://www.w3.org/2000/svg" width="32" height="32" fill="none"><path fill="#28303F" fill-rule="evenodd" d="M16.72 4c3.6 0 5.573 0 6.973 1.667C25 7.24 25 9.4 24.973 13.693v4.267c0 4.293 0 6.453-1.306 8.026-1.387 1.667-3.36 1.667-6.96 1.667h-1.773c-3.587 0-5.574 0-6.96-1.667-1.307-1.573-1.307-3.733-1.307-8.026v-4.267c0-4.293 0-6.453 1.32-8.026C9.372 4 11.346 4 14.946 4h1.773Zm-6.586 19.333h1V21.84h.826c.36 0 .667-.067.934-.2.253-.12.44-.306.573-.546.133-.227.213-.494.213-.801a1.6 1.6 0 0 0-.2-.813 1.453 1.453 0 0 0-.574-.56c-.253-.133-.56-.2-.92-.2h-1.852v4.613Zm4.186 0h1.666c.48 0 .894-.093 1.227-.267a1.93 1.93 0 0 0 .8-.8c.174-.346.28-.76.28-1.24-.013-.48-.106-.892-.28-1.239a1.946 1.946 0 0 0-.786-.787c-.347-.187-.76-.28-1.227-.28h-1.68v4.613Zm4.706 0h.988v-1.906h1.92v-.8h-1.92V19.52h2.12v-.8h-3.108v4.613Zm-3.08-3.773c.294 0 .547.054.747.147.2.107.347.266.453.48.094.213.147.493.147.84 0 .346-.053.626-.146.84a1.02 1.02 0 0 1-.467.48c-.2.106-.44.16-.734.16h-.626V19.56h.626Zm-4.146-.04c.186 0 .347.027.48.093a.77.77 0 0 1 .28.267c.053.12.093.253.093.413 0 .147-.04.28-.093.4a.77.77 0 0 1-.28.267 1.03 1.03 0 0 1-.48.094h-.666V19.52h.666Zm4.174-9.707s.853-3.546-.587-3.106c-1.12.32-.148 3.278-.134 3.333-.009.022-.857 2.166-1.666 3.413-1.707.814-2.88 2.067-1.88 2.427 1.213.493 2.24-2.107 2.56-2.24 1.157-.453 3.321-.81 3.373-.813 1.44.853 3.32 1.12 3.187 0-.04-.68-.947-.854-2.92-.627-.024-.005-1.181-.249-1.933-2.387Zm-2.614 4.093c-.24.52-1.253 1.614-1.4 1.614-.253-.067.614-1.134 1.4-1.614Zm5.413-1.253c.494-.146 1.734.08 1.734.24.04.347-1.094.267-1.734-.24Zm-3.16-1.893c.307.706 1.374 1.64 1.4 1.653-.026.013-1.453.24-2.52.68.014-.04.894-1.72 1.12-2.333Zm-.04-3.734c.36-.12.534 1.12.134 1.934-.267-.493-.307-1.88-.134-1.934Z" clip-rule="evenodd"/></svg>