<svg xmlns="http://www.w3.org/2000/svg" width="32" height="32" fill="none"><path fill="#28303F" fill-rule="evenodd" d="M16.72 4c3.6 0 5.573 0 6.973 1.667C25 7.24 25 9.4 25 13.693v4.267c0 4.293 0 6.453-1.307 8.026-1.4 1.68-3.373 1.681-6.973 1.681h-1.774c-3.6 0-5.573 0-6.96-1.667-1.32-1.573-1.319-3.733-1.319-8.04v-4.267c0-4.293 0-6.453 1.307-8.026C9.374 4 11.347 4 14.946 4h1.774Zm-1.774 2.333c-3.186 0-4.506.027-5.173.827C9 8.08 9 10.08 9 13.693v4.267c0 3.613 0 5.613.773 6.533.667.814 1.987.84 5.173.84h1.774c3.186 0 4.507-.026 5.174-.826.773-.934.773-2.92.773-6.547v-4.267c0-3.613 0-5.613-.773-6.533-.667-.8-1.988-.827-5.174-.827h-1.774Zm-2.63 12.642c.316 0 .586.059.809.177.223.118.394.282.51.492.119.208.177.448.178.72 0 .273-.06.514-.18.722-.12.208-.293.37-.52.486-.226.116-.5.175-.82.175h-.743v1.33h-.883v-4.102h1.648Zm3.564 0c.42 0 .783.081 1.086.246.303.163.536.397.699.703.165.306.247.672.247 1.098 0 .427-.082.794-.247 1.101a1.68 1.68 0 0 1-.704.707c-.305.164-.669.247-1.093.247h-1.481v-4.102h1.493Zm5.453.714H19.45v.978h1.7v.716h-1.7v1.694h-.884v-4.102h2.767v.714Zm-6.063 2.645h.561c.261 0 .481-.046.66-.137a.884.884 0 0 0 .403-.427c.09-.193.137-.443.137-.748 0-.304-.046-.551-.137-.744a.876.876 0 0 0-.402-.424 1.442 1.442 0 0 0-.659-.136h-.563v2.616Zm-3.72-1.282h.6c.17 0 .31-.029.42-.086a.578.578 0 0 0 .25-.243.75.75 0 0 0 .083-.359.73.73 0 0 0-.084-.356.555.555 0 0 0-.249-.238.926.926 0 0 0-.425-.086h-.595v1.368ZM15.382 8.01c1.44-.45.597 3.088.589 3.122.763 2.155 1.927 2.395 1.945 2.398 1.99-.226 2.896-.045 2.941.633.136 1.131-1.765.86-3.212 0-.016.003-2.222.364-3.394.814-.317.136-1.358 2.76-2.58 2.264-.995-.362.182-1.63 1.901-2.444.808-1.257 1.66-3.403 1.674-3.439-.008-.025-.99-3.032.136-3.348Zm-2.035 7.248c-.805.474-1.67 1.553-1.413 1.614.121.025 1.16-1.099 1.413-1.614Zm7.188-1.023c-.02-.157-1.254-.39-1.744-.247.643.511 1.783.588 1.744.247Zm-4.927-2.153c-.225.63-1.122 2.338-1.13 2.353 1.085-.452 2.534-.68 2.534-.68-.013-.01-1.089-.953-1.404-1.673Zm-.045-3.756c-.167.056-.135 1.449.136 1.947.407-.815.226-2.067-.136-1.947Z" clip-rule="evenodd"/></svg>