<svg xmlns="http://www.w3.org/2000/svg" width="24" height="24" fill="none"><g fill="#28303F" fill-rule="evenodd" clip-rule="evenodd"><path d="M17.4 13.6c-.7-.7-1.9-.7-2.6 0l-.8.8c-2-1.1-3.7-2.7-4.8-4.8l.8-.8c.7-.7.7-1.9 0-2.6L7.4 3.5c-.7-.7-1.9-.7-2.5 0-2.2 2.2-2.5 5.8-.6 8.3l1.2 1.6c1.3 1.8 3 3.4 4.8 4.8l1.6 1.2c1.1.8 2.5 1.3 3.8 1.3 1.6 0 3.3-.6 4.5-1.9.3-.3.5-.8.5-1.3s-.2-.9-.5-1.3l-2.8-2.6Z"/><path d="M14 10.5h5c.5 0 .9-.4.9-.9s-.4-.9-.9-.9h-2.9l4.3-4.3c.3-.3.3-.9 0-1.2-.3-.3-.9-.3-1.2 0l-4.3 4.3V4.6c0-.5-.4-.9-.9-.9s-.9.4-.9.9v5c0 .5.4.9.9.9Z"/></g></svg>