<svg xmlns="http://www.w3.org/2000/svg" width="24" height="24" fill="none"><g fill="#28303F" fill-rule="evenodd" clip-rule="evenodd"><path d="M14 10.5h5c.5 0 .9-.4.9-.9s-.4-.9-.9-.9h-2.9l4.3-4.3c.3-.3.3-.9 0-1.2-.3-.3-.9-.3-1.2 0l-4.3 4.3V4.6c0-.5-.4-.9-.9-.9s-.9.4-.9.9v5c0 .5.4.9.9.9Z"/><path d="m20.16 16.23-2.8-2.6c-.7-.7-1.9-.7-2.6 0l-.8.8c-2-1.1-3.7-2.7-4.8-4.8l.8-.8c.7-.7.7-1.9 0-2.6l-2.6-2.7c-.7-.7-1.9-.7-2.5 0-2.2 2.2-2.5 5.8-.6 8.3l1.2 1.6c1.3 1.8 3 3.4 4.8 4.8l1.6 1.2c1.1.8 2.5 1.12 3.8 1.12 1.6 0 2.92-.4 4.37-1.68.3-.3.63-.84.63-1.34 0-.5-.2-.91-.5-1.3Zm-1.72 1.58c-1.6 1.33-3.91 1.43-5.69.11l-1.6-1.2c-1.6-1.2-3.1-2.7-4.4-4.4l-1.1-1.6C4.32 9 4.44 6.55 5.94 4.94c.11-.12.31-.12.43 0l2.19 2.28c.16.17.16.44-.01.61l-.8.8c-.5.4-.6 1.1-.3 1.6 1.3 2.5 3.3 4.6 5.9 5.9.5.3 1.2.2 1.6-.3l.76-.76c.15-.15.41-.15.56 0l2.18 2.16c.17.16.17.43-.01.58Z"/></g></svg>