<svg xmlns="http://www.w3.org/2000/svg" width="24" height="24" fill="none"><g fill="#28303F" fill-rule="evenodd" clip-rule="evenodd"><path d="M12.21 8.5c.19 0 .38-.07.53-.22l2.72-2.72v.69c0 .41.34.75.75.75s.75-.34.75-.75v-2.5a.776.776 0 0 0-.22-.53.633.633 0 0 0-.24-.16.717.717 0 0 0-.29-.06h-2.5c-.41 0-.75.34-.75.75s.34.75.75.75h.69l-2.72 2.72c-.29.29-.29.77 0 1.06.14.15.33.22.53.22ZM20.74 7.22a.754.754 0 0 0-1.06 0l-2.72 2.72v-.69c0-.41-.34-.75-.75-.75s-.75.34-.75.75v2.5a.776.776 0 0 0 .22.53c.07.07.15.13.24.16.09.04.19.06.29.06h2.5c.41 0 .75-.34.75-.75s-.34-.75-.75-.75h-.69l2.72-2.72c.29-.29.29-.77 0-1.06Z"/><path d="M17.36 14.1c-.7-.7-1.9-.7-2.6 0l-.8.8c-2-1.1-3.7-2.7-4.8-4.8l.8-.8c.7-.7.7-1.9 0-2.6L7.36 4c-.7-.7-1.9-.7-2.5 0-2.2 2.2-2.5 5.8-.6 8.3l1.2 1.6c1.3 1.8 3 3.4 4.8 4.8l1.6 1.2c1.1.8 2.5 1.12 3.8 1.12 1.6 0 2.92-.4 4.37-1.68.3-.3.63-.84.63-1.34 0-.5-.2-.9-.5-1.3l-2.8-2.6Zm1.08 4.19c-1.6 1.33-3.91 1.43-5.69.11l-1.6-1.2c-1.6-1.2-3.1-2.7-4.4-4.4l-1.1-1.6c-1.33-1.72-1.21-4.17.29-5.78.11-.12.31-.12.43 0L8.56 7.7c.16.17.16.44-.01.6l-.8.8c-.5.4-.6 1.1-.3 1.6 1.3 2.5 3.3 4.6 5.9 5.9.5.3 1.2.2 1.6-.3l.76-.76c.15-.15.41-.15.56 0l2.18 2.16c.17.16.17.44-.01.59Z"/></g></svg>