<svg xmlns="http://www.w3.org/2000/svg" width="24" height="24" fill="none"><g fill="#28303F"><path d="m17.72 11.89-6.1-.03V5.78a.993.993 0 0 0-1.04-1A7.876 7.876 0 0 0 3.6 9.63a7.866 7.866 0 0 0 1.7 8.57c1.1 1.1 2.5 1.85 4.03 2.15.51.1 1.03.15 1.54.15a7.876 7.876 0 0 0 7.85-7.58.986.986 0 0 0-.28-.73c-.18-.19-.45-.3-.72-.3Zm-1.56 4.28a6.3 6.3 0 0 1-2.86 2.34 6.355 6.355 0 0 1-8.68-4.63c-.24-1.24-.12-2.51.37-3.68a6.352 6.352 0 0 1 5.12-3.89v5.54c0 .85.69 1.53 1.53 1.53h5.54c-.11 1-.47 1.96-1.02 2.79Z"/><path d="M19.98 7.3c-.35-.85-.86-1.61-1.51-2.26a6.898 6.898 0 0 0-2.26-1.51c-.77-.32-1.57-.49-2.39-.53-.26-.01-.54.09-.73.28-.19.19-.31.45-.31.73v5.86c0 .47.38.85.85.85h5.86c.27 0 .54-.11.73-.31.19-.19.29-.46.28-.73-.04-.82-.21-1.62-.52-2.38Zm-5.7-2.75c.46.06.91.19 1.34.37a5.508 5.508 0 0 1 3.34 4.31h-4.68V4.55Z"/></g></svg>