<svg xmlns="http://www.w3.org/2000/svg" width="24" height="24" fill="none"><path fill="#28303F" d="m19.42 6.85-2.68-2.68c-.65-.65-1.08-1.08-1.79-1.15-.71-.07-1.22.27-1.99.78l.55.83-.55-.84-2.48 1.65c-.81.54-1.21.81-1.61 1-.29.14-.59.27-.9.37-.41.15-.88.24-1.84.43l-.95.19-.08.02c-.63.15-1.15.59-1.39 1.2-.25.62-.18 1.33.23 1.91 1.07 1.54 2.26 2.96 3.54 4.3l-4.23 4.23a.881.881 0 0 0 .62 1.5c.23 0 .45-.08.62-.26l4.23-4.23c1.35 1.29 2.79 2.49 4.35 3.57l.26.17h.05a1.956 1.956 0 0 0 1.57.03c.63-.25 1.08-.8 1.2-1.4l.21-1.02c.19-.95.28-1.42.42-1.84.1-.3.23-.61.38-.9.2-.39.47-.8 1-1.6l1.65-2.47c.51-.77.85-1.28.78-1.99-.08-.72-.51-1.15-1.17-1.8Zm-1.29 2.67L16.49 12c-.57.85-.88 1.31-1.13 1.82-.19.38-.35.77-.48 1.16-.18.54-.29 1.09-.49 2.09l-.19.96-.14-.1a34.11 34.11 0 0 1-8.5-8.53l.97-.2c1.03-.2 1.55-.31 2.08-.49.4-.13.79-.29 1.16-.48.51-.25.95-.54 1.82-1.13l2.47-1.65c.25-.17.53-.35.68-.43.13.1.37.34.58.55L18 8.25c.21.21.45.45.55.58-.06.16-.25.44-.42.69Z"/></svg>