<svg xmlns="http://www.w3.org/2000/svg" width="24" height="24" fill="none"><path fill="#28303F" d="M21.3 6.18c.44-.44.7-1.05.7-1.74 0-.7-.26-1.3-.7-1.74-.44-.44-1.13-.7-1.75-.7-.7 0-1.31.26-1.75.7l-1.92 1.91c-.2.27-.5.38-.83.38-.1 0-.2-.01-.31-.03L5.4 2.52c-.09-.02-.17-.03-.26-.03-.26 0-.5.1-.7.29L3.22 4c-.53.52-.35 1.39.26 1.74l6.9 3.57c.26.17.35.52.09.78L7.5 12.96c-.27.27-.58.38-.91.38-.1 0-.21-.01-.31-.03l-2.01-.52c-.09-.02-.18-.03-.27-.03-.28 0-.58.1-.77.29l-.87.87c-.52.43-.44 1.3.17 1.65l3.41 2.17.35.35 2.1 3.39c.18.34.51.52.85.52.27 0 .56-.11.79-.34l.79-.78c.35-.35.44-.78.35-1.22l-.52-2c-.09-.43 0-.87.26-1.22l2.97-2.87c.11-.11.23-.16.36-.16.17 0 .33.09.43.24l3.06 6.96c.21.36.6.57.99.57.27 0 .54-.1.75-.31l1.22-1.22a.98.98 0 0 0 .26-.96l-1.83-9.48c-.09-.35 0-.78.35-1.13l1.83-1.9Zm-3.89 3.41 1.72 8.87-.02-.02s.03.13.02.2c-.01.06-.1.15-.1.15s-.05.05-.11.06c-.05 0-.09-.07-.09-.08l-2.56-5.82-.06-.14-.09-.13a2.266 2.266 0 0 0-1.88-1.02c-.59 0-1.16.24-1.57.65L9.7 15.18l-.1.1-.08.11c-.57.73-.78 1.69-.59 2.61l.01.05.01.05.45 1.72-1.64-2.65-.1-.17-.15-.15-.35-.35-.13-.13-.16-.1-2.64-1.68 1.61.41.05.01.05.01c.22.04.44.07.65.07.81 0 1.57-.32 2.13-.87l2.98-2.89c.49-.48.73-1.15.66-1.81-.06-.68-.43-1.29-1.01-1.67l-.08-.05-.09-.05-5.92-3.06c-.02-.01-.04-.03-.04-.05 0-.06.04-.12.04-.12s.07-.1.14-.13c.06-.02.2-.02.2-.02l8.72 2.27.05.01.05.01c.22.04.44.07.65.07a2.8 2.8 0 0 0 2.13-.95l1.86-1.85c.12-.12.3-.19.51-.19.18 0 .43.1.51.19.12.12.18.29.18.5a.7.7 0 0 1-.21.53l-1.81 1.88c-.75.75-1.06 1.77-.83 2.75Z"/></svg>