<svg xmlns="http://www.w3.org/2000/svg" width="24" height="24" fill="none"><path fill="#28303F" d="M21.79 2.55A1.87 1.87 0 0 0 20.46 2c-.48 0-.97.18-1.33.55l-2.82 2.8L6.18 3.58a1.84 1.84 0 0 0-.41-.04 2.372 2.372 0 0 0-1.66.68l-.64.64c-.05.05-.09.12-.12.19-.02.07-.02.15-.01.22s.05.15.1.2c.05.06.11.11.18.14l8.69 3.69-4.32 4.28-3.57-.82c-.11-.02-.21-.04-.32-.04-.37 0-.73.14-1 .41l-.96.97c-.05.05-.09.12-.12.19-.02.07-.03.14-.01.22.02.08.04.14.09.2.05.06.11.11.17.14l4.84 2.24 2.26 4.8c.03.07.08.13.14.17.06.05.13.08.2.09.03 0 .05.01.08.01.05 0 .1-.01.14-.02.07-.02.14-.06.19-.11l.96-.95c.35-.34.49-.83.38-1.3l-.82-3.53 4.32-4.28 3.72 8.61c.03.07.08.13.14.18.06.05.13.08.21.09.03.01.06.01.09.01.05 0 .09-.01.14-.02.07-.02.14-.06.2-.12l.64-.63a2.321 2.321 0 0 0 .65-2.06L18.97 7.99l2.82-2.8c.74-.73.74-1.92 0-2.64Z"/></svg>