<svg xmlns="http://www.w3.org/2000/svg" width="24" height="24" fill="none"><g fill="#28303F"><path d="M14.62 11.23h-1.64V9.59c0-.48-.39-.88-.88-.88s-.87.4-.87.88v1.64H9.59c-.48 0-.88.39-.88.88s.39.87.88.87h1.64v1.64c0 .48.39.88.88.88s.88-.39.88-.88v-1.64h1.64c.48 0 .88-.39.88-.87s-.41-.88-.89-.88Z"/><path d="M16.51 3H7.44C4.99 3 3 4.99 3 7.44v9.07c0 2.45 1.99 4.44 4.44 4.44h9.07c2.45 0 4.44-1.99 4.44-4.44V7.44c0-2.45-1.99-4.44-4.44-4.44Zm2.69 13.51c0 1.48-1.21 2.69-2.69 2.69H7.44c-1.48 0-2.69-1.21-2.69-2.69V7.44c0-1.48 1.21-2.69 2.69-2.69h9.07c1.48 0 2.69 1.21 2.69 2.69v9.07Z"/></g></svg>