<svg xmlns="http://www.w3.org/2000/svg" width="32" height="32" fill="none"><path fill="#28303F" fill-rule="evenodd" d="M16.732 4.009c3.598 0 5.57 0 6.97 1.665 1.318 1.585 1.318 3.742 1.291 8.03v4.262c0 4.288 0 6.446-1.32 8.031-1.385 1.665-3.356 1.665-6.953 1.665h-1.773c-3.597 0-5.582 0-6.968-1.665-1.305-1.585-1.305-3.743-1.305-8.031v-4.262c0-4.288 0-6.445 1.318-8.03 1.386-1.665 3.358-1.665 6.969-1.665h1.771Zm3.532 14.063c-.28 0-.547.055-.787.148a1.77 1.77 0 0 0-.64.412 1.997 1.997 0 0 0-.439.68 2.746 2.746 0 0 0-.146.905c0 .44.08.826.253 1.145.173.32.413.56.72.733.306.173.652.266 1.065.266.36 0 .68-.08.959-.213a1.61 1.61 0 0 0 .653-.613c.16-.266.24-.572.24-.945v-.52h-1.798v.666h.919a.88.88 0 0 1-.107.427.713.713 0 0 1-.346.306c-.134.066-.32.106-.52.106-.226 0-.426-.053-.586-.159a1.06 1.06 0 0 1-.4-.467c-.08-.2-.133-.466-.133-.745 0-.28.053-.534.146-.733.094-.2.214-.36.387-.466.16-.107.36-.16.572-.16.12 0 .227.027.32.053a.816.816 0 0 1 .466.32c.054.066.094.16.12.253h.92a1.41 1.41 0 0 0-.2-.559 1.424 1.424 0 0 0-.4-.453 1.839 1.839 0 0 0-.559-.28 2.27 2.27 0 0 0-.68-.107Zm-10.126 4.223h.919v-1.346h.76c.332 0 .612-.067.838-.186.24-.107.414-.28.547-.493a1.46 1.46 0 0 0 .187-.732c0-.28-.067-.52-.187-.732a1.2 1.2 0 0 0-.533-.494 1.76 1.76 0 0 0-.826-.186h-1.705v4.169Zm3.837 0h.906V19.67h.04l1.865 2.624h.786v-4.169h-.906v2.624h-.04l-1.852-2.624h-.8v4.169Zm-2.305-3.45c.173 0 .32.027.44.094.107.053.2.133.253.24.053.106.08.226.08.36a.815.815 0 0 1-.08.373.63.63 0 0 1-.253.24c-.12.054-.267.093-.44.093h-.613v-1.4h.613Zm1.079-6.26h-1.293v1.293h1.293v1.305h-1.293v1.305h1.293v-1.305h1.306v-1.304h-1.306v-1.293h1.306v-1.304h-1.306v1.304Zm1.306 3.903h1.305v-1.303h-1.305v1.303Zm2.611 0h1.292v-1.303h-1.292v1.303Zm2.599 0h1.305v-1.305h-1.305v1.305Zm-3.904-1.305h1.305v-1.304h-1.305v1.304Zm3.904-1.304h-1.306v1.304h1.306v-1.305h1.305v-1.292h-1.305v1.293Zm-5.21-.001h1.305v-1.291h-1.304v1.29Zm2.612 0h1.291v-1.291h-1.291v1.29Zm-1.306-1.292h1.305v-1.304h-1.305v1.304Zm2.598 0h1.306v-1.304h-1.306v1.304Zm-5.21-2.61h-1.293v1.304h1.293V9.976h1.306V8.684h-1.306v1.292Zm2.611 0h-1.304v1.304h1.304V9.976h1.306V8.684H15.36v1.292Zm2.598 0h-1.291v1.304h1.291V9.976h1.307V8.684h-1.307v1.292Zm1.307 1.304h1.305V9.976h-1.305v1.304Z" clip-rule="evenodd"/></svg>