<svg xmlns="http://www.w3.org/2000/svg" width="24" height="24" fill="none"><path fill="#28303F" d="M13.26 7.07c0 1.37 1.07 2.48 2.38 2.48h3.12v7.13c0 2.25-1.74 4.08-3.88 4.08h-6C6.74 20.76 5 18.93 5 16.68v-9.6C5 4.83 6.74 3 8.88 3h4.38v4.07Zm1.83 6.48c-.21 0-.41.03-.59.11-.19.07-.35.17-.49.31-.13.14-.24.31-.32.51-.07.2-.11.42-.11.68 0 .33.06.61.19.85s.31.43.54.56c.23.13.49.19.79.19.27 0 .52-.05.73-.16.21-.1.37-.26.49-.45.12-.2.18-.44.18-.71v-.4h-1.35v.5h.69c0 .13-.03.24-.08.33-.06.1-.15.17-.26.23-.11.05-.24.08-.39.08-.17 0-.32-.04-.45-.12a.842.842 0 0 1-.29-.35c-.06-.16-.1-.34-.1-.56 0-.22.04-.4.11-.55.07-.15.16-.27.29-.35.12-.08.27-.12.43-.12.09 0 .17.01.24.03.08.03.14.06.2.1.05.04.1.09.14.14.04.06.07.13.1.2h.69c-.02-.15-.07-.3-.15-.42-.08-.13-.18-.24-.3-.34-.12-.09-.26-.16-.42-.22-.16-.05-.33-.07-.51-.07ZM7.5 16.72h.68V15.7h.58c.24 0 .46-.04.63-.13.18-.09.31-.21.4-.37.09-.16.14-.34.14-.55 0-.21-.05-.39-.14-.55a.93.93 0 0 0-.39-.37c-.17-.09-.38-.14-.63-.14H7.5v3.13Zm2.87 0h.69v-1.97h.02l1.4 1.97h.59v-3.13h-.68v1.97h-.02l-1.4-1.97h-.6v3.13Zm-1.73-2.59c.13 0 .24.02.33.07.09.04.15.1.19.18.05.08.07.17.07.27s-.02.19-.07.27c-.04.08-.1.14-.19.19-.08.04-.19.06-.32.06h-.47v-1.04h.46Zm6.38-10.48c.08.08.17.16.25.26l2.95 3.78c.029.04.068.106.07.11h-2.65c-.35 0-.63-.33-.63-.73h.01V3.65Z"/></svg>