<svg xmlns="http://www.w3.org/2000/svg" width="24" height="24" fill="none"><path fill="#28303F" d="M13.43 3c.72 0 1.39.33 1.84.91l2.95 3.78c.34.44.53 1 .53 1.56v7.42c0 2.25-1.74 4.08-3.87 4.08h-6C6.74 20.75 5 18.92 5 16.67v-9.6C5 4.83 6.74 3 8.88 3h4.55ZM8.88 4.75c-1.17 0-2.13 1.04-2.13 2.33v9.6c0 1.28.95 2.32 2.13 2.32h6c1.17 0 2.13-1.04 2.13-2.33V9.55h-1.38c-1.31 0-2.38-1.11-2.38-2.47V4.75H8.88Zm5.866 8.977c.163 0 .314.023.454.069.14.045.265.109.373.192.11.084.199.183.268.298a.99.99 0 0 1 .133.377h-.617a.599.599 0 0 0-.083-.175.57.57 0 0 0-.304-.213.759.759 0 0 0-.214-.029.707.707 0 0 0-.387.106.7.7 0 0 0-.258.308 1.176 1.176 0 0 0-.091.492c0 .194.03.359.09.495.061.135.147.239.258.31.111.07.242.107.394.107a.801.801 0 0 0 .351-.07.52.52 0 0 0 .225-.204.579.579 0 0 0 .078-.29H14.8v-.442H16v.35c0 .243-.053.454-.16.63-.106.174-.253.31-.44.404-.186.095-.4.142-.641.142-.27 0-.506-.058-.71-.173a1.213 1.213 0 0 1-.475-.493 1.607 1.607 0 0 1-.17-.76c0-.226.034-.427.1-.603a1.239 1.239 0 0 1 .713-.732c.163-.064.34-.096.53-.096Zm-5.614.038c.217 0 .402.04.556.12.153.08.27.19.35.333a.965.965 0 0 1 .122.489.955.955 0 0 1-.123.488.84.84 0 0 1-.357.33 1.235 1.235 0 0 1-.564.119h-.51v.9H8v-2.78h1.132Zm3.192 1.749h.026v-1.75h.603v2.78h-.523l-1.248-1.75h-.022v1.75h-.606v-2.78h.532l1.238 1.75Zm-3.718-.341h.413a.63.63 0 0 0 .288-.059.395.395 0 0 0 .17-.164.503.503 0 0 0 .058-.243.491.491 0 0 0-.057-.242.379.379 0 0 0-.171-.161.641.641 0 0 0-.291-.059h-.41v.928ZM15 7.08c0 .4.28.72.63.72h.46L15 6.42v.66Z"/></svg>