<svg xmlns="http://www.w3.org/2000/svg" width="32" height="32" fill="none"><path fill="#28303F" fill-rule="evenodd" d="M16.72 4c3.6 0 5.573 0 6.96 1.666 1.306 1.572 1.306 3.73 1.306 8.021v4.265c0 4.291 0 6.45-1.306 8.023-1.387 1.678-3.36 1.678-6.96 1.678h-1.774c-3.6 0-5.573 0-6.96-1.666-1.32-1.572-1.319-3.73-1.319-8.035v-4.265c0-4.29 0-6.449 1.293-8.021C9.36 4 11.347 4 14.946 4h1.774Zm-1.774 2.332c-3.186 0-4.506.027-5.173.826C9 8.078 9 10.076 9 13.688v4.264c0 3.611 0 5.61.773 6.53.667.812 1.987.84 5.173.84h1.774c3.186 0 4.507-.027 5.174-.827.773-.933.773-2.918.773-6.543v-4.265c0-3.61 0-5.61-.773-6.529-.667-.8-1.988-.826-5.174-.826h-1.774Zm4.841 11.967c.213 0 .427.026.613.093.187.053.347.147.494.253.146.12.266.24.359.4.08.146.147.32.174.506H20.6a1.001 1.001 0 0 0-.107-.24 1.069 1.069 0 0 0-.173-.173 1.189 1.189 0 0 0-.226-.107 1.047 1.047 0 0 0-.294-.04c-.2 0-.36.054-.52.147a.904.904 0 0 0-.334.4c-.08.187-.133.4-.133.666 0 .253.04.48.133.653a.87.87 0 0 0 .334.413.998.998 0 0 0 .534.147c.173 0 .333-.04.466-.094a.662.662 0 0 0 .293-.28.729.729 0 0 0 .107-.386h-.826v-.586h1.613v.466c0 .333-.08.613-.214.84-.147.24-.346.413-.586.546a2.02 2.02 0 0 1-.867.186c-.347 0-.667-.08-.947-.239a1.561 1.561 0 0 1-.626-.653A2.184 2.184 0 0 1 18 20.204c0-.293.04-.56.134-.8.093-.24.212-.44.386-.6a1.43 1.43 0 0 1 .56-.372c.227-.094.454-.133.707-.133Zm-7.48.053c.28 0 .533.053.733.16.213.106.36.253.467.44a1.324 1.324 0 0 1 0 1.306 1.103 1.103 0 0 1-.48.44c-.2.106-.454.16-.747.16h-.68v1.199h-.8v-3.705h1.507Zm4.253 2.332h.027v-2.332h.813v3.705h-.707l-1.653-2.332h-.026v2.332H14.2v-3.705h.706l1.654 2.332Zm-4.96-.454h.546c.16 0 .294-.025.387-.079a.469.469 0 0 0 .227-.226c.053-.094.08-.2.08-.32a.632.632 0 0 0-.08-.32.445.445 0 0 0-.227-.214.797.797 0 0 0-.386-.08H11.6v1.24Zm1.147-3.756H11.44V15.18h1.307v1.293Zm2.6 0H14.04V15.18h1.307v1.293Zm2.6 0H16.64V15.18h1.306v1.293Zm2.6 0h-1.294V15.18h1.294v1.293ZM14.04 15.18h-1.293v-1.307h1.293v1.307Zm2.6 0h-1.293v-1.307h1.293v1.307Zm2.613 0h-1.307v-1.307h1.307v1.307Zm-6.506-1.306H11.44v-1.307h1.307v1.307Zm2.6 0H14.04v-1.307h1.307v1.307Zm2.6 0H16.64v-1.307h1.306v1.307Zm2.6 0h-1.294v-1.307h1.294v1.307Zm-6.507-1.306h-1.293v-1.293h1.293v1.293Zm2.6 0h-1.293v-1.293h1.293v1.293Zm2.613 0h-1.307v-1.293h1.307v1.293Zm-6.506-1.293H11.44V9.97h1.307v1.306Zm2.6 0H14.04V9.97h1.307v1.306Zm2.6 0H16.64V9.97h1.306v1.306Zm2.6 0h-1.294V9.97h1.294v1.306ZM14.04 9.971h-1.293V8.664h1.293v1.307Zm2.6 0h-1.293V8.664h1.293v1.307Zm2.613-1.307v1.307h-1.307V8.664h1.307Z" clip-rule="evenodd"/></svg>