<svg xmlns="http://www.w3.org/2000/svg" width="24" height="24" fill="none"><g fill="#28303F"><path d="M20.41 9.43a8.758 8.758 0 0 0-2.99-4.48.874.874 0 1 0-1.09 1.37c1.16.93 1.99 2.17 2.4 3.6a7.01 7.01 0 0 1-.13 4.32 7.08 7.08 0 0 1-2.6 3.45A7.153 7.153 0 0 1 11.88 19a7.08 7.08 0 0 1-4.12-1.31 7.08 7.08 0 0 1-2.6-3.45c-.49-1.4-.54-2.89-.13-4.32a7.092 7.092 0 0 1 2.4-3.6.874.874 0 1 0-1.09-1.37 8.697 8.697 0 0 0-2.99 4.48c-.51 1.78-.45 3.64.16 5.38a8.822 8.822 0 0 0 3.24 4.3 8.813 8.813 0 0 0 5.13 1.63h.01c1.85 0 3.62-.57 5.13-1.64a8.822 8.822 0 0 0 3.24-4.3c.6-1.73.66-3.6.15-5.37Z"/><path d="M11.88 8.75c.48 0 .88-.39.88-.88v-4a.886.886 0 0 0-.88-.87c-.48 0-.88.39-.88.88v4c0 .48.39.87.88.87Z"/></g></svg>