<svg xmlns="http://www.w3.org/2000/svg" width="24" height="24" fill="none"><path fill="#28303F" fill-rule="evenodd" d="M12 21a9 9 0 1 0-.001-18.001A9 9 0 0 0 12 21Zm0-15.87c.48 0 .88.39.88.88v3c0 .48-.39.88-.88.88s-.87-.41-.87-.89V6c0-.48.39-.87.87-.87Zm3.62 2.01c.34-.34.9-.34 1.24 0 .96.96 1.62 2.19 1.88 3.52a6.888 6.888 0 0 1-2.92 7.06A6.84 6.84 0 0 1 12 18.88c-1.36 0-2.69-.4-3.82-1.16a6.888 6.888 0 0 1-2.92-7.06c.26-1.33.92-2.56 1.88-3.52.34-.34.9-.34 1.24 0 .34.34.34.9 0 1.24a5.107 5.107 0 0 0-1.12 5.58c.39.94 1.04 1.74 1.89 2.3.85.56 1.84.87 2.85.87s2-.3 2.85-.86c.84-.56 1.5-1.36 1.89-2.3.39-.94.49-1.97.29-2.96s-.69-1.91-1.4-2.62a.884.884 0 0 1-.01-1.25Z" clip-rule="evenodd"/></svg>