<svg xmlns="http://www.w3.org/2000/svg" width="24" height="24" fill="none"><path fill="#28303F" d="M19.77 10.45c-.02-.15-.16-1.46-.54-2.24-.56-1.15-2.66-2.89-3.07-3.22a.873.873 0 0 0-1.23.13c-.3.38-.25.93.13 1.23.2.17.44.36.67.57-.29.78-.73 2.14-.59 3.04.25 1.64 2.15 3.04 2.98 3.58.03 1.71.03 3.36-.07 3.82-.11.49-.13.6-.67.6-.17 0-.63 0-.78-.97-.05-.33-.08-.95-.1-1.45l-.02-.43c-.03-.65-.35-1.73-2.08-1.73h-.88V6.72c0-1.5-1.21-2.72-2.71-2.72H6.72C5.22 4 4 5.22 4 6.72V17c0 1.5 1.22 2.72 2.72 2.72h4.09c1.5 0 2.72-1.22 2.72-2.72v-1.86h.86c.09 0 .3 0 .33.07l.02.42c.03.57.05 1.21.12 1.64.25 1.53 1.19 2.44 2.51 2.44 1.94 0 2.26-1.43 2.38-1.97.27-1.18.07-6.23.02-7.29ZM6.72 5.75h4.09c.53 0 .97.43.97.97v3.41H5.75V6.72c0-.54.43-.97.97-.97Zm10.15 3.96c-.04-.29.08-.86.25-1.43.25.27.45.52.53.7.18.38.33 1.22.37 1.61l.03.73c-.6-.53-1.11-1.13-1.18-1.61Z"/></svg>