<svg xmlns="http://www.w3.org/2000/svg" width="24" height="24" fill="none"><g fill="#28303F"><path d="M12.29 15.13c-.48 0-.88.39-.88.88v.26c0 .48.39.88.88.88s.87-.39.87-.88V16a.87.87 0 0 0-.87-.87ZM12.27 7.13c-1.73 0-3.15 1.19-3.15 2.65 0 .48.39.88.88.88s.88-.39.88-.88c0-.43.57-.9 1.4-.9.74 0 1.35.42 1.4.99.06.61.05.71-.32 1.08-.08.08-.35.25-.54.37-.55.34-1.12.7-1.34 1.23-.28.67-.05 1.23.3 1.49.16.12.34.17.52.17.27 0 .53-.12.7-.35.15-.2.2-.44.16-.66.15-.12.42-.29.59-.4.32-.2.63-.4.85-.62.82-.82.92-1.48.82-2.48-.15-1.47-1.5-2.57-3.15-2.57Z"/><path d="M12 3c-4.96 0-9 4.04-9 9s4.04 9 9 9 9-4.04 9-9-4.04-9-9-9Zm0 16.25C8 19.25 4.75 16 4.75 12S8 4.75 12 4.75 19.25 8 19.25 12 16 19.25 12 19.25Z"/></g></svg>