<svg xmlns="http://www.w3.org/2000/svg" width="24" height="24" fill="none"><path fill="#28303F" d="M11.9 3C7 3 3 7 3 11.9c0 1.4.3 2.8.9 4 .1 0 .1.1.1.1l-.8 2.3c-.5 1.3.8 2.6 2.1 2.1l2.2-.8h.2c1.3.7 2.7 1.1 4.2 1.1 4.9 0 8.9-4 8.9-8.9 0-4.8-4-8.8-8.9-8.8Zm.8 13c0 .5-.4.9-.9.9s-.9-.4-.9-.8v-.3c0-.5.4-.9.9-.9s.9.4.9.8v.3Zm1.5-4.1-.9.6c-.2.1-.4.3-.6.4 0 .3-.1.5-.2.7-.2.3-.4.4-.7.4-.2 0-.4-.1-.5-.2-.4-.3-.6-.8-.3-1.5.2-.5.8-.9 1.3-1.2.2-.1.5-.3.6-.4.3-.4.4-.5.3-1.1-.1-.6-.7-1-1.4-1-.8 0-1.4.5-1.4.9 0 .5-.4.9-.9.9s-.9-.4-.9-.9c0-1.4 1.5-2.6 3.2-2.6 1.6 0 3 1.1 3.2 2.5.1 1 0 1.7-.8 2.5Z"/></svg>