<svg xmlns="http://www.w3.org/2000/svg" width="24" height="24" fill="none"><g fill="#28303F"><path d="M11.9 3C7 3 3 7 3 11.9c0 1.4.3 2.8.9 4 .1 0 .1.1.1.1l-.8 2.3c-.5 1.3.8 2.6 2.1 2.1l2.2-.8h.2c1.3.7 2.7 1.1 4.2 1.1 4.9 0 8.9-4 8.9-8.9 0-4.8-4-8.8-8.9-8.8Zm0 16c-1.2 0-2.4-.3-3.4-.8-.5-.2-1-.3-1.6-.1l-2.1.7.8-2.2c.2-.5.1-1.1-.1-1.5-.5-1-.7-2-.7-3.2C4.8 8 8 4.8 11.9 4.8c3.9 0 7.1 3.2 7.1 7.1 0 3.9-3.2 7.1-7.1 7.1Z"/><path d="M11.9 14.9c-.5 0-.9.4-.9.9v.3c0 .4.4.8.9.8s.9-.4.9-.9v-.3c0-.4-.4-.8-.9-.8ZM11.9 6.9c-1.7 0-3.2 1.2-3.2 2.6 0 .5.4.9.9.9s.9-.4.9-.9c0-.4.6-.9 1.4-.9.7 0 1.3.4 1.4 1 .1.6 0 .7-.3 1.1-.1.1-.4.3-.6.4-.5.3-1.1.7-1.3 1.2-.3.7-.1 1.2.3 1.5.1.1.3.2.5.2.3 0 .5-.1.7-.4.1-.2.2-.4.2-.7.2-.1.4-.3.6-.4l.9-.6c.8-.8.9-1.5.8-2.5-.2-1.4-1.6-2.5-3.2-2.5Z"/></g></svg>