<svg xmlns="http://www.w3.org/2000/svg" width="24" height="24" fill="none"><path fill="#28303F" d="M18.4 5.6C16.7 3.9 14.4 3 12 3c-2.4 0-4.7.9-6.4 2.6C3.9 7.3 3 9.6 3 12v6.1c0 .4.1.7.2 1 .2.4.4.7.7 1 .3.3.6.5 1 .6.3.1.6.2 1 .2H12c2.4 0 4.7-.9 6.4-2.6 1.7-1.7 2.6-4 2.6-6.4 0-2.3-.9-4.6-2.6-6.3Zm-5.5 10.5c0 .5-.4.9-.9.9s-.9-.4-.9-.9v-.3c0-.4.4-.8.9-.8s.9.4.9.9v.2Zm1.4-4.1c-.2.2-.5.4-.9.6-.2.1-.4.3-.6.4 0 .2 0 .5-.2.7-.1.3-.3.4-.6.4-.2 0-.4-.1-.5-.2-.4-.3-.6-.8-.3-1.5.2-.5.8-.9 1.3-1.2.2-.1.5-.3.5-.4.4-.4.4-.5.3-1.1-.1-.6-.7-1-1.4-1-.8 0-1.4.5-1.4.9 0 .5-.4.9-.9.9s-.8-.4-.8-.9C8.8 8.2 10.3 7 12 7c1.6 0 3 1.1 3.1 2.6.1 1 0 1.6-.8 2.4Z"/></svg>