<svg xmlns="http://www.w3.org/2000/svg" width="24" height="24" fill="none"><path fill="#28303F" d="M12 3c-4.96 0-9 4.04-9 9s4.04 9 9 9 9-4.04 9-9-4.04-9-9-9Zm1.16 13.26c0 .48-.39.88-.87.88s-.88-.39-.88-.88V16c0-.48.39-.88.88-.88s.87.39.87.88v.26Zm1.44-4.09c-.22.22-.53.42-.85.62-.17.11-.44.28-.59.4.04.23-.01.47-.16.66a.876.876 0 0 1-1.22.18c-.35-.26-.58-.82-.3-1.49.23-.53.8-.89 1.34-1.23.2-.12.46-.29.54-.37.36-.37.38-.47.32-1.08-.05-.56-.66-.99-1.4-.99-.82 0-1.4.48-1.4.9 0 .48-.39.88-.88.88s-.87-.39-.87-.87c0-1.46 1.41-2.65 3.15-2.65 1.65 0 3 1.1 3.14 2.57.09.99-.01 1.65-.82 2.47Z"/></svg>