<svg xmlns="http://www.w3.org/2000/svg" width="24" height="24" fill="none"><g fill="#28303F"><path d="M12 15c-.5 0-.9.4-.9.9v.3c0 .4.4.8.9.8s.9-.4.9-.9v-.3c0-.4-.4-.8-.9-.8ZM12 7c-1.7 0-3.2 1.2-3.2 2.6 0 .5.4.9.9.9s.9-.4.9-.9c0-.4.6-.9 1.4-.9.7 0 1.3.4 1.4 1 .1.6 0 .7-.3 1.1-.1.1-.4.3-.6.4-.5.3-1.1.7-1.3 1.2-.3.7-.1 1.2.3 1.5.1.1.3.2.5.2.3 0 .5-.1.7-.4.1-.2.2-.4.2-.7.2-.1.4-.3.6-.4l.9-.6c.8-.8.9-1.5.8-2.5C15 8.1 13.6 7 12 7Z"/><path d="M18.4 5.6C16.7 3.9 14.4 3 12 3c-2.4 0-4.7.9-6.4 2.6C3.9 7.3 3 9.6 3 12v6.1c0 .4.1.7.2 1 .2.4.4.7.7 1 .3.3.6.5 1 .6.3.1.6.2 1 .2H12c2.4 0 4.7-.9 6.4-2.6 1.7-1.7 2.6-4 2.6-6.4 0-2.3-.9-4.6-2.6-6.3Zm-1.3 11.5c-1.4 1.4-3.2 2.1-5.1 2.1H6c-.3 0-.4-.1-.5-.1-.2-.1-.3-.2-.4-.3-.1-.1-.2-.3-.3-.4 0-.1-.1-.2-.1-.5V12c0-1.9.8-3.8 2.1-5.1 1.4-1.4 3.3-2.1 5.2-2.1 1.9 0 3.8.8 5.1 2.1 1.4 1.4 2.1 3.2 2.1 5.1 0 1.9-.7 3.8-2.1 5.1Z"/></g></svg>