<svg xmlns="http://www.w3.org/2000/svg" width="24" height="24" fill="none"><g fill="#28303F"><path d="M17.9 6c-.2 0-.5-.2-.6-.5-.9-2-3-3.5-5.4-3.5-2.4 0-4.5 1.4-5.4 3.5-.2.3-.4.5-.6.5C3.7 6 2 7.7 2 9.9s1.7 3.9 3.9 3.9h12c2.1 0 3.9-1.7 3.9-3.9S20 6 17.9 6Zm0 6h-12c-1.2 0-2.1-1-2.1-2.1s1-2.1 2.1-2.1S7.8 7 8.1 6.2c.6-1.4 2.1-2.4 3.8-2.4 1.7 0 3.1 1 3.8 2.4.3.8 1.1 1.6 2.2 1.6 1.2 0 2.1 1 2.1 2.1S19 12 17.9 12ZM11.9 16c-.5 0-.9.4-.9.9v2c0 .5.4.9.9.9s.9-.4.9-.9v-2c0-.5-.4-.9-.9-.9ZM16.9 16c-.5 0-.9.4-.9.9v3c0 .5.4.9.9.9s.9-.4.9-.9v-3c0-.5-.4-.9-.9-.9ZM6.9 16c-.5 0-.9.4-.9.9v4c0 .5.4.9.9.9s.9-.4.9-.9v-4c0-.5-.4-.9-.9-.9Z"/></g></svg>