<svg xmlns="http://www.w3.org/2000/svg" width="24" height="24" fill="none"><g fill="#28303F"><path d="m5.6 10.6 2.8-.7c.5-.1.7-.6.6-1.1-.1-.5-.6-.7-1.1-.6l-1.5.4c1.4-2.5 3.6-3.9 6.1-3.8 2.6.1 4.9 1.8 6 4.5.1.3.5.6.8.6.1 0 .2 0 .3-.1.5-.2.7-.7.5-1.1-1.2-3.4-4.2-5.6-7.5-5.7-3.2-.1-5.9 1.6-7.7 4.7l-.2-1.8c0-.5-.5-.8-1-.8-.4 0-.7.4-.7.9l.3 2.9c0 .6.3 1.1.8 1.4.3.2.7.3 1 .3.2.1.4.1.5 0ZM21.2 14.8c-.1-.6-.4-1.1-.8-1.4-.4-.3-1-.4-1.5-.3l-2.8.7c-.5.1-.7.6-.6 1.1.1.5.6.7 1.1.6l1.5-.4c-1.4 2.5-3.6 3.9-6.1 3.8-2.6-.1-4.9-1.8-6-4.5-.2-.5-.7-.7-1.1-.5-.4.2-.7.7-.5 1.1 1.3 3.3 4.3 5.5 7.6 5.6h.3c3 0 5.7-1.7 7.4-4.7l.2 1.8c0 .5.4.8.9.8h.1c.5 0 .8-.5.8-1l-.5-2.7Z"/></g></svg>