<svg xmlns="http://www.w3.org/2000/svg" width="24" height="24" fill="none"><path fill="#28303F" d="M3.04 17.32c.13-2.8 1.1-5.3 2.7-7.3 1.79-2.07 3.67-3.26 5.89-3.56.23-.03.41-.22.41-.45l-.01-2.1v-.02c0-.08.02-.17.05-.25.06-.16.15-.31.28-.4.11-.08.28-.15.28-.15.14-.06.3-.09.45-.09.41 0 .85.2 1.25.53l6.3 5.7c.4.4.4.8.42.88 0 .4-.2.7-.6 1l-2.39 1.79-.02.02-4.5 3.79s-.08.07-.24.14c-.11.05-.23.06-.32.06h-.04c-.07 0-.28-.03-.38-.08-.17-.09-.33-.27-.43-.5-.1-.21-.13-.47-.13-.7 0-.34.01-1.13.01-1.67 0-.3-.27-.52-.57-.46-1.29.24-2.26.75-3.39 1.79l-.05.05c-1.18 1.29-2.66 4.91-2.66 4.91l-.04.09c-.19.39-.57.68-1.03.68h-.05c-1.12-.06-1.2-1.2-1.2-1.2L3 19.59c.01-.01-.03-.73.04-2.27Z"/></svg>