<svg xmlns="http://www.w3.org/2000/svg" width="24" height="24" fill="none"><g fill="#28303F"><path d="M19.4 11.7h-.3v-.3c0-1.6-1.3-2.9-2.9-2.9h-3.5V7.1c.8-.4 1.3-1.1 1.3-2C14 4 13 3 11.9 3S9.8 4 9.8 5.1c0 .9.5 1.6 1.2 2v1.5H7.5c-1.6 0-2.9 1.3-2.9 2.9v.3h-.2c-1.3-.1-2.4 1-2.4 2.3v1.8c0 1.3 1.1 2.4 2.4 2.4h.3C4.8 19.8 6 21 7.6 21h8.7c1.5 0 2.7-1.2 2.9-2.7h.3c1.3 0 2.4-1.1 2.4-2.4v-1.8c-.1-1.3-1.2-2.4-2.5-2.4Zm-7.5-7.4c.4 0 .8.4.8.8s-.4.8-.8.8-.8-.3-.8-.8.3-.8.8-.8ZM3.8 15.8V14c0-.3.3-.6.6-.6h.3v3h-.3c-.4.1-.6-.2-.6-.6ZM17.4 18c0 .6-.5 1.1-1.1 1.1H7.5c-.6 0-1.1-.5-1.1-1.1v-6.6c0-.6.5-1.1 1.1-1.1h8.7c.6 0 1.1.5 1.1 1.1V18h.1Zm2.6-2.2c0 .3-.3.6-.6.6h-.3v-3h.3c.3 0 .6.3.6.6v1.8Z"/><path d="M13.5 15.9h-3.2v1.8h3.2v-1.8ZM15.1 12.2h-1.6V14h1.6v-1.8ZM10.3 12.2H8.7V14h1.6v-1.8Z"/></g></svg>