<svg xmlns="http://www.w3.org/2000/svg" width="24" height="24" fill="none"><path fill="#28303F" d="M19.4 11.7h-.3v-.3c0-1.6-1.3-2.9-2.9-2.9h-3.5V7.1c.8-.4 1.3-1.1 1.3-2C14 4 13 3 11.9 3S9.8 4 9.8 5.1c0 .9.5 1.6 1.2 2v1.5H7.5c-1.6 0-2.9 1.3-2.9 2.9v.3h-.2c-1.3-.1-2.4 1-2.4 2.3v1.8c0 1.3 1.1 2.4 2.4 2.4h.3C4.8 19.8 6 21 7.6 21h8.7c1.5 0 2.7-1.2 2.9-2.7h.3c1.3 0 2.4-1.1 2.4-2.4v-1.8c-.1-1.3-1.2-2.4-2.5-2.4ZM4.6 16.5h-.2c-.3 0-.6-.3-.6-.6v-1.8c0-.3.3-.6.6-.6h.3v3h-.1Zm7.3-12.2c.4 0 .8.4.8.8s-.4.8-.8.8-.8-.3-.8-.8.3-.8.8-.8Zm-3.2 7.9h1.6V14H8.7v-1.8Zm4.8 5.5h-3.2v-1.8h3.2v1.8Zm1.6-3.7h-1.6v-1.8h1.6V14Zm4.9 1.8c0 .3-.3.6-.6.6h-.3v-3h.3c.3 0 .6.3.6.6v1.8Z"/></svg>