<svg xmlns="http://www.w3.org/2000/svg" width="24" height="24" fill="none"><g fill="#28303F"><path d="M19.58 13.22h-.25l1.79-6.68a.864.864 0 0 0-.62-1.07.876.876 0 0 0-1.07.62l-1.91 7.14H6.33L4.42 6.08a.876.876 0 0 0-1.07-.62c-.47.13-.75.61-.62 1.07l1.79 6.68h-.25A2.294 2.294 0 0 0 2 15.51v2.83c0 1.26 1.02 2.29 2.27 2.29h1.21v.54c0 .48.39.88.88.88s.88-.39.88-.88v-.54h9.39v.54c0 .48.39.88.88.88s.88-.39.88-.88v-.54h1.21c1.25 0 2.27-1.03 2.27-2.29v-2.83c-.02-1.27-1.04-2.29-2.29-2.29ZM7.05 17.67h-.7c-.41 0-.75-.34-.75-.75s.34-.75.75-.75h.7a.749.749 0 1 1 0 1.5Zm3.48 0h-.7c-.41 0-.75-.34-.75-.75s.34-.75.75-.75h.7a.749.749 0 1 1 0 1.5Z"/><path d="M7.12 5.77c.23 0 .45-.09.62-.26a5.832 5.832 0 0 1 4.18-1.76c1.58 0 3.06.62 4.18 1.76.34.34.89.35 1.24.01.34-.34.35-.89.01-1.24A7.54 7.54 0 0 0 11.93 2c-2.06 0-3.99.81-5.43 2.28-.34.34-.33.9.01 1.24.17.16.39.25.61.25Z"/><path d="M9.01 6.45c-.34.34-.33.9.01 1.24.34.34.9.34 1.24-.01.81-.83 2.38-.83 3.19 0 .17.17.4.26.62.26.22 0 .44-.08.61-.25.34-.34.35-.89.01-1.24-.73-.75-1.77-1.17-2.84-1.17-1.07 0-2.11.42-2.84 1.17Z"/></g></svg>