<svg xmlns="http://www.w3.org/2000/svg" width="24" height="24" fill="none"><g fill="#28303F"><path d="M19.67 13.28h-.26l1.8-6.73a.864.864 0 0 0-.62-1.07.864.864 0 0 0-1.07.62l-1.93 7.18H6.35L4.42 6.1a.88.88 0 0 0-1.07-.62c-.47.13-.75.61-.62 1.07l1.8 6.73h-.26c-1.25 0-2.27 1.03-2.27 2.3v2.85c0 1.27 1.02 2.3 2.27 2.3H5.5v.55c0 .48.39.88.88.88s.88-.39.88-.88v-.55h9.45v.55c0 .48.39.88.88.88s.88-.39.88-.88v-.55h1.22c1.25 0 2.28-1.03 2.28-2.3v-2.85c-.02-1.27-1.04-2.3-2.3-2.3Zm.53 5.14c0 .3-.24.55-.53.55H4.27c-.29 0-.52-.25-.52-.55v-2.85c0-.3.24-.55.52-.55h15.4c.29 0 .53.25.53.55v2.85Z"/><path d="M7.07 16.13h-.7c-.48 0-.88.39-.88.88s.39.88.88.88h.7c.48 0 .88-.39.88-.88s-.39-.88-.88-.88ZM10.57 16.13h-.7A.87.87 0 0 0 9 17c0 .48.39.88.88.88h.7c.48 0 .88-.39.88-.88s-.4-.87-.89-.87ZM7.77 5.52a5.853 5.853 0 0 1 4.21-1.77c1.6 0 3.09.63 4.21 1.77.17.17.4.26.62.26.22 0 .44-.08.61-.25.34-.34.35-.89.01-1.24A7.583 7.583 0 0 0 11.97 2c-2.07 0-4 .81-5.45 2.29-.34.34-.33.9.01 1.24.35.34.9.33 1.24-.01Z"/><path d="M9.05 6.47c-.34.34-.33.9.01 1.24.34.34.9.33 1.24-.01.82-.83 2.4-.83 3.22 0 .17.17.4.26.62.26.22 0 .44-.08.61-.25.34-.34.35-.89.01-1.24a4.031 4.031 0 0 0-2.86-1.18c-1.08 0-2.12.43-2.85 1.18Z"/></g></svg>