<svg xmlns="http://www.w3.org/2000/svg" width="24" height="24" fill="none"><path fill="#28303F" d="M20.7 11.1c.4-.2.7-.6.7-1.1V8.7c0-2.6-2.1-4.7-4.7-4.7h-10C4.1 4 2 6.1 2 8.7V10c0 .5.3.9.7 1.1.5.2.7.6.7 1.1 0 .5-.3.9-.7 1.1-.4.2-.7.7-.7 1.1v1.2c0 2.6 2.1 4.7 4.7 4.7h10c2.6 0 4.7-2.1 4.7-4.7v-1.2c0-.5-.3-.9-.7-1.1-.5-.2-.7-.6-.7-1.1 0-.5.2-.9.7-1.1ZM9.1 9.5c.4-.4 1-.4 1.4 0 .4.4.4 1 0 1.4-.4.4-1 .4-1.4 0-.4-.3-.4-1 0-1.4Zm5.2 5.2c-.4.4-1 .4-1.4 0-.4-.4-.4-1 0-1.4.4-.4 1-.4 1.4 0 .4.4.4 1 0 1.4Zm0-4-4 4c-.2.2-.4.3-.6.3-.2 0-.4-.1-.6-.3-.3-.3-.3-.9 0-1.2l4-4c.3-.3.9-.3 1.2 0 .4.3.4.9 0 1.2Z"/></svg>