<svg xmlns="http://www.w3.org/2000/svg" width="24" height="24" fill="none"><g fill="#28303F"><path d="M9.8 11.3a1 1 0 1 0 0-2 1 1 0 0 0 0 2ZM13.6 15a1 1 0 1 0 0-2 1 1 0 0 0 0 2ZM13.1 9.5l-4 4c-.3.3-.3.9 0 1.2.1.2.3.3.6.3s.4-.1.6-.3l4-4c.3-.3.3-.9 0-1.2-.3-.3-.9-.3-1.2 0Z"/><path d="M20.7 11.1c.4-.2.7-.6.7-1.1V8.7c0-2.6-2.1-4.7-4.7-4.7h-10C4.1 4 2 6.1 2 8.7V10c0 .5.3.9.7 1.1.5.2.7.6.7 1.1 0 .5-.3.9-.7 1.1-.4.2-.7.7-.7 1.1v1.2c0 2.6 2.1 4.7 4.7 4.7h10c2.6 0 4.7-2.1 4.7-4.7v-1.2c0-.5-.3-.9-.7-1.1-.5-.2-.7-.6-.7-1.1 0-.5.2-.9.7-1.1Zm-1.1-1.4c-.9.5-1.4 1.5-1.4 2.6s.6 2 1.4 2.6v.9c0 1.6-1.3 2.9-2.9 2.9h-10c-1.6 0-2.9-1.3-2.9-2.9v-.9c.9-.5 1.4-1.5 1.4-2.6 0-1-.6-2-1.4-2.6v-1c0-1.6 1.3-2.9 2.9-2.9h10c1.6 0 2.9 1.3 2.9 2.9v1Z"/></g></svg>