<svg xmlns="http://www.w3.org/2000/svg" width="24" height="24" fill="none"><g clip-path="url(#a)"><path fill="#28303F" fill-rule="evenodd" d="M7.78 4.75c-1.73 0-3.13 1.4-3.13 3.13v1.2c0 .48-.39.88-.88.88s-.87-.4-.87-.89v-1.2C2.9 5.18 5.08 3 7.78 3h1.26c.48 0 .88.39.88.88s-.4.87-.88.87H7.78Zm6.06-.87c0-.48.39-.88.88-.88h1.27a4.88 4.88 0 0 1 4.88 4.88v1.2c0 .48-.39.88-.88.88-.48 0-.88-.39-.88-.88v-1.2c0-1.73-1.4-3.13-3.13-3.13h-1.27a.87.87 0 0 1-.87-.87ZM3.78 13.8c.48 0 .88.39.88.88v1.2c0 1.73 1.4 3.13 3.13 3.13h1.26c.48 0 .88.39.88.88s-.39.88-.88.88H7.78a4.88 4.88 0 0 1-4.88-4.88v-1.2c0-.5.39-.89.88-.89Zm16.2 0c.48 0 .88.39.88.88v1.2a4.88 4.88 0 0 1-4.88 4.88h-1.27c-.48 0-.88-.39-.88-.88s.4-.88.88-.88h1.27c1.73 0 3.13-1.4 3.13-3.13v-1.2c-.01-.48.38-.87.87-.87Zm.9-1.05h-18a.875.875 0 1 1 0-1.75h18c.48 0 .88.39.88.88-.01.48-.4.87-.88.87ZM9.45 6.56c-.82 0-1.59.23-2.16.78-.56.56-.79 1.32-.79 2.14 0 .48.39.87.88.87s.88-.39.88-.87c0-.5.14-.76.28-.9s.41-.28.93-.28h4.85c.52 0 .78.14.93.28.14.14.28.4.28.9 0 .48.39.87.88.87s.88-.39.88-.87c0-.82-.23-1.59-.8-2.14-.56-.56-1.33-.78-2.16-.78H9.45Zm-1.2 7.71c0-.48-.39-.88-.88-.88s-.87.39-.87.88c0 .82.23 1.59.8 2.14.56.56 1.33.78 2.16.78h4.85c.82 0 1.59-.23 2.16-.78.56-.56.8-1.32.8-2.14 0-.48-.39-.88-.88-.88s-.88.39-.88.88c0 .5-.14.76-.28.9s-.41.28-.93.28H9.45c-.52 0-.78-.14-.93-.28-.13-.14-.27-.4-.27-.9Z" clip-rule="evenodd"/></g><defs><clipPath id="a"><path fill="#fff" d="M2 3h19.75v17.75H2z"/></clipPath></defs></svg>