<svg xmlns="http://www.w3.org/2000/svg" width="24" height="24" fill="none"><g fill="#28303F" clip-path="url(#a)"><path d="M14.71 4.75h1.26c1.72 0 3.13 1.4 3.13 3.13v1.2c0 .48.39.88.88.88s.88-.39.88-.88v-1.2c0-2.69-2.19-4.88-4.88-4.88h-1.26c-.48 0-.88.39-.88.88s.39.87.87.87ZM3.77 9.95c.48 0 .88-.39.88-.88v-1.2c0-1.72 1.4-3.13 3.13-3.13h1.27c.48 0 .88-.39.88-.88S9.52 3 9.04 3H7.77C5.09 3 2.9 5.19 2.9 7.88v1.2c0 .48.39.87.87.87ZM9.04 19H7.77c-1.72 0-3.13-1.4-3.13-3.13v-1.2c0-.48-.39-.88-.88-.88s-.86.4-.86.88v1.2c0 2.69 2.19 4.88 4.88 4.88h1.27c.48 0 .88-.39.88-.88S9.52 19 9.04 19ZM19.97 13.8c-.48 0-.88.39-.88.88v1.2c0 1.72-1.4 3.13-3.13 3.13H14.7c-.48 0-.88.39-.88.88s.39.88.88.88h1.26c2.69 0 4.88-2.19 4.88-4.88v-1.2c.01-.5-.38-.89-.87-.89ZM20.88 11h-18c-.49 0-.88.39-.88.88s.39.88.88.88h18c.48 0 .88-.39.88-.88s-.4-.88-.88-.88Z"/><path d="M14.78 17.21c1.61 0 2.49-.88 2.49-2.46v-1.09H6.47v1.09c0 1.59.89 2.46 2.49 2.46h5.82ZM8.97 6.54c-1.61 0-2.5.88-2.5 2.46v1.1h10.8V9c0-1.59-.89-2.46-2.49-2.46H8.97Z"/></g><defs><clipPath id="a"><path fill="#fff" d="M2 3h19.75v17.75H2z"/></clipPath></defs></svg>