<svg xmlns="http://www.w3.org/2000/svg" width="24" height="24" fill="none"><path fill="#28303F" d="M21.34 13.52c-.3-.44-.68-.78-1.14-1.01-.05-.02-.12-.07-.23-.25a.606.606 0 0 1-.08-.52c.05-.21.19-.38.38-.49.69-.37 1.18-.97 1.37-1.7.19-.71.07-1.45-.32-2.08l-.65-1.07a2.907 2.907 0 0 0-3.86-1c-.44.22-1.06.08-1.3-.3a.571.571 0 0 1-.1-.26c.04-.51-.1-1.03-.4-1.5A2.934 2.934 0 0 0 12.55 2h-1.38c-1 .03-1.91.53-2.41 1.32-.31.44-.46.97-.43 1.51 0 .07-.03.16-.09.25-.25.39-.85.54-1.27.33-1.36-.74-3.07-.3-3.89 1l-.65 1.05c-.4.64-.51 1.38-.31 2.09.19.73.68 1.33 1.35 1.68.2.11.34.29.39.5.03.13.05.33-.06.5-.13.19-.19.25-.29.29-.48.25-.89.63-1.11 1.01-.53.83-.53 1.89.01 2.78l.67 1.08c.78 1.25 2.62 1.73 3.96.94.07-.05.21-.07.39-.07.47 0 .9.37.91.76 0 1.53 1.27 2.72 2.89 2.72h1.32c1.61 0 2.88-1.19 2.88-2.69.01-.42.44-.79.92-.79.18 0 .31.03.41.09.43.25.95.39 1.47.39 1 0 1.94-.52 2.45-1.35l.69-1.11c.51-.9.51-1.93-.03-2.76Zm-9.46.8c-1.35 0-2.45-1.1-2.45-2.45s1.1-2.45 2.45-2.45 2.45 1.1 2.45 2.45-1.1 2.45-2.45 2.45Z"/></svg>