<svg xmlns="http://www.w3.org/2000/svg" width="24" height="24" fill="none"><g fill="#28303F"><path d="M12.536 21.75h-1.31c-1.62 0-2.89-1.19-2.89-2.72-.01-.4-.43-.76-.91-.76-.18 0-.31.03-.39.07-1.34.79-3.18.31-3.96-.94l-.67-1.08c-.54-.88-.54-1.95-.01-2.78.22-.38.63-.77 1.11-1.01.1-.05.16-.1.29-.29.11-.17.1-.37.06-.5a.756.756 0 0 0-.39-.5c-.67-.36-1.15-.96-1.34-1.69-.2-.71-.09-1.45.31-2.09l.65-1.06c.82-1.3 2.53-1.73 3.89-1 .42.21 1.03.07 1.28-.33.05-.08.09-.18.08-.24-.03-.54.12-1.07.42-1.51.51-.79 1.42-1.29 2.42-1.32h1.39c.99 0 1.93.51 2.46 1.34.3.47.44.99.4 1.5 0 .06.03.15.1.26.24.38.86.52 1.3.3 1.35-.73 3.05-.3 3.86 1l.65 1.07c.39.62.51 1.37.32 2.08-.19.73-.68 1.33-1.37 1.7a.82.82 0 0 0-.38.49c-.03.13-.04.32.08.52.12.18.18.23.23.25.46.23.84.57 1.14 1.01.54.84.54 1.87.01 2.78l-.69 1.11c-.51.83-1.46 1.35-2.45 1.35-.52 0-1.04-.14-1.47-.39-.1-.06-.23-.09-.41-.09-.47 0-.9.37-.92.79-.01 1.49-1.27 2.68-2.89 2.68Zm-5.11-5.23c1.43 0 2.63 1.12 2.66 2.49 0 .56.5.99 1.14.99h1.32c.63 0 1.13-.43 1.13-.97.05-1.4 1.24-2.51 2.67-2.51.51 0 .93.11 1.31.33.15.09.37.14.57.14.39 0 .77-.21.97-.52l.68-1.08c.1-.17.25-.55.02-.91-.08-.11-.23-.3-.44-.4-.48-.22-.77-.61-.94-.89-.36-.56-.47-1.24-.3-1.89.17-.67.62-1.25 1.24-1.59.27-.14.45-.36.52-.61a.9.9 0 0 0-.12-.71l-.66-1.07c-.31-.5-1.01-.67-1.55-.37-1.28.65-2.85.24-3.59-.91-.27-.45-.39-.89-.36-1.33.01-.17-.07-.33-.12-.42-.21-.33-.59-.54-.99-.54h-1.39c-.39.01-.77.21-.98.53-.1.15-.14.29-.13.43.03.42-.09.88-.35 1.3-.75 1.16-2.35 1.57-3.58.95-.56-.31-1.27-.14-1.59.37l-.64 1.05c-.14.22-.18.48-.12.72.07.25.24.47.5.6.63.35 1.08.93 1.25 1.6.17.65.06 1.32-.29 1.89-.23.34-.51.68-.98.9-.17.09-.32.25-.38.35-.19.3-.18.64.01.95l.67 1.08c.3.48 1.09.65 1.56.37.33-.21.76-.32 1.28-.32Z"/><path d="M11.876 16.06c-.87 0-1.72-.27-2.42-.77l-.07.06-1.18-1.28.07-.06c-.91-1.56-.74-3.6.52-4.97a4.186 4.186 0 0 1 6.16 0c1.46 1.59 1.46 4.08 0 5.68-.79.85-1.91 1.34-3.08 1.34Zm-1.79-2.53c.93 1.01 2.65 1.01 3.59 0 .85-.93.85-2.38 0-3.3-.93-1.01-2.65-1.01-3.59 0-.85.92-.85 2.37 0 3.3Z"/></g></svg>