<svg xmlns="http://www.w3.org/2000/svg" width="24" height="24" fill="none"><path fill="#28303F" d="M17.38 15c-.91 0-1.73.36-2.34.95l-4.43-2.66c.08-.29.14-.6.14-.92 0-.42-.09-.82-.23-1.19l4.82-3.07.03-.03c.56.41 1.25.67 2 .67 1.86 0 3.38-1.51 3.38-3.38C20.75 3.5 19.24 2 17.38 2S14 3.51 14 5.38c0 .48.1.93.28 1.34L9.49 9.77C8.91 9.29 8.18 9 7.38 9 5.51 9 4 10.51 4 12.38c0 1.86 1.51 3.38 3.38 3.38.91 0 1.73-.37 2.34-.95l4.43 2.66c-.08.29-.14.6-.14.92 0 1.86 1.51 3.38 3.38 3.38 1.87 0 3.38-1.51 3.38-3.38A3.4 3.4 0 0 0 17.38 15Z"/></svg>