<svg xmlns="http://www.w3.org/2000/svg" width="24" height="24" fill="none"><path fill="#28303F" d="M12.2 21.5c-.6 0-1.2-.2-1.7-.5l-3.1-2.1c-1.2-.8-2.2-2-2.8-3.3-.5-1-.7-2.1-.7-3.2L4 7c0-1.2.7-2.2 1.8-2.7l4.8-1.9c1.1-.4 2.3-.4 3.4 0l4.7 1.9c1.1.4 1.8 1.5 1.8 2.7v5.5c0 1-.2 2.1-.6 3-.6 1.4-1.6 2.6-2.8 3.4L14 21c-.6.4-1.2.5-1.8.5Zm0-17.7c-.3 0-.7.1-1 .2L6.5 5.9c-.5.2-.8.6-.7 1.1v5.4c0 .8.2 1.7.5 2.4.5 1.1 1.2 2 2.2 2.6l3.1 2.1c.4.3 1 .3 1.5 0l3-2.1c1-.7 1.7-1.6 2.2-2.7.3-.8.5-1.5.5-2.4V7c0-.5-.3-.9-.7-1.1L13.3 4c-.4-.2-.7-.2-1.1-.2Z"/></svg>