<svg xmlns="http://www.w3.org/2000/svg" width="24" height="24" fill="none"><g fill="#28303F"><path d="m18.4 5.6-2.8-2.4c-.8-.8-1.8-1.2-2.9-1.2H8.4C5.6 2 4 3.6 4 6.5v11.2c0 2.5 1.7 4.2 4.1 4.2h7.5c2.5 0 4.3-1.6 4.3-4V9c.1-1.3-.5-2.6-1.5-3.4ZM18.2 18c0 2-1.8 2.2-2.5 2.2H8.2c-1.5 0-2.4-.9-2.4-2.5V6.5c0-1.9.8-2.8 2.7-2.8h4.3c.6 0 1.3.2 1.8.7l2.8 2.4c.6.5.9 1.3.9 2.1V18h-.1Z"/><path d="M13.9 13H10c-1.1 0-2 .9-2 2v.9c0 1.1.9 2 2 2h3.9c1.1 0 2.1-.9 2.1-2.1V15c0-1.1-.9-2-2.1-2Zm.3 2.9c0 .2-.1.3-.3.3H10c-.2 0-.3-.1-.3-.3V15c0-.2.1-.3.3-.3h3.9c.2 0 .3.1.3.3v.9Z"/></g></svg>