<svg xmlns="http://www.w3.org/2000/svg" width="24" height="24" fill="none"><path fill="#28303F" d="M8.67 20.82c-.98 0-1.92-.39-2.61-1.1-.8-.81-1.17-1.93-1.02-3.06.24-1.82 1.81-3.2 3.65-3.2h3.56l-.03-4.34c-.01-1.77-.01-2.74.66-3.55.68-.81 1.64-.97 3.38-1.28l1.51-.26c.2-.03.67-.11 1.03.27.36.39.25.85.2 1.04l-.76 3.14c-.03.12-.08.34-.29.54a1 1 0 0 1-.54.26l-3.44.71.03 6.27a4.432 4.432 0 0 1-3.93 4.43l-.97.11c-.14.02-.29.02-.43.02Zm8.39-14.89-.5.09c-1.44.25-2.08.37-2.34.67-.19.23-.24.67-.25 1.52l2.67-.55.42-1.73Z"/></svg>