<svg xmlns="http://www.w3.org/2000/svg" width="24" height="24" fill="none"><g fill="#28303F"><path d="M11.9 3C7 3 3 7 3 11.9s4 8.9 8.9 8.9 8.9-4 8.9-8.9-4-8.9-8.9-8.9Zm0 16c-3.9 0-7.1-3.2-7.1-7.1C4.8 8 8 4.8 11.9 4.8c3.9 0 7.1 3.1 7.1 7.1 0 4-3.2 7.1-7.1 7.1Z"/><path d="M13.8 6.9c0-.5-.4-.9-.9-.9C9.1 6 6 9.1 6 12.9c0 .5.4.9.9.9s.9-.4.9-.9c0-2.9 2.2-5.1 5.1-5.1.5 0 .9-.4.9-.9Z"/><path d="M14.3 8.3 12.5 10c-.2-.1-.4-.1-.6-.1-1.1 0-2 .9-2 2s.9 2 2 2 2-.9 2-2c0-.2 0-.4-.1-.6l1.7-1.7c.3-.3.3-.9 0-1.2-.3-.5-.9-.5-1.2-.1Z"/></g></svg>