<svg xmlns="http://www.w3.org/2000/svg" width="24" height="24" fill="none"><path fill="#28303F" d="M16.69 22c-.81 0-1.5-.59-2.96-1.82-.69-.58-1.1-.93-1.36-1.01-.24-.07-.49-.07-.73 0-.26.08-.67.42-1.35 1-1.53 1.29-2.21 1.86-3.06 1.83-.75-.04-1.44-.47-1.8-1.14-.4-.73-.21-1.62.21-3.58l.07-.34c.18-.84.26-1.23.22-1.49a1.47 1.47 0 0 0-.14-.45c-.11-.23-.39-.49-1-1.07l-.4-.38c-1.7-1.6-2.55-2.41-2.37-3.58.04-.24.11-.48.23-.7.55-1.06 1.79-1.17 4.04-1.38.98-.09 1.51-.14 1.77-.31.08-.05.15-.1.21-.16.24-.22.44-.74.8-1.68l.94.36-.93-.37c.88-2.28 1.32-3.43 2.46-3.68.31-.07.62-.07.92 0 1.14.25 1.58 1.4 2.47 3.69.37.94.56 1.46.8 1.68.07.06.14.12.21.17.26.16.8.21 1.77.3 2.26.21 3.5.33 4.05 1.39.11.22.19.46.22.7.18 1.17-.67 1.97-2.37 3.58l-.4.38c-.61.58-.89.84-1 1.07-.07.14-.12.3-.14.46-.04.26.04.64.22 1.49l.07.33c.42 1.96.61 2.85.21 3.58a2.16 2.16 0 0 1-1.8 1.14c-.02-.01-.05-.01-.08-.01Zm-9.47-2.03c.01 0 .03.01.05.02.28-.13.98-.72 1.71-1.34.92-.77 1.42-1.2 2.08-1.39.61-.18 1.26-.18 1.87 0 .66.2 1.16.62 2.06 1.38.75.63 1.44 1.22 1.73 1.35.04-.02.07-.05.09-.08.02-.19-.19-1.17-.41-2.21l-.07-.33c-.21-1-.33-1.56-.25-2.18.05-.37.16-.73.33-1.06.28-.56.68-.94 1.42-1.64l.4-.38c.83-.79 1.69-1.6 1.77-1.89-.21-.12-1.36-.23-2.48-.33-1.28-.12-1.98-.18-2.65-.6-.19-.12-.36-.25-.52-.41-.57-.53-.82-1.2-1.29-2.4-.4-1.04-.81-2.1-1.06-2.43-.25.32-.66 1.38-1.06 2.41-.47 1.21-.73 1.88-1.3 2.42-.16.15-.34.29-.52.4-.66.42-1.37.48-2.64.6-1.12.1-2.27.21-2.51.39.1.23.96 1.05 1.79 1.83l.4.38c.74.7 1.15 1.08 1.42 1.64.16.33.27.69.33 1.06.09.62-.03 1.17-.24 2.18l-.07.33c-.23 1.05-.44 2.03-.38 2.28Z"/></svg>