<svg xmlns="http://www.w3.org/2000/svg" width="24" height="24" fill="none"><path fill="#28303F" d="M21.98 9.97c-.04-.24-.11-.47-.22-.7-.55-1.07-1.79-1.18-4.05-1.39-.97-.09-1.5-.14-1.77-.3-.07-.05-.14-.1-.21-.17-.24-.22-.44-.74-.8-1.68-.88-2.29-1.33-3.44-2.47-3.69-.31-.07-.61-.07-.92 0-1.14.26-1.58 1.41-2.46 3.69l.84.33-.84-.32c-.37.94-.57 1.46-.81 1.68-.06.06-.13.11-.21.16-.26.17-.79.22-1.77.31-2.25.21-3.49.32-4.04 1.39-.11.22-.19.45-.23.69-.18 1.17.67 1.97 2.37 3.58l.4.38c.61.58.89.84 1 1.07.07.14.12.3.14.46.04.26-.04.64-.22 1.49l-.07.34c-.42 1.95-.61 2.84-.21 3.58a2.16 2.16 0 0 0 1.8 1.14c.85.03 1.54-.54 3.06-1.83.68-.57 1.09-.92 1.35-1 .24-.07.49-.07.73 0 .26.08.67.42 1.36 1.01 1.46 1.24 2.16 1.82 2.96 1.82h.08c.75-.04 1.44-.47 1.8-1.14.4-.73.21-1.63-.21-3.58l-.07-.33c-.18-.84-.26-1.23-.22-1.49.02-.16.07-.31.14-.46.11-.23.39-.49 1-1.07l.4-.38c1.7-1.61 2.55-2.42 2.37-3.59Z"/></svg>