<svg xmlns="http://www.w3.org/2000/svg" width="24" height="24" fill="none"><path fill="#28303F" d="M21.98 9.97c-.04-.24-.11-.47-.22-.7-.55-1.07-1.79-1.18-4.05-1.39-.97-.09-1.5-.14-1.77-.3-.07-.05-.14-.1-.21-.17-.24-.22-.44-.74-.8-1.68-.88-2.29-1.33-3.44-2.47-3.69-.31-.07-.61-.07-.92 0-1.14.26-1.58 1.41-2.46 3.69l.84.33-.84-.32c-.37.94-.57 1.46-.81 1.68-.06.06-.13.11-.21.16-.26.17-.79.22-1.77.31-2.25.21-3.49.32-4.04 1.39-.11.22-.19.45-.23.69-.18 1.17.67 1.97 2.37 3.58l.4.38c.61.58.89.84 1 1.07.07.14.12.3.14.46.04.26-.04.64-.22 1.49l-.07.34c-.42 1.95-.61 2.84-.21 3.58a2.16 2.16 0 0 0 1.8 1.14c.85.03 1.54-.54 3.06-1.83.68-.57 1.09-.92 1.35-1 .24-.07.49-.07.73 0 .26.08.67.42 1.36 1.01 1.46 1.24 2.16 1.82 2.96 1.82h.08c.75-.04 1.44-.47 1.8-1.14.4-.73.21-1.63-.21-3.58l-.07-.33c-.18-.84-.26-1.23-.22-1.49.02-.16.07-.31.14-.46.11-.23.39-.49 1-1.07l.4-.38c1.7-1.61 2.55-2.42 2.37-3.59Zm-3.74 2.13-.4.38c-.74.7-1.14 1.08-1.42 1.64-.17.34-.28.7-.33 1.06-.09.62.03 1.17.25 2.18l.07.33c.22 1.04.43 2.02.41 2.21-.02.04-.05.07-.09.08-.29-.13-.98-.72-1.73-1.35-.91-.76-1.4-1.19-2.06-1.38-.31-.09-.63-.14-.95-.14V4.06c0-.01.01-.02.01-.02.25.33.66 1.39 1.06 2.43.47 1.21.73 1.88 1.29 2.4.16.15.34.29.52.41.67.42 1.37.48 2.65.6 1.11.1 2.27.21 2.48.33-.07.29-.93 1.1-1.76 1.89Z"/></svg>