<svg xmlns="http://www.w3.org/2000/svg" width="24" height="24" fill="none"><g fill="#28303F"><path d="M12.95 9.67 5.61 4.44c-.6-.41-1.87-.61-2.59 0C2.38 4.98 2 5.92 2 6.95v10.1c0 1.03.38 1.96 1.02 2.5.31.27.72.38 1.12.38.45 0 .9-.14 1.24-.37l.81-.5 6.74-4.73C13.59 13.9 14 13 14 12s-.41-1.9-1.05-2.33Zm-1.01 3.23-6.7 4.71-.78.48c-.01.01-.03.02-.04.03-.08.06-.26.09-.27.11-.15-.13-.4-.51-.4-1.17V6.95c0-.65.25-1.04.33-1.12.03-.01.08-.02.14-.02.14 0 .32.03.39.07l7.34 5.22c.1.07.3.37.3.9s-.2.83-.31.9ZM17 4c-.55 0-1 .45-1 1v14c0 .55.45 1 1 1s1-.45 1-1V5c0-.55-.45-1-1-1ZM21 4c-.55 0-1 .45-1 1v14c0 .55.45 1 1 1s1-.45 1-1V5c0-.55-.45-1-1-1Z"/></g></svg>