<svg xmlns="http://www.w3.org/2000/svg" width="24" height="24" fill="none"><path fill="#28303F" d="M21.38 8.94 13.02 5.2c-.61-.27-1.3-.27-1.91 0l-8.4 3.66c-.04.01-.07.04-.1.06-.35.11-.61.43-.61.82v4.32c0 .48.39.88.88.88s.88-.39.88-.88v-2.87l2.43 1.06v3.68h.01c.14 1.77 2.61 3.09 5.87 3.09 3.35 0 5.88-1.4 5.88-3.25v-3.51l3.43-1.49c.36-.16.6-.51.6-.91-.01-.4-.24-.76-.6-.92Zm-5.19 6.83c0 .53-1.57 1.5-4.13 1.5-2.56 0-4.13-.97-4.13-1.5v-2.75l3.19 1.38c.3.13.62.2.95.2.32 0 .65-.07.95-.2l3.18-1.39v2.76h-.01Zm-3.88-2.97c-.16.07-.34.07-.49 0l-6.88-3 6.88-3c.16-.07.34-.07.5 0l6.8 3.04-6.81 2.96Z"/></svg>