<svg xmlns="http://www.w3.org/2000/svg" width="24" height="24" fill="none"><g fill="#28303F"><path d="M13.27 15.89c-.3.13-.77.19-1.23.19-.45 0-.89-.06-1.16-.18l-4.7-2.03v2.06h.01c.14 1.77 2.61 3.09 5.87 3.09 3.35 0 5.88-1.4 5.88-3.25v-1.89l-4.67 2.01Z"/><path d="M21.38 8.94 13.02 5.2c-.61-.27-1.3-.27-1.91 0l-8.4 3.66c-.04.01-.07.04-.1.06-.35.11-.61.43-.61.82v4.32c0 .48.39.88.88.88s.88-.39.88-.88v-2.87l1.93.84.01-.01 5.79 2.5c.21.08.99.07 1.2-.01l6.69-2.88 2-.87c.36-.16.6-.51.6-.91-.01-.39-.24-.75-.6-.91Z"/></g></svg>