<svg xmlns="http://www.w3.org/2000/svg" width="24" height="24" fill="none"><g fill="#28303F"><path d="M11.9 7.9c-2.2 0-4 1.8-4 4s1.8 4 4 4 4-1.8 4-4-1.8-4-4-4Zm0 6.2c-1.2 0-2.3-1-2.3-2.3 0-1.2 1-2.3 2.3-2.3 1.2 0 2.3 1 2.3 2.3-.1 1.3-1.1 2.3-2.3 2.3ZM11.9 5.8c.5 0 .9-.4.9-.9v-2c0-.5-.4-.9-.9-.9s-.9.4-.9.9v2c0 .5.4.9.9.9ZM11.9 18c-.5 0-.9.4-.9.9v2c0 .5.4.9.9.9s.9-.4.9-.9v-2c0-.5-.4-.9-.9-.9ZM16.8 7.8c.2 0 .4-.1.6-.3l1.4-1.4c.3-.3.3-.9 0-1.2-.3-.3-.9-.3-1.2 0l-1.4 1.4c-.3.3-.3.9 0 1.2.2.2.4.3.6.3ZM6.3 16.2l-1.4 1.4c-.3.3-.3.9 0 1.2.2.2.4.3.6.3.2 0 .4-.1.6-.3l1.4-1.4c.3-.3.3-.9 0-1.2-.3-.3-.9-.3-1.2 0ZM20.9 11h-2c-.5 0-.9.4-.9.9s.4.9.9.9h2c.5 0 .9-.4.9-.9s-.4-.9-.9-.9ZM5.8 11.9c0-.5-.4-.9-.9-.9h-2c-.5 0-.9.4-.9.9s.4.9.9.9h2c.5 0 .9-.4.9-.9ZM17.4 16.2c-.3-.3-.9-.3-1.2 0-.3.3-.3.9 0 1.2l1.4 1.4c.2.2.4.3.6.3.2 0 .4-.1.6-.3.3-.3.3-.9 0-1.2l-1.4-1.4ZM6.3 7.5c.2.2.4.3.6.3.2 0 .4-.1.6-.3.3-.3.3-.9 0-1.2L6.1 4.9c-.3-.3-.9-.3-1.2 0-.3.3-.3.9 0 1.2l1.4 1.4Z"/></g></svg>