<svg xmlns="http://www.w3.org/2000/svg" width="24" height="24" fill="none"><path fill="#28303F" d="M15.63 20.71a.87.87 0 0 1-.62-.26l-4-4.04c-.44.06-.92.09-1.26.09C6.03 16.5 3 13.48 3 9.75c0-.86.14-1.68.43-2.43a1.122 1.122 0 0 1 1.84-.4l3.1 3.03c.3.29.79.29 1.09-.01l.54-.53c.3-.3.3-.79 0-1.09L6.98 5.27c-.28-.28-.39-.67-.29-1.06.09-.38.37-.69.75-.81.78-.25 1.65-.4 2.31-.4 3.72 0 6.75 3.03 6.75 6.75 0 .36-.03.72-.09 1.08l4.08 4.12a.872.872 0 1 1-1.24 1.23l-4.75-4.79.13-.57c.07-.34.11-.7.11-1.06 0-2.76-2.24-5-5-5-.21-.01-.47.01-.74.06l2.25 2.26c.98.98.97 2.58-.01 3.56l-.54.55c-.97.97-2.57.98-3.55.02L4.81 8.92c-.04.27-.06.55-.06.83 0 2.76 2.24 5 5 5 .42 0 1.03-.06 1.37-.14l.49-.11.55.58 4.1 4.14c.34.34.34.9-.01 1.24-.17.16-.4.25-.62.25Z"/></svg>