<svg xmlns="http://www.w3.org/2000/svg" width="24" height="24" fill="none"><g fill="#28303F"><path d="M18.37 18.2a4.43 4.43 0 0 0 1.36-1.94c.27-.76.34-1.59.19-2.39l-1.31-7.2a4.552 4.552 0 0 0-1.5-2.63A4.234 4.234 0 0 0 14.34 3H9.66c-1.02 0-2 .37-2.78 1.04-.78.67-1.31 1.6-1.5 2.63l-1.31 7.2c-.15.8-.08 1.63.19 2.39.27.76.74 1.44 1.36 1.94L4.4 19.46c-.08.08-.15.18-.19.29-.04.11-.07.23-.07.35 0 .12.02.24.07.35.04.11.11.21.19.29.08.08.18.15.28.2.12.04.23.06.35.06.12 0 .23-.02.33-.07s.2-.11.28-.2l1.63-1.68c.35.1.72.14 1.08.15h7.29c.37 0 .73-.05 1.08-.15l1.63 1.68c.16.17.38.26.61.26.23 0 .45-.1.61-.26.16-.17.25-.39.26-.63 0-.24-.09-.47-.25-.63l-1.21-1.27ZM7.1 7c.11-.62.43-1.18.9-1.58.46-.4 1.05-.62 1.66-.62h4.67c.61 0 1.2.22 1.67.62s.79.96.9 1.58l.3 1.66c-.65.76-1.45 1.38-2.35 1.8-.89.42-1.86.64-2.85.64s-1.96-.22-2.86-.64c-.9-.42-1.7-1.03-2.35-1.8L7.1 7Zm11.07 8.37c-.1.38-.27.74-.52 1.05-.24.31-.55.55-.9.72-.35.17-.73.26-1.11.26H8.36a2.61 2.61 0 0 1-2.01-.98c-.25-.31-.42-.66-.52-1.05-.1-.38-.11-.78-.04-1.17l.62-3.41A8.504 8.504 0 0 0 12 12.9c2.05 0 4.03-.75 5.59-2.11l.62 3.41c.07.39.06.79-.04 1.17Z"/><path d="M8.54 13.8c-.5 0-.9.4-.9.9s.4.9.9.9.9-.4.9-.9-.4-.9-.9-.9ZM15.49 13.81c-.5 0-.9.4-.9.9s.4.9.9.9.9-.4.9-.9-.41-.9-.9-.9Z"/></g></svg>