<svg xmlns="http://www.w3.org/2000/svg" width="24" height="24" fill="none"><path fill="#28303F" fill-rule="evenodd" d="M17.91 5h-1.1l-.34-1.03A2.87 2.87 0 0 0 13.74 2h-3.12c-1.24 0-2.33.79-2.73 1.97L7.55 5h-1.1C4.4 5 3.26 7.37 4.54 8.98c.5.62.77 1.39.77 2.18v5.72a4.88 4.88 0 0 0 4.88 4.88h4a4.88 4.88 0 0 0 4.88-4.88v-5.72c0-.79.27-1.56.77-2.18C21.1 7.37 19.96 5 17.91 5Zm-6.52 11.14c0 .48-.39.88-.88.88-.48 0-.87-.39-.87-.88v-5.69c0-.48.39-.88.87-.88s.88.39.88.88v5.69Zm3.26 0c0 .48-.39.88-.88.88-.48 0-.88-.39-.88-.88v-5.69c0-.48.39-.88.88-.88.48 0 .88.39.88.88v5.69ZM9.39 5l.16-.48c.15-.46.58-.77 1.07-.77h3.12c.48 0 .91.31 1.07.77l.16.48H9.39Z" clip-rule="evenodd"/></svg>