<svg xmlns="http://www.w3.org/2000/svg" width="24" height="24" fill="none"><path fill="#28303F" fill-rule="evenodd" d="M7.89 3.97A2.88 2.88 0 0 1 10.62 2h3.12c1.24 0 2.34.79 2.73 1.97L16.81 5h1.1c2.05 0 3.19 2.37 1.91 3.98-.5.62-.77 1.39-.77 2.18v5.72a4.88 4.88 0 0 1-4.88 4.88h-4a4.88 4.88 0 0 1-4.88-4.88v-5.72c0-.79-.27-1.56-.77-2.18C3.26 7.37 4.4 5 6.45 5h1.1l.34-1.03Zm8.31 2.78H6.45c-.58 0-.91.68-.54 1.13.74.93 1.15 2.08 1.15 3.27v5.72c0 1.73 1.4 3.13 3.13 3.13h4c1.73 0 3.13-1.4 3.13-3.13v-5.71c0-1.19.41-2.34 1.15-3.27.36-.46.04-1.13-.54-1.13H16.2v-.01Zm-1.39-2.23.16.48H9.39l.16-.48c.15-.46.58-.77 1.07-.77h3.12c.48 0 .91.31 1.07.77Zm-4.29 5.06c.48 0 .88.39.88.88v5.68c0 .48-.39.88-.88.88-.48 0-.87-.39-.87-.88v-5.69c-.01-.48.38-.87.87-.87Zm3.26 0c.48 0 .88.39.88.88v5.68c0 .48-.39.88-.88.88-.48 0-.88-.39-.88-.88v-5.69c0-.48.4-.87.88-.87Z" clip-rule="evenodd"/></svg>