<svg xmlns="http://www.w3.org/2000/svg" width="24" height="24" fill="none"><g fill="#28303F"><path d="M19.47 3H4.53C3.13 3 2 4.21 2 5.69v8.21c0 1.49 1.13 2.69 2.53 2.69h14.94c1.4 0 2.53-1.21 2.53-2.69V5.69C22 4.21 20.87 3 19.47 3Zm.78 10.73c0 .55-.42 1-.94 1H4.69c-.52 0-.94-.45-.94-1V5.86c0-.55.42-1 .94-1h14.65c.54 0 .91.44.91 1.07v7.8ZM17.83 19.19c-.15-.06-3.75-1.45-5.87-1.45s-5.65 1.4-5.79 1.46c-.45.18-.68.72-.51 1.2.17.48.67.73 1.13.55.93-.37 3.68-1.34 5.18-1.34 1.5 0 4.31.97 5.27 1.34.1.04.2.06.3.06.36 0 .69-.23.82-.61.15-.5-.08-1.03-.53-1.21Z"/></g></svg>