<svg xmlns="http://www.w3.org/2000/svg" width="24" height="24" fill="none"><g fill="#28303F"><path d="M11.6 15.2c-3 0-3.8 1.3-4.6 3.2 1.1.1 3.1.2 4.7.2s3.2-.2 4.3-.3c-.7-1.9-1.5-3.1-4.4-3.1ZM8.5 14c-.9-.6-2-.9-3.3-.9-2.5 0-4.4 1.2-5.1 3-.2.5.1 1 .5 1.1.1 0 .2.1.3.1l4.4.8v-.2c.6-1.6 1.4-3.2 3.3-4 0 .1-.1.1-.1.1ZM23 16.1c-.8-1.9-2.7-3-5.1-3-1.3 0-2.4.3-3.3.9h-.1c1.8.7 2.6 2.2 3.3 3.9 0 .1 0 .2.1.3l4.4-.8c.1 0 .2 0 .3-.1.4-.2.6-.7.4-1.2ZM5.2 12.9c1 0 1.9-.5 2.4-1.2-.5-.8-.8-1.7-.8-2.7 0-.6.1-1.1.3-1.6-.5-.4-1.2-.7-1.9-.7-1.7 0-3.1 1.4-3.1 3.1 0 1.7 1.4 3.1 3.1 3.1ZM11.6 12a3 3 0 1 0 0-6 3 3 0 0 0 0 6ZM18 12.9c1.7 0 3.1-1.4 3.1-3.1 0-1.7-1.4-3.1-3.1-3.1-.7 0-1.4.3-1.9.7.2.5.3 1.1.3 1.6 0 1-.3 1.9-.8 2.7.5.7 1.4 1.2 2.4 1.2Z"/></g></svg>