<svg xmlns="http://www.w3.org/2000/svg" width="25" height="24" fill="none"><g fill="#28303F"><path d="M24 15.8c-.8-1.9-2.7-3-5.1-3-1.3 0-2.4.3-3.3.9-.9-.4-1.9-.6-3.1-.6-1.1 0-2.2.2-3.1.6-.9-.6-2-.9-3.3-.9-2.5 0-4.4 1.2-5.1 3-.2.5.1 1 .5 1.1.2.1.3.1.4.1.4 0 .7-.2.8-.6.4-1.2 1.8-1.9 3.5-1.9.6 0 1.1.1 1.6.2-.6.6-1.1 1.2-1.4 2-.2.5.1 1 .5 1.1 0 .2.1.2.2.2.4 0 .7-.2.8-.6.6-1.6 2.3-2.6 4.6-2.6 1.3 0 3.7.3 4.6 2.6.2.4.7.6 1.1.5.4-.2.7-.7.5-1.1-.3-.8-.8-1.4-1.4-2 .5-.2 1-.2 1.6-.2 1 0 2.8.3 3.5 1.9.1.3.5.5.8.5.1 0 .2 0 .3-.1.5-.2.7-.7.5-1.1ZM6.2 12.5c1.5 0 2.7-1 3-2.4.6 1.3 1.9 2.2 3.4 2.2s2.8-.9 3.4-2.2c.3 1.4 1.5 2.4 3 2.4 1.7 0 3.1-1.4 3.1-3.1 0-1.7-1.4-3-3.1-3-1.2 0-2.3.7-2.8 1.7-.3-1.8-1.8-3.1-3.6-3.1-1.9 0-3.4 1.3-3.7 3.1-.5-1-1.5-1.7-2.8-1.7C4.4 6.4 3 7.8 3 9.5c0 1.7 1.5 3 3.2 3ZM19 8.1c.7 0 1.3.6 1.3 1.3 0 .7-.6 1.4-1.3 1.4-.7 0-1.3-.6-1.3-1.3 0-.7.5-1.4 1.3-1.4Zm-6.4-1.3c1.1 0 1.9.9 1.9 1.9 0 1.1-.9 1.9-1.9 1.9-1 0-2-.9-2-1.9 0-1.1.9-1.9 2-1.9ZM6.2 8.1c.7 0 1.3.6 1.3 1.3 0 .7-.6 1.4-1.3 1.4-.7 0-1.4-.6-1.4-1.4 0-.8.6-1.3 1.4-1.3Z"/></g></svg>