<svg xmlns="http://www.w3.org/2000/svg" width="24" height="24" fill="none"><g fill="#28303F"><path d="M10.9 12c2.8 0 5-2.3 5-5s-2.3-5-5-5c-2.8 0-5 2.3-5 5s2.2 5 5 5Zm0-8.2c1.8 0 3.3 1.5 3.3 3.3 0 1.8-1.5 3.3-3.3 3.3-1.8 0-3.3-1.6-3.3-3.4 0-1.8 1.5-3.2 3.3-3.2ZM10.6 14c-1.9 0-3.7.5-5.3 1.4-1.6.9-2.8 2.3-3.3 3.8-.2.5.1 1 .5 1.1.1 0 .2.1.3.1.4 0 .7-.2.8-.6.4-1.1 1.3-2 2.5-2.7 1.3-.7 2.8-1.2 4.4-1.2.5 0 .9-.4.9-.9s-.3-1-.8-1ZM20.8 16h-3.1v-3.1c0-.5-.4-.9-.9-.9s-.8.4-.8.9V16h-3.1c-.5 0-.9.4-.9.9s.4.9.9.9H16v3.1c0 .5.4.9.9.9s.9-.4.9-.9v-3.1h3.1c.5 0 .9-.4.9-.9s-.5-.9-1-.9Z"/></g></svg>