<svg xmlns="http://www.w3.org/2000/svg" width="24" height="24" fill="none"><path fill="#28303F" d="M21.6 6.49c-.71-.35-1.54-.28-2.17.19l-2.68 2v-.3c0-2.41-1.96-4.38-4.38-4.38h-7C2.96 4 1 5.96 1 8.38v7c0 2.41 1.96 4.38 4.38 4.38h7c2.41 0 4.38-1.96 4.38-4.38v-.27l2.69 1.98a2.088 2.088 0 0 0 2.17.19c.7-.35 1.14-1.06 1.14-1.85V8.35c-.01-.79-.45-1.51-1.16-1.86ZM15 15.38c0 1.45-1.18 2.63-2.63 2.63h-7c-1.45 0-2.63-1.18-2.63-2.63v-7c0-1.45 1.18-2.63 2.63-2.63h7c1.45 0 2.63 1.18 2.63 2.63v7Zm6 .04c0 .17-.11.26-.18.29a.33.33 0 0 1-.34-.03l-3.73-2.75v-2.06l3.73-2.79a.325.325 0 0 1 .52.27v7.07Z"/></svg>