<svg xmlns="http://www.w3.org/2000/svg" width="24" height="24" fill="none"><g fill="#28303F"><path d="M18.69 6.82c-.75-.78-2.16-2.24-3.05-3.11C14.9 3 14.18 3 13.79 3H8.26C6.46 3 5 4.48 5 6.31v11.31c0 1.82 1.46 3.31 3.26 3.31h7.92c1.8 0 3.26-1.48 3.26-3.31V8.74c0-.43 0-1.14-.75-1.92Zm-4.64-2.05c.12.02.23.07.37.2.87.84 2.26 2.29 3.01 3.07.12.12.18.22.21.32l-3.59-.03V4.77Zm3.64 12.85c0 .86-.68 1.56-1.51 1.56H8.26c-.83 0-1.51-.7-1.51-1.56V6.31c0-.86.68-1.56 1.51-1.56h4.04v3.58c0 .98.8 1.78 1.78 1.78h3.6v7.51h.01Z"/><path d="M10.82 13.17v3.02c0 .34.37.55.66.38l2.62-1.51a.44.44 0 0 0 0-.76l-2.62-1.51a.443.443 0 0 0-.66.38Z"/></g></svg>