<svg xmlns="http://www.w3.org/2000/svg" width="24" height="24" fill="none"><g fill="#28303F"><path d="M14.28 12.48c-.83 0-.91.8-.91.8v4.75c0 .46-.25.84-.66 1.03-.41.19-.86.12-1.21-.18l-1.97-1.49s-.52-.24-.99.22c-.36.36-.08 1.02-.08 1.02l1.87 1.56c.54.48 1.21.72 1.89.72.4 0 .81-.09 1.19-.26a2.851 2.851 0 0 0 1.69-2.62v-4.77c.01 0-.1-.78-.82-.78ZM19.17 4.77a.872.872 0 0 0-1.24-.02l-2.82 2.71v-.58c.01-1.14-.64-2.15-1.68-2.62-1.04-.47-2.22-.3-3.08.46L7.41 7.3c-.2.18-.47.28-.74.28H5.38C3.51 7.58 2 9.1 2 10.96v3c0 1.7 1.26 3.1 2.91 3.33l-2.54 2.44c-.35.33-.36.89-.02 1.24.17.18.4.27.63.27.22 0 .44-.08.61-.25L19.14 6.01c.35-.34.36-.89.03-1.24ZM5.38 15.58c-.9 0-1.63-.73-1.63-1.63v-3c0-.9.73-1.63 1.63-1.63h1.29c.7 0 1.37-.25 1.9-.72l2.93-2.57c.34-.3.79-.37 1.21-.18.41.19.66.57.66 1.02v2.27l-6.69 6.44h-1.3Z"/></g></svg>