<svg xmlns="http://www.w3.org/2000/svg" width="24" height="24" fill="none"><g fill="#28303F"><path d="M13.44 12.77s.34-.31.83-.29c.73.03.83.78.83.78v4.78c0 1.14-.65 2.15-1.69 2.62-.38.17-.79.26-1.19.26-.68 0-1.35-.24-1.89-.72l-1.87-1.56s-.39-.57.08-1.02l4.9-4.85ZM19.17 4.77a.872.872 0 0 0-1.24-.02l-2.82 2.71v-.58c.01-1.14-.64-2.15-1.68-2.62-1.04-.47-2.22-.3-3.08.46L7.41 7.3c-.2.18-.47.28-.74.28H5.38C3.51 7.58 2 9.1 2 10.96v3c0 1.7 1.26 3.1 2.91 3.33l-2.54 2.44c-.35.33-.36.89-.02 1.24.17.18.4.27.63.27.22 0 .44-.08.61-.25L19.14 6.01c.35-.34.36-.89.03-1.24Z"/></g></svg>