<svg xmlns="http://www.w3.org/2000/svg" width="24" height="24" fill="none"><g fill="#28303F"><path d="M13.43 4.26c-1.04-.47-2.22-.3-3.08.46L7.41 7.3c-.2.18-.47.28-.74.28H5.38C3.51 7.58 2 9.1 2 10.96v3c0 1.86 1.51 3.38 3.38 3.38h1.29c.27 0 .54.1.74.28l2.93 2.58c.54.48 1.21.72 1.89.72.4 0 .81-.09 1.19-.26a2.851 2.851 0 0 0 1.69-2.62V6.88c.01-1.14-.64-2.15-1.68-2.62Zm-.06 13.77c0 .46-.25.84-.66 1.03-.41.19-.86.12-1.21-.18L8.57 16.3c-.52-.46-1.2-.72-1.9-.72H5.38c-.9 0-1.63-.73-1.63-1.63v-3c0-.9.73-1.63 1.63-1.63h1.29c.7 0 1.37-.25 1.9-.72l2.93-2.57c.34-.3.79-.37 1.21-.18.41.19.66.57.66 1.02v11.16ZM17.79 9.04a.868.868 0 0 0-1.22-.18c-.39.29-.47.83-.18 1.22.51.69.78 1.51.78 2.37 0 .86-.27 1.69-.78 2.37-.29.39-.2.94.18 1.22.16.12.34.17.52.17.27 0 .53-.12.71-.36a5.71 5.71 0 0 0 1.12-3.41c-.01-1.22-.4-2.41-1.13-3.4Z"/><path d="M19.69 6.15a.866.866 0 0 0-1.22-.18c-.39.29-.47.83-.18 1.22A8.852 8.852 0 0 1 20 12.46c0 1.92-.6 3.74-1.72 5.27-.29.39-.2.94.18 1.22.16.12.34.17.52.17.27 0 .53-.12.71-.36 1.35-1.83 2.07-4.01 2.07-6.31-.01-2.29-.72-4.47-2.07-6.3Z"/></g></svg>