<svg xmlns="http://www.w3.org/2000/svg" width="24" height="24" fill="none"><g fill="#28303F"><path d="M20.75 10.88c0-2.97 0-4.61-1.13-5.74S16.84 4 13.88 4h-4c-2.97 0-4.6 0-5.74 1.13C3 6.27 3 7.91 3 10.88v2c0 2.97 0 4.61 1.14 5.74 1.13 1.14 2.77 1.14 5.74 1.14h4c2.97 0 4.61 0 5.74-1.13.94-.94 1.1-2.23 1.13-4.32v-.01c0-.17.01-.33.01-.51V10.88h-.01ZM13.88 18h-4c-2.76 0-3.9-.02-4.5-.62-.6-.6-.62-1.74-.62-4.5v-2c0-2.76.02-3.9.62-4.5.6-.6 1.74-.62 4.5-.62h4c2.76 0 3.9.02 4.5.62.6.6.62 1.73.62 4.5v.16c-.27-.03-.56-.04-.9-.04h-1.78c-.97 0-1.62 0-2.13.51-.52.51-.52 1.15-.52 2.12 0 .97 0 1.6.52 2.12.52.51 1.16.51 2.13.51h1.78c.29 0 .54 0 .77-.02-.09.53-.24.89-.49 1.14-.6.6-1.74.62-4.5.62Zm5.1-3.53c-.18.03-.55.03-.88.03h-1.78c-.33 0-.7 0-.88-.03-.02-.17-.02-.53-.02-.85 0-.32 0-.67.02-.85.18-.03.55-.03.88-.03h1.78c.33 0 .7 0 .88.03.01.13.02.33.02.55 0 .32 0 .62-.01.9 0 .1-.01.19-.01.25Z"/><path d="M10.1 7.5H7.43c-.48 0-.88.39-.88.88s.39.88.88.88h2.67c.48 0 .88-.39.88-.88s-.4-.88-.88-.88Z"/></g></svg>