<svg xmlns="http://www.w3.org/2000/svg" width="24" height="24" fill="none"><g fill="#28303F"><path d="M20.75 12.76c-1.06-.01-2.45-.01-2.65-.01h-1.78c-.33 0-.7 0-.88.03-.02.17-.02.53-.02.85 0 .32 0 .67.02.85.18.03.55.03.88.03h1.78c.21 0 1.58 0 2.64-.01V14.29c0-.17.01-.33.01-.51v-1.02Z"/><path d="M16.32 16.25c-.97 0-1.62 0-2.13-.51-.52-.51-.52-1.15-.52-2.12 0-.97 0-1.6.52-2.12.51-.5 1.16-.5 2.13-.5h4.43v-.12c0-2.97 0-4.61-1.13-5.74S16.84 4 13.88 4h-4c-2.97 0-4.6 0-5.74 1.13C3 6.27 3 7.91 3 10.88v2c0 2.97 0 4.61 1.14 5.74 1.13 1.14 2.77 1.14 5.74 1.14h4c2.97 0 4.61 0 5.74-1.13.6-.6.88-1.35 1.01-2.36h-4.31v-.02Zm-6.22-7H7.43c-.48 0-.88-.39-.88-.88s.4-.87.88-.87h2.67c.48 0 .88.39.88.88s-.4.87-.88.87Z"/></g></svg>