<svg xmlns="http://www.w3.org/2000/svg" width="24" height="24" fill="none"><g fill="#28303F"><path d="M11.632 2c-1.029 0-1.907.06-2.653.19a.737.737 0 0 0 .253 1.452c.635-.111 1.422-.168 2.4-.168.977 0 1.764.057 2.4.168a.737.737 0 1 0 .252-1.452C13.538 2.06 12.66 2 11.633 2ZM11.632 22c-1.029 0-1.907-.06-2.653-.19a.737.737 0 0 1 .253-1.452c.635.111 1.422.168 2.4.168.977 0 1.764-.057 2.4-.168a.737.737 0 1 1 .252 1.452c-.746.13-1.624.19-2.652.19Z"/><path fill-rule="evenodd" d="M18.368 9.579c.407 0 .737.33.737.737v2.526a.737.737 0 0 1-.852.728 18.026 18.026 0 0 1-.086 1.551c-.098.903-.3 1.736-.766 2.427-.967 1.437-2.813 1.926-5.77 1.926-2.956 0-4.802-.49-5.769-1.926-.465-.691-.668-1.524-.766-2.427C5 14.23 5 13.185 5 12.032v-.064c0-1.153 0-2.197.096-3.09.098-.902.3-1.735.766-2.426.967-1.437 2.813-1.926 5.77-1.926 2.957 0 4.802.49 5.769 1.926.465.691.668 1.524.766 2.427.024.228.043.467.056.714a.74.74 0 0 1 .145-.014Zm-6-.526a.737.737 0 1 0-1.473 0V12c0 .21.088.4.229.534l2.513 2.513a.737.737 0 0 0 1.042-1.042l-2.31-2.31V9.052Z" clip-rule="evenodd"/></g></svg>