<svg xmlns="http://www.w3.org/2000/svg" width="24" height="24" fill="none"><g fill="#28303F"><path d="M13.65 17.29c.15-.91-.47-1.78-1.39-1.92-.91-.15-1.78.47-1.92 1.39-.15.91.47 1.78 1.39 1.92.91.14 1.77-.48 1.92-1.39ZM20.5 8.52A11.963 11.963 0 0 0 12 5C9.02 5 5.92 6.1 3.5 8.52c-.67.67-.66 1.7-.01 2.37.82.83 1.9.5 2.38 0A8.616 8.616 0 0 1 12 8.35c2.31 0 4.49.9 6.12 2.53.48.5 1.56.83 2.38 0 .66-.66.67-1.69 0-2.36Z"/><path d="M12 10.17c-1.67 0-3.46.62-4.84 2.01-.68.67-.67 1.71 0 2.38.66.66 1.7.66 2.36-.01.67-.66 1.55-1.02 2.48-1.02.93 0 1.81.36 2.47 1.02.66.66 1.7.67 2.36.01.67-.66.68-1.7.01-2.38A6.816 6.816 0 0 0 12 10.17Z"/></g></svg>