<svg xmlns="http://www.w3.org/2000/svg" width="24" height="24" fill="none"><g fill="#28303F"><path d="M20.5 8.52A11.963 11.963 0 0 0 12 5c-.87 0-1.74.11-2.61.31l2.08 3.08c.17-.01.35-.04.53-.04 2.31 0 4.49.9 6.12 2.53.48.5 1.56.83 2.38 0 .66-.66.67-1.69 0-2.36ZM12.69 10.21l3.24 4.81c.33-.06.65-.21.91-.47.67-.66.68-1.7.01-2.38a6.893 6.893 0 0 0-4.16-1.96ZM8.03 5.52c-.28-.41-.77-.57-1.23-.46-.12.02-.24.06-.35.13-.1.07-.19.16-.25.26-.26.33-.32.76-.16 1.15-.9.51-1.76 1.14-2.54 1.92-.67.67-.66 1.7-.01 2.36.82.83 1.9.5 2.38 0 .6-.6 1.29-1.08 2.02-1.47l1.03 1.52c-.63.31-1.23.71-1.77 1.24-.67.68-.66 1.72.01 2.39.66.66 1.7.66 2.36-.01.38-.38.83-.62 1.32-.79l1.08 1.59a1.672 1.672 0 0 0-.19 3.32c.76.12 1.49-.3 1.79-.97l.36.53c.22.33.58.5.95.5.22 0 .45-.06.64-.2.53-.36.66-1.07.31-1.6L8.03 5.52Z"/></g></svg>