<svg xmlns="http://www.w3.org/2000/svg" width="24" height="24" fill="none"><g fill="#28303F"><path d="M8.436 4.628c0-.01 0-.01-.01-.02l-.14-.21a.883.883 0 0 0-1.21-.26c-.4.26-.52.81-.26 1.21l.37.57c-2.35 1.03-3.83 2.44-3.93 2.53a.83.83 0 0 0-.01 1.19c.17.17.39.25.61.25.22 0 .43-.08.6-.24.02-.02 1.44-1.38 3.67-2.29l.8 1.24c-1.86.74-3.05 1.86-3.12 1.94a.83.83 0 0 0-.01 1.19c.33.33.87.33 1.21.01.01-.01 1.15-1.07 2.88-1.68l.72 1.1c-1.45.43-2.4 1.32-2.44 1.38a.83.83 0 0 0-.01 1.19c.33.33.87.33 1.21.01.01-.01.93-.87 2.21-1.08l.93 1.43c-.13-.02-.26-.04-.4-.04-1.35 0-2.44 1.07-2.44 2.4 0 1.33 1.09 2.39 2.44 2.39 1.13 0 2.06-.75 2.34-1.77l.88 1.35c.17.26.45.4.73.4.16 0 .33-.05.48-.14.4-.26.51-.79.26-1.19l-8.36-12.86ZM20.776 8.468c-.15-.14-3.56-3.62-8.66-3.62-.58 0-1.13.05-1.67.13l1.04 1.59c.21-.01.41-.04.62-.04 4.35 0 7.38 3.07 7.42 3.1.32.33.87.35 1.21.03a.83.83 0 0 0 .04-1.19ZM12.376 7.938l1.21 1.85c2.16.48 3.6 1.9 3.62 1.92a.87.87 0 0 0 1.21.03.83.83 0 0 0 .03-1.19c-.1-.1-2.49-2.52-6.07-2.61Z"/></g></svg>