<svg xmlns="http://www.w3.org/2000/svg" width="24" height="24" fill="none"><g fill="#28303F"><path d="M12.11 14.21c-1.35 0-2.44 1.07-2.44 2.4 0 1.33 1.09 2.39 2.44 2.39 1.35 0 2.44-1.07 2.44-2.4 0-1.33-1.09-2.39-2.44-2.39ZM20.77 8.62C20.62 8.48 17.21 5 12.11 5c-5.09 0-8.7 3.46-8.86 3.6a.83.83 0 0 0-.01 1.19c.17.17.39.25.61.25.22 0 .43-.08.6-.24.03-.03 3.26-3.12 7.65-3.12 4.35 0 7.38 3.07 7.42 3.1.32.33.87.35 1.21.03a.83.83 0 0 0 .04-1.19Z"/><path d="M12.19 8.09c-3.67 0-6.28 2.49-6.39 2.6a.83.83 0 0 0-.01 1.19c.33.33.87.33 1.21.01.02-.02 2.23-2.11 5.19-2.11 2.93 0 4.99 2.07 5.01 2.09a.87.87 0 0 0 1.21.03.83.83 0 0 0 .03-1.19c-.1-.11-2.57-2.62-6.25-2.62Z"/><path d="M12.11 11.08c-2.27 0-3.89 1.54-3.95 1.61a.83.83 0 0 0-.01 1.19c.33.33.87.33 1.21.01.01-.01 1.2-1.12 2.75-1.12 1.54 0 2.63 1.09 2.64 1.1a.87.87 0 0 0 1.21.03.83.83 0 0 0 .03-1.19c-.06-.07-1.59-1.63-3.88-1.63Z"/></g></svg>